<?xml version="1.0" standalone="no"?>
<!DOCTYPE svg PUBLIC "-//W3C//DTD SVG 1.1//EN" "http://www.w3.org/Graphics/SVG/1.1/DTD/svg11.dtd" >
<svg xmlns="http://www.w3.org/2000/svg">
<metadata>
This is a custom SVG webfont generated by Font Squirrel.
Copyright   : Copyright c 2007 by The Font Bureau Inc All rights reserved
Designer    : Tobias FrereJones
Foundry URL : httpwwwfontbureaucom
</metadata>
<defs>
<font id="InterstateMazdaLight" horiz-adv-x="1066" >
<font-face units-per-em="2048" ascent="1638" descent="-410" />
<missing-glyph horiz-adv-x="446" />
<glyph unicode=" "  horiz-adv-x="446" />
<glyph unicode="&#x09;" horiz-adv-x="446" />
<glyph unicode="&#xa0;" horiz-adv-x="446" />
<glyph unicode="!" horiz-adv-x="452" d="M120 86q0 21 8.5 40.5t23 34.5t33.5 24t40 9t40 -9t33 -24t23 -34.5t9 -40.5t-9 -40t-23 -34t-33 -23t-40 -8t-40 8t-33.5 23t-23 34t-8.5 40zM160 638v567h132v-567l-31 -315h-72z" />
<glyph unicode="&#x22;" horiz-adv-x="791" d="M144 1205h160l-28 -563h-102zM487 1205h160l-30 -563h-101z" />
<glyph unicode="#" d="M86 304v113h186v371h-186v112h186v305h120v-305h283v305h120v-305h185v-112h-185v-371h185v-113h-185v-304h-120v304h-283v-304h-120v304h-186zM392 417h283v371h-283v-371z" />
<glyph unicode="$" d="M100 153l82 105q38 -30 79 -55t84 -43t89 -28t94 -10q132 0 206.5 54.5t74.5 151.5q0 42 -14.5 73.5t-50 58t-94.5 51.5t-148 52q-103 33 -173.5 64.5t-113.5 70t-62 87t-19 115.5q0 66 23.5 119t66.5 90.5t103 61t134 30.5v175h127v-173q50 -3 93 -13t82.5 -24.5 t75.5 -34t72 -42.5l-79 -110q-37 24 -72.5 43.5t-72.5 32.5t-77.5 20t-87.5 7q-68 0 -116 -13.5t-78.5 -36.5t-45 -55t-14.5 -69t11.5 -66t44.5 -55t93 -51.5t158 -55.5q105 -35 176 -67.5t113 -72t59.5 -89t17.5 -118.5q0 -65 -24 -121.5t-69.5 -99.5t-111.5 -71t-150 -36 v-177h-127v177q-52 5 -102.5 18.5t-96.5 33t-86 44t-74 52.5z" />
<glyph unicode="%" d="M76 890q0 163 47.5 248t131.5 85q83 0 129 -83t46 -247t-48 -249t-131 -85t-129 83.5t-46 247.5zM176 893q0 -114 20 -176t59 -62t57 60t18 175q0 114 -20 175t-59 61q-38 0 -56.5 -59.5t-18.5 -173.5zM202 0l562 1205h101l-563 -1205h-100zM637 312q0 163 47.5 248 t131.5 85q83 0 129 -83t46 -247t-48 -249t-131 -85t-129 83.5t-46 247.5zM737 315q0 -114 19.5 -176t59.5 -62q38 0 56.5 60t18.5 175q0 114 -20 175.5t-59 61.5t-57 -60t-18 -174z" />
<glyph unicode="&#x26;" horiz-adv-x="1107" d="M105 304q0 69 19.5 123t55.5 97t85.5 78t109.5 66l-43 54q-22 29 -41.5 57.5t-33.5 58t-22 61t-8 64.5q0 63 24 111t64.5 81t94.5 49.5t113 16.5q58 0 109.5 -17.5t89.5 -50.5t60.5 -80.5t22.5 -107.5q0 -183 -244 -333l237 -307q22 43 42 94.5t41 117.5l112 -35 q-19 -74 -50.5 -147t-68.5 -128l173 -227h-157l-97 126q-72 -73 -152 -109t-173 -36q-83 0 -150 20t-114.5 60.5t-73 101t-25.5 141.5zM234 308q0 -44 15.5 -82.5t46 -66.5t74.5 -44.5t101 -16.5q78 0 142 32t109 85l-278 365q-102 -46 -156 -113t-54 -159zM360 970 q0 -51 21.5 -92t50.5 -77l60 -77q51 32 84.5 62t53.5 59t29 58t9 59q0 69 -41.5 109t-103.5 40q-35 0 -65 -10.5t-52 -29t-34 -44.5t-12 -57z" />
<glyph unicode="'" horiz-adv-x="441" d="M139 1205h163l-28 -563h-105z" />
<glyph unicode="(" horiz-adv-x="598" d="M53 514q0 90 19.5 169.5t52 149t76.5 129t93.5 109.5t101.5 90.5t100 71.5l49 -56q-75 -62 -139 -130t-110.5 -146.5t-72.5 -171t-26 -204.5q0 -117 26 -211t72.5 -172.5t110.5 -145.5t139 -129l-49 -56q-48 31 -100 72t-101.5 90.5t-93.5 108.5t-76.5 126.5t-52 144 t-19.5 161.5z" />
<glyph unicode=")" horiz-adv-x="598" d="M53 -133q76 62 139.5 130t110 146.5t72.5 171t26 204.5q0 117 -26 211t-72.5 172.5t-110 145.5t-139.5 129l48 56q49 -31 101 -71.5t101.5 -90.5t93.5 -109t77 -126.5t52 -144t19 -161.5q0 -90 -19 -169.5t-52 -149t-77 -129t-93.5 -109t-101.5 -90.5t-101 -72z" />
<glyph unicode="*" horiz-adv-x="860" d="M164 822l222 100l-222 104l46 79l197 -148l-23 248h92l-25 -248l199 148l46 -79l-221 -104l221 -100l-46 -80l-199 149l25 -248h-92l23 248l-197 -149z" />
<glyph unicode="+" d="M115 533v117h356v366h125v-366h356v-117h-356v-366h-125v366h-356z" />
<glyph unicode="," horiz-adv-x="533" d="M162 -203l25 401h179l-111 -401h-93z" />
<glyph unicode="-" horiz-adv-x="553" d="M87 566v125h379v-125h-379z" />
<glyph unicode="." horiz-adv-x="533" d="M155 93q0 23 8.5 44t23.5 37t36 25t43 9q23 0 43.5 -9t35.5 -25t24.5 -37t9.5 -44t-9.5 -43.5t-24.5 -36t-35.5 -24t-43.5 -8.5q-22 0 -43 8.5t-36 24t-23.5 36t-8.5 43.5z" />
<glyph unicode="/" horiz-adv-x="730" d="M45 -155l514 1514h127l-514 -1514h-127z" />
<glyph unicode="0" d="M95 602q0 150 32.5 266t91 195t139 119.5t175.5 40.5q96 0 176.5 -40.5t138.5 -119.5t91 -195t33 -266q0 -149 -33 -265t-91 -195t-138.5 -120t-176.5 -41q-95 0 -175.5 41t-139 120t-91 195t-32.5 265zM227 602q0 -116 21.5 -209t61 -157.5t96.5 -99t127 -34.5 q71 0 127.5 34.5t96 99t61 157.5t21.5 209q0 117 -21.5 210t-61 157.5t-96 99t-127.5 34.5q-70 0 -127 -34.5t-96.5 -99t-61 -157.5t-21.5 -210z" />
<glyph unicode="1" d="M227 0v118h265v845h-236v84q56 4 101.5 12.5t79.5 27t56.5 47.5t29.5 71h101v-1087h241v-118h-638z" />
<glyph unicode="2" d="M95 0q6 111 41 202t96 160.5t135.5 122.5t134.5 91q87 57 142 98.5t85.5 77t42 69.5t11.5 77q0 97 -68.5 151t-198.5 54q-55 0 -99.5 -9.5t-81.5 -26t-68.5 -38.5t-59.5 -45l-78 96q37 29 78.5 55t89 45.5t103.5 31t122 11.5q82 0 153.5 -19t124.5 -58t83 -99t30 -142 q0 -71 -17 -121.5t-55 -94t-99 -87.5t-148 -101q-65 -42 -124.5 -85.5t-106.5 -89.5t-75 -94t-39 -104h678v-128h-832z" />
<glyph unicode="3" d="M79 134l86 94q73 -64 152.5 -95t165.5 -31q150 0 226.5 60.5t76.5 180.5q0 55 -21.5 97.5t-61 71t-95 43.5t-122.5 15h-85v115h86q119 0 182 55t63 153q0 44 -13 82.5t-44.5 67t-83 44.5t-126.5 16q-79 0 -143.5 -29t-111.5 -71l-81 92q26 22 62.5 45t80 41.5t93 30 t103.5 11.5q82 0 155 -19t126.5 -57t84.5 -97t31 -139q0 -53 -12.5 -95.5t-35 -76t-54.5 -59.5t-72 -47q44 -11 85 -33t73 -57.5t51 -84t19 -112.5q0 -86 -30.5 -154t-87 -115t-138.5 -71.5t-185 -24.5q-65 0 -122.5 12t-108 33t-92.5 49t-76 59z" />
<glyph unicode="4" d="M77 287v112l606 806h143v-803h158v-115h-158v-287h-124v287h-625zM227 402h475v630z" />
<glyph unicode="5" d="M118 92l66 106q68 -43 151 -69.5t174 -26.5q77 0 135.5 21t97 59.5t58 92t19.5 117.5q0 120 -75 186.5t-212 66.5q-42 0 -77 -5.5t-65 -15.5t-57 -24.5t-52 -31.5l-133 51l41 586h690v-128h-575l-28 -387q45 31 111.5 53t152.5 22q103 0 180.5 -26.5t128.5 -74t77 -115 t26 -148.5q0 -110 -33.5 -188.5t-94 -130.5t-143.5 -76.5t-182 -24.5q-112 0 -207 30t-174 81z" />
<glyph unicode="6" d="M110 456q0 78 15 163t48.5 167.5t87 158.5t131 135t180.5 97t235 46v-118q-238 -21 -379.5 -149t-188.5 -357q29 31 63 56.5t76 44.5t93 29.5t115 10.5q83 0 156 -22.5t127 -68.5t85.5 -115t31.5 -163q0 -96 -34 -169t-94 -122.5t-141 -74t-175 -24.5q-90 0 -168.5 26 t-137.5 82.5t-92.5 147t-33.5 219.5zM243 365q0 -57 21.5 -104.5t61.5 -83t96.5 -55.5t124.5 -20q75 0 132.5 19t96 54t58 83.5t19.5 106.5q0 60 -20.5 107.5t-59 80t-94.5 49.5t-127 17q-72 0 -129 -18.5t-97 -51.5t-61.5 -80t-21.5 -104z" />
<glyph unicode="7" d="M98 1077v128h871v-126q-88 -99 -166 -213t-138 -247.5t-96.5 -288t-40.5 -330.5h-136q5 162 37.5 310t87.5 282t130.5 255t166.5 230h-716z" />
<glyph unicode="8" d="M100 335q0 61 16 110.5t43.5 85.5t70 66t100.5 50q-40 16 -73.5 39t-57.5 54.5t-37.5 71.5t-13.5 89q0 69 25 128t74.5 102t121 67.5t164.5 24.5q94 0 165.5 -24t120.5 -66.5t73.5 -101t24.5 -128.5q0 -48 -13 -86.5t-37 -69.5t-58 -55t-75 -42q56 -19 99.5 -48.5 t74.5 -70t45 -87t14 -105.5q0 -88 -31 -154.5t-88.5 -112t-138 -68.5t-179.5 -23t-178.5 22.5t-135.5 67.5t-86 111t-30 153zM230 339q0 -53 19 -97t57 -75.5t95.5 -49t133.5 -17.5t132 17t93 48t55.5 74t18.5 96q0 52 -20 97t-58.5 78t-95 51.5t-128.5 18.5 q-73 0 -129.5 -18.5t-94.5 -50.5t-58 -76t-20 -96zM279 903q0 -43 17.5 -80.5t50.5 -64t80 -42t106 -15.5q58 0 105 15.5t80 42.5t50.5 63t17.5 78q0 37 -13.5 74t-44.5 66t-79 47t-117 18q-70 0 -118.5 -17.5t-78 -45.5t-43 -64.5t-13.5 -74.5z" />
<glyph unicode="9" d="M81 832q0 97 34 170t94 122t141 74t175 25q89 0 168 -26t137.5 -82.5t92.5 -147t34 -219.5q0 -78 -15 -163t-48.5 -168t-87 -158.5t-131 -134.5t-181 -97.5t-234.5 -45.5v119q238 21 379 148t188 358q-29 -31 -62.5 -57t-75.5 -44.5t-94 -29t-115 -10.5q-83 0 -155.5 22 t-126.5 68t-85.5 115t-31.5 162zM213 839q0 -121 80.5 -187.5t220.5 -66.5q71 0 129 18t98 51.5t61.5 80.5t21.5 104q0 56 -22 104.5t-61.5 84t-96 55.5t-125.5 20q-75 0 -132 -19.5t-95.5 -54t-58.5 -83.5t-20 -107z" />
<glyph unicode=":" horiz-adv-x="533" d="M155 93q0 23 8.5 44t23.5 37t36 25t43 9q23 0 43.5 -9t35.5 -25t24.5 -37t9.5 -44t-9.5 -43.5t-24.5 -36t-35.5 -24t-43.5 -8.5q-22 0 -43 8.5t-36 24t-23.5 36t-8.5 43.5zM155 807q0 23 8.5 44t23.5 37t36 25t43 9q23 0 43.5 -9t35.5 -25t24.5 -37t9.5 -44t-9.5 -43.5 t-24.5 -36t-35.5 -24t-43.5 -8.5q-22 0 -43 8.5t-36 24t-23.5 36t-8.5 43.5z" />
<glyph unicode=";" horiz-adv-x="533" d="M150 -203l26 401h178l-111 -401h-93zM155 807q0 23 8.5 44t23.5 37t36 25t43 9q23 0 43.5 -9t35.5 -25t24.5 -37t9.5 -44t-9.5 -43.5t-24.5 -36t-35.5 -24t-43.5 -8.5q-22 0 -43 8.5t-36 24t-23.5 36t-8.5 43.5z" />
<glyph unicode="&#x3c;" d="M155 522v140l764 477v-139l-651 -406l651 -407v-142z" />
<glyph unicode="=" d="M150 344v121h767v-121h-767zM150 719v120h767v-120h-767z" />
<glyph unicode="&#x3e;" d="M148 45v139l650 406l-650 406v143l763 -477v-140z" />
<glyph unicode="?" horiz-adv-x="965" d="M76 1063q34 34 77 63t93.5 50.5t108 34t123.5 12.5q81 0 149.5 -18.5t118 -56t77 -93t27.5 -128.5q0 -63 -14 -108t-42 -79.5t-67.5 -63.5t-89.5 -60q-43 -27 -69 -50.5t-40 -54.5t-18 -75.5t-4 -112.5h-133q0 78 6 137.5t27.5 102.5t62.5 78.5t107 75.5q34 21 60 41 t43.5 43t27 51t9.5 65q0 83 -67.5 133.5t-175.5 50.5q-95 0 -170 -35.5t-141 -96.5zM332 86q0 21 8.5 40.5t23 34.5t33.5 24t40 9t40 -9t33 -24t23 -34.5t9 -40.5t-9 -40t-23 -34t-33 -23t-40 -8t-40 8t-33.5 23t-23 34t-8.5 40z" />
<glyph unicode="@" horiz-adv-x="1438" d="M98 602q0 90 21 171t60 150t94.5 124.5t124.5 94.5t150 60t171 21q92 0 173.5 -22t150 -61.5t124 -95.5t94 -123.5t59 -143.5t20.5 -158q0 -97 -18 -165t-52 -111t-80.5 -62.5t-104.5 -19.5q-32 0 -60.5 8.5t-52 23t-41.5 34.5t-30 43q-38 -50 -95 -79.5t-128 -29.5 q-56 0 -104 14.5t-83.5 44t-55.5 73.5t-20 104q0 55 21.5 97t59 70.5t88 43t109.5 14.5q68 0 113.5 -13t78.5 -33v102q0 55 -42 82.5t-136 27.5q-47 0 -91 -11t-84 -30l-38 74q52 26 107 39.5t118 13.5q57 0 104 -10.5t80.5 -32.5t52 -58.5t18.5 -89.5v-332q0 -53 32 -82.5 t90 -29.5q35 0 64 14.5t50 47.5t32.5 86.5t11.5 129.5q0 118 -40.5 214.5t-111.5 166t-169 107t-214 37.5t-214 -38t-169.5 -108.5t-111.5 -169.5t-40 -220q0 -123 40 -223.5t111.5 -171.5t169.5 -110t214 -39q69 0 124.5 13t109.5 40l31 -76q-37 -16 -69 -27.5t-63 -18 t-63.5 -9.5t-69.5 -3q-90 0 -171 21t-150 60t-124.5 95t-94.5 124.5t-60 149.5t-21 171zM511 502q0 -75 42 -114.5t133 -39.5q31 0 60 7.5t55 21.5t47 32.5t37 41.5v139q-33 19 -82.5 34.5t-117.5 15.5q-39 0 -71 -10t-55 -28.5t-35.5 -43.5t-12.5 -56z" />
<glyph unicode="A" horiz-adv-x="1166" d="M92 0l417 1205h148l418 -1205h-141l-103 307h-498l-105 -307h-136zM375 428h415l-207 616z" />
<glyph unicode="B" horiz-adv-x="1076" d="M158 0v1205h441q71 0 131 -18.5t103.5 -55.5t68 -94t24.5 -134q0 -50 -13 -89.5t-36.5 -69.5t-55 -52t-69.5 -35q60 -16 103.5 -44t70.5 -65.5t41.5 -85.5t14.5 -106q0 -178 -101 -267t-291 -89h-432zM292 122h307q68 0 115.5 16.5t77.5 45.5t43 71t13 94q0 57 -18 101 t-51 74t-80.5 46t-106.5 16h-300v-464zM292 707h291q56 0 95.5 15.5t65 41t36.5 60t11 74.5q0 41 -12 75t-36.5 58t-61.5 37.5t-87 13.5h-302v-375z" />
<glyph unicode="C" horiz-adv-x="1080" d="M107 601q0 134 36 248t101 197t155.5 130t199.5 47q124 0 218 -47t165 -145l-107 -82q-29 40 -58 68.5t-62 47.5t-72 27.5t-87 8.5q-78 0 -143 -36.5t-112 -102.5t-73.5 -157.5t-26.5 -200.5q0 -110 27 -202t75 -158.5t113 -103.5t141 -37q98 0 169 41.5t129 116.5 l93 -80q-33 -45 -74 -81.5t-90.5 -63t-107 -41t-122.5 -14.5q-74 0 -138.5 21.5t-119 60.5t-97 95t-72 125t-45 149t-15.5 169z" />
<glyph unicode="D" horiz-adv-x="1132" d="M158 0v1205h318q119 0 219.5 -35t174 -107.5t115 -185t41.5 -266.5q0 -82 -10.5 -150t-38.5 -143t-82.5 -139.5t-124.5 -104t-149 -57t-168 -17.5h-295zM292 122h178q97 0 175 27t132.5 85t84 149.5t29.5 222.5q0 115 -27 204t-81 149.5t-133.5 91.5t-183.5 31h-174v-960 z" />
<glyph unicode="E" horiz-adv-x="1009" d="M158 0v1205h728v-123h-594v-378h481v-123h-481v-459h619v-122h-753z" />
<glyph unicode="F" horiz-adv-x="942" d="M158 0v1205h707v-123h-573v-399h330v-122h-330v-561h-134z" />
<glyph unicode="G" horiz-adv-x="1134" d="M107 601q0 134 36 248t101 197t155.5 130t199.5 47q124 0 218 -47t165 -145l-107 -82q-29 40 -58 68.5t-62 47.5t-72 27.5t-87 8.5q-78 0 -143 -36.5t-112 -102.5t-73.5 -157.5t-26.5 -200.5q0 -110 27.5 -202t75 -158.5t113 -103.5t140.5 -37q151 0 231 91t80 269v10 h-217v124h348v-117q0 -125 -33.5 -218.5t-93 -155.5t-141 -93.5t-177.5 -31.5q-116 0 -209.5 52t-153 135.5t-91.5 190t-33 242.5z" />
<glyph unicode="H" horiz-adv-x="1183" d="M158 0v1205h134v-515h599v515h135v-1205h-135v568h-599v-568h-134z" />
<glyph unicode="I" horiz-adv-x="467" d="M167 0v1205h134v-1205h-134z" />
<glyph unicode="J" horiz-adv-x="994" d="M51 272l128 43q18 -50 40.5 -89t53.5 -66t71.5 -42t93.5 -15q73 0 124.5 21t84.5 65.5t48.5 113t15.5 163.5v739h134v-744q0 -241 -102 -360.5t-310 -119.5q-76 0 -136 18.5t-106.5 56t-81 92t-58.5 124.5z" />
<glyph unicode="K" horiz-adv-x="1104" d="M158 0v1205h134v-680l525 680h146l-352 -453l420 -752h-154l-355 642l-230 -296v-346h-134z" />
<glyph unicode="L" horiz-adv-x="989" d="M158 0v1205h134v-1083h596v-122h-730z" />
<glyph unicode="M" horiz-adv-x="1355" d="M158 0v1205h150l370 -939l373 939h146v-1205h-129v919l-393 -950l-388 950v-919h-129z" />
<glyph unicode="N" horiz-adv-x="1183" d="M158 0v1205h131l607 -978v978h130v-1205h-126l-613 958v-958h-129z" />
<glyph unicode="O" horiz-adv-x="1212" d="M107 601q0 136 36 250t102 197t158 129t204 46t204 -46t157.5 -127.5t101.5 -195.5t36 -250t-36.5 -250.5t-102.5 -197.5t-158.5 -129t-204.5 -46q-113 0 -204.5 45.5t-156.5 128t-100.5 196.5t-35.5 250zM241 604q0 -113 28 -205.5t77.5 -158t116.5 -101.5t146 -36 q78 0 144.5 35t115 100t76 157t27.5 206q0 113 -28 205.5t-78 158t-117.5 101t-146.5 35.5q-78 0 -144.5 -35t-114 -100t-75 -157t-27.5 -205z" />
<glyph unicode="P" horiz-adv-x="1063" d="M158 0v1205h451q81 0 152 -22t122 -66.5t80.5 -112t29.5 -159.5q0 -90 -30 -159t-84 -116.5t-129 -72t-165 -24.5h-293v-473h-134zM292 596h294q140 0 206 61.5t66 181.5q0 75 -25 124.5t-63.5 74.5t-80 34.5t-85.5 9.5h-312v-486z" />
<glyph unicode="Q" horiz-adv-x="1212" d="M107 601q0 136 36 250t102 197t158 129t204 46t204 -46t157.5 -127.5t101.5 -195.5t36 -250q0 -84 -14.5 -160t-42 -142.5t-67 -121t-87.5 -94.5l77 -125l-110 -66l-76 124q-42 -18 -87 -28t-95 -10q-113 0 -204.5 45.5t-156.5 128t-100.5 196.5t-35.5 250zM241 604 q0 -113 28 -205.5t77.5 -158t116.5 -101.5t146 -36q61 0 113 20l-98 161l110 65l97 -158q65 63 103 165.5t38 244.5q0 113 -28 205.5t-78 158t-117.5 101t-146.5 35.5q-78 0 -144.5 -35t-114 -100t-75 -157t-27.5 -205z" />
<glyph unicode="R" horiz-adv-x="1118" d="M158 0v1205h477q79 0 147.5 -21t119 -63t79.5 -106t29 -151q0 -71 -20.5 -127.5t-57.5 -99.5t-89.5 -71.5t-116.5 -42.5l265 -523h-155l-258 512h-286v-512h-134zM292 633h320q58 0 105.5 11t84.5 38t55 72.5t18 103.5t-17.5 102.5t-53.5 72.5t-81 38.5t-93 10.5h-338 v-449z" />
<glyph unicode="S" horiz-adv-x="1018" d="M95 148l89 100q69 -67 148 -106t172 -39q60 0 108 14.5t81.5 41.5t52 65t18.5 86q0 42 -14 76t-47.5 64t-88.5 57.5t-138 56.5q-97 35 -163.5 70t-107 75.5t-58.5 90.5t-18 116q0 72 27.5 129t76.5 96.5t118.5 60.5t154.5 21q60 0 111 -9t95 -25t83 -40t77 -54l-86 -105 q-33 26 -65.5 47t-67 35.5t-72.5 21.5t-84 7q-62 0 -106.5 -14t-72.5 -39t-41.5 -57t-13.5 -67q0 -38 11 -68t42 -58.5t87 -56.5t146 -60q99 -36 166.5 -72.5t108 -79t57.5 -94t17 -118.5q0 -71 -27 -132.5t-78 -106.5t-125.5 -71t-168.5 -26q-61 0 -118.5 12.5t-109.5 34.5 t-96.5 53t-79.5 67z" />
<glyph unicode="T" horiz-adv-x="1011" d="M84 1082v123h843v-123h-354v-1082h-135v1082h-354z" />
<glyph unicode="U" horiz-adv-x="1166" d="M150 489v716h134v-713q0 -196 75.5 -292.5t232.5 -96.5q154 0 222.5 94t68.5 292v716h133v-716q0 -139 -32 -236.5t-88.5 -156.5t-133 -87t-177.5 -28q-102 0 -179.5 28t-134.5 87t-89 156.5t-32 236.5z" />
<glyph unicode="V" horiz-adv-x="1149" d="M92 1205h140l343 -1051l346 1051h137l-410 -1205h-147z" />
<glyph unicode="W" horiz-adv-x="1472" d="M98 1205h134l185 -1015l249 1015h145l247 -1015l186 1015h131l-241 -1205h-152l-247 1010l-248 -1010h-148z" />
<glyph unicode="X" horiz-adv-x="1086" d="M98 0l375 626l-344 579h152l264 -452l266 452h147l-344 -575l376 -630h-153l-294 501l-297 -501h-148z" />
<glyph unicode="Y" horiz-adv-x="1121" d="M81 1205h153l328 -591l329 591h150l-413 -727v-478h-134v476z" />
<glyph unicode="Z" horiz-adv-x="1080" d="M105 0v117l712 970h-678v118h826v-118l-712 -970h712v-117h-860z" />
<glyph unicode="[" horiz-adv-x="605" d="M164 -189v1394h333v-105h-208v-1184h208v-105h-333z" />
<glyph unicode="\" horiz-adv-x="730" d="M45 1359h127l514 -1514h-127z" />
<glyph unicode="]" horiz-adv-x="605" d="M108 -84h209v1184h-209v105h334v-1394h-334v105z" />
<glyph unicode="^" horiz-adv-x="960" d="M81 657l351 548h96l351 -548h-148l-253 406l-253 -406h-144z" />
<glyph unicode="_" horiz-adv-x="860" d="M0 -155h860v-108h-860v108z" />
<glyph unicode="`" horiz-adv-x="860" d="M200 1299h184l177 -275h-102z" />
<glyph unicode="a" horiz-adv-x="927" d="M89 270q0 76 29 130.5t77 90t110.5 52t129.5 16.5q69 0 127 -15t98 -37v107q0 102 -48 151t-147 49q-72 0 -131.5 -18.5t-115.5 -50.5l-47 105q59 32 136.5 52t165.5 20q73 0 132 -16t99.5 -51.5t63 -91t22.5 -133.5v-630h-130v110q-23 -26 -52 -49.5t-64 -41t-76 -28 t-89 -10.5q-53 0 -105 14t-93 48t-66.5 89.5t-25.5 137.5zM217 279q0 -51 13.5 -87.5t37 -60t58 -34.5t75.5 -11q43 0 81.5 10.5t71 29t59.5 43t47 53.5v182q-22 13 -45.5 22.5t-51 16t-60.5 10t-75 3.5q-100 0 -155.5 -45.5t-55.5 -131.5z" />
<glyph unicode="b" horiz-adv-x="961" d="M143 0v1182l129 72v-461q24 26 52 49.5t61.5 41t73 28t84.5 10.5q69 0 127.5 -26.5t102 -82t69 -142t25.5 -205.5q0 -120 -26.5 -210.5t-72.5 -152t-108.5 -92t-132.5 -30.5q-85 0 -146.5 33t-108.5 88v-102h-129zM272 228q19 -28 44.5 -53t56 -43t66.5 -28.5t77 -10.5 q113 0 168.5 94t55.5 278q0 168 -60.5 257t-168.5 89q-31 0 -64.5 -8t-67 -28.5t-58 -42t-49.5 -52.5v-452z" />
<glyph unicode="c" horiz-adv-x="851" d="M95 447q0 125 34 215t89 148t124.5 85t140.5 27q92 0 162.5 -30t123.5 -76l-78 -97q-24 22 -48.5 39t-50 29t-54.5 18t-63 6q-53 0 -99 -23.5t-79 -68.5t-52.5 -111t-19.5 -150q0 -83 17.5 -150.5t50 -115.5t80 -73.5t107.5 -25.5q32 0 60.5 7t53 19t47.5 29.5t47 40.5 l77 -82q-28 -30 -59 -53t-66.5 -39.5t-76.5 -25t-88 -8.5q-74 0 -142.5 28.5t-121.5 86.5t-84.5 145.5t-31.5 205.5z" />
<glyph unicode="d" horiz-adv-x="961" d="M95 437q0 120 26.5 210.5t72.5 152t108.5 92t132.5 30.5q43 0 79 -8.5t67 -24.5t57.5 -38.5t51.5 -49.5v381l129 72v-1254h-129v110q-25 -26 -53 -49.5t-61 -41t-72.5 -28t-85.5 -10.5q-68 0 -126.5 26.5t-102.5 82t-69 142t-25 205.5zM222 438q0 -88 16.5 -154 t48.5 -109t73.5 -62.5t90.5 -19.5q40 0 71 9.5t60.5 26t55.5 40t52 54.5v452q-19 28 -44.5 53t-56.5 43.5t-67 29t-77 10.5q-112 0 -167.5 -94.5t-55.5 -278.5z" />
<glyph unicode="e" horiz-adv-x="929" d="M95 456q0 108 28 194.5t77.5 147t118 92.5t149.5 32q88 0 156 -33t114 -92t69.5 -140.5t23.5 -178.5q0 -24 -1.5 -39.5t-3.5 -31.5h-603q5 -72 24 -130t51 -99t76.5 -63t100.5 -22q39 0 71.5 5.5t61.5 16.5t57 27t59 37l61 -93q-41 -26 -77.5 -46t-74 -33t-79.5 -19.5 t-93 -6.5q-41 0 -84.5 10.5t-84 34t-76.5 60.5t-63 89.5t-42.5 122.5t-15.5 158zM223 512h488q-5 66 -21 121t-46 94.5t-74.5 61.5t-103.5 22q-50 0 -92 -18.5t-73.5 -55.5t-51.5 -93t-26 -132z" />
<glyph unicode="f" horiz-adv-x="612" d="M81 795v108h124v124q0 61 15.5 103t43.5 68.5t67.5 38.5t86.5 12q39 0 64.5 -3.5t49.5 -12.5v-122q-22 10 -48 15.5t-57 5.5q-20 0 -37.5 -4t-29.5 -15t-19.5 -29t-7.5 -47v-134h178v-108h-178v-795h-128v795h-124z" />
<glyph unicode="g" horiz-adv-x="961" d="M95 437q0 120 26.5 210.5t72.5 152t108.5 92t132.5 30.5q43 0 79 -8.5t67 -24.5t57.5 -38.5t51.5 -49.5v102h129v-822q0 -97 -24.5 -174.5t-80.5 -129.5q-52 -50 -145.5 -77.5t-235.5 -31.5l-32 105q128 0 204 17t111 46q38 33 56 89.5t18 138.5v46q-25 -26 -53 -49.5 t-61 -41t-72.5 -28t-85.5 -10.5q-68 0 -126.5 26.5t-102.5 82t-69 142t-25 205.5zM222 438q0 -170 61 -257.5t168 -87.5q72 0 131.5 35.5t107.5 94.5v452q-19 28 -44.5 53t-56.5 43.5t-67 29t-77 10.5q-112 0 -167.5 -94.5t-55.5 -278.5z" />
<glyph unicode="h" horiz-adv-x="975" d="M143 0v1182l129 72v-461q19 29 44.5 52.5t57 40.5t68.5 26.5t80 9.5q71 0 129.5 -21.5t99.5 -66.5t63.5 -115.5t22.5 -168.5v-550h-128v528q0 147 -52 215t-161 68q-47 0 -88 -16.5t-71 -51t-47.5 -88t-17.5 -127.5v-528h-129z" />
<glyph unicode="i" horiz-adv-x="431" d="M123 1156q0 19 8 36.5t20.5 30t29.5 19.5t37 7q18 0 34.5 -7t29 -19.5t19.5 -30t7 -36.5t-7 -35t-19.5 -29t-29 -20t-34.5 -7q-20 0 -37 7t-29.5 20t-20.5 29t-8 35zM151 0v903h130v-903h-130z" />
<glyph unicode="j" horiz-adv-x="431" d="M-29 -236q61 18 97 38t54.5 48t23.5 69.5t5 103.5v880h130v-882q0 -77 -10 -134.5t-39 -99t-81 -70t-138 -49.5zM123 1156q0 19 8 36.5t20.5 30t29.5 19.5t37 7q18 0 34.5 -7t29 -19.5t19.5 -30t7 -36.5t-7 -35t-19.5 -29t-29 -20t-34.5 -7q-20 0 -37 7t-29.5 20 t-20.5 29t-8 35z" />
<glyph unicode="k" horiz-adv-x="868" d="M143 0v1182l129 72v-823l332 472h144l-237 -320l285 -583h-139l-229 475l-156 -215v-260h-129z" />
<glyph unicode="l" horiz-adv-x="431" d="M151 0v1182l130 72v-1254h-130z" />
<glyph unicode="m" horiz-adv-x="1459" d="M143 0v903h129v-110q35 58 91.5 93.5t137.5 35.5q83 0 145 -38t102 -117q21 33 45 61t57 49t75 33t97 12q69 0 124.5 -21t94 -66t59.5 -115.5t21 -169.5v-550h-129v528q0 78 -12 131.5t-36 87t-60.5 49t-85.5 15.5q-46 0 -83 -16t-63.5 -50.5t-41 -88t-14.5 -128.5v-528 h-128v528q0 78 -12.5 131.5t-37.5 87t-61.5 49t-83.5 15.5q-46 0 -83.5 -16t-63.5 -50.5t-40 -88t-14 -128.5v-528h-129z" />
<glyph unicode="n" horiz-adv-x="978" d="M143 0v903h129v-110q19 29 44.5 52.5t57 40.5t68.5 26.5t80 9.5q71 0 129.5 -21.5t99.5 -66.5t63.5 -115.5t22.5 -168.5v-550h-128v528q0 147 -52 215t-161 68q-47 0 -88 -16.5t-71 -51t-47.5 -88t-17.5 -127.5v-528h-129z" />
<glyph unicode="o" horiz-adv-x="973" d="M95 451q0 114 30.5 202.5t84.5 148t126 90t155 30.5q82 0 153 -29t123.5 -88t82 -146t29.5 -201q0 -115 -31 -204t-84 -149.5t-125.5 -92t-155.5 -31.5q-82 0 -153 30t-123 89.5t-82 147.5t-30 203zM225 454q0 -89 19 -156.5t53.5 -113t82.5 -68.5t107 -23t107.5 23 t82.5 68.5t53.5 113t19.5 156.5t-19.5 156t-53.5 111.5t-82.5 67t-107.5 22.5t-107 -22.5t-82.5 -67t-53.5 -111.5t-19 -156z" />
<glyph unicode="p" horiz-adv-x="961" d="M143 -332v1235h129v-110q55 61 124 95t147 34q69 0 127.5 -26.5t102 -82t69 -142t25.5 -205.5q0 -120 -26.5 -210.5t-72.5 -152t-108.5 -92t-132.5 -30.5q-85 0 -146.5 33t-108.5 88v-362zM272 228q19 -28 44.5 -53t56 -43t66.5 -28.5t77 -10.5q113 0 168.5 94t55.5 278 q0 166 -60 256t-169 90q-70 0 -130.5 -35.5t-108.5 -95.5v-452z" />
<glyph unicode="q" horiz-adv-x="961" d="M95 437q0 120 26.5 210.5t72.5 152t108.5 92t132.5 30.5q43 0 79 -8.5t67 -24.5t57.5 -38.5t51.5 -49.5v102h129v-1163l-129 -72v442q-57 -62 -123.5 -95.5t-148.5 -33.5q-68 0 -126.5 26.5t-102.5 82t-69 142t-25 205.5zM222 438q0 -170 61 -257.5t168 -87.5 q72 0 131.5 35.5t107.5 94.5v452q-19 28 -44.5 53t-56.5 43.5t-67 29t-77 10.5q-112 0 -167.5 -94.5t-55.5 -278.5z" />
<glyph unicode="r" horiz-adv-x="700" d="M143 0v903h129v-112q15 27 38.5 51t52.5 41.5t62.5 28t70.5 10.5q50 0 83.5 -6t57.5 -16l-33 -131q-27 16 -59 25t-77 9q-94 0 -145 -72t-51 -201v-530h-129z" />
<glyph unicode="s" horiz-adv-x="803" d="M74 97l76 94q54 -48 116 -73.5t130 -25.5q93 0 137.5 36.5t44.5 101.5q0 28 -11 50.5t-35.5 44t-65.5 43t-101 47.5q-68 29 -116.5 55.5t-79.5 57.5t-46 70t-15 93q0 52 21 94.5t59 73t89.5 47t113.5 16.5q93 0 164.5 -26.5t124.5 -69.5l-73 -95q-58 45 -107 63t-118 18 q-71 0 -110.5 -31.5t-39.5 -79.5q0 -29 9.5 -50.5t32.5 -40.5t62 -39t96 -46q64 -29 114 -55t84.5 -58t53 -73.5t18.5 -102.5q0 -66 -26.5 -114.5t-70 -79.5t-99 -46t-114.5 -15q-94 0 -173.5 32t-144.5 84z" />
<glyph unicode="t" horiz-adv-x="640" d="M67 795v108h112v279l129 72v-351h224v-108h-224v-588q0 -31 5 -51.5t15.5 -33.5t27.5 -18.5t43 -5.5q39 0 68 6.5t60 18.5l-10 -111q-37 -15 -75.5 -23t-90.5 -8q-42 0 -74 11t-53.5 35t-33 63t-11.5 96v609h-112z" />
<glyph unicode="u" horiz-adv-x="975" d="M138 353v550h128v-528q0 -147 52 -214.5t162 -67.5q103 0 163.5 72.5t60.5 209.5v528h128v-903h-128v110q-40 -58 -103 -93.5t-147 -35.5q-152 0 -234 94.5t-82 277.5z" />
<glyph unicode="v" horiz-adv-x="897" d="M69 903h138l244 -753l244 753h134l-323 -903h-114z" />
<glyph unicode="w" horiz-adv-x="1255" d="M81 903h132l168 -706l190 706h117l191 -706l167 706h129l-239 -903h-119l-191 711l-191 -711h-115z" />
<glyph unicode="x" horiz-adv-x="866" d="M87 0l279 466l-259 437h142l188 -329l189 329h134l-259 -433l279 -470h-143l-207 361l-208 -361h-135z" />
<glyph unicode="y" horiz-adv-x="913" d="M69 903h136l251 -748l253 748h136l-449 -1221h-130l125 328z" />
<glyph unicode="z" horiz-adv-x="846" d="M93 0v95l493 700h-453v108h599v-94l-493 -701h493v-108h-639z" />
<glyph unicode="{" horiz-adv-x="682" d="M98 449v121h41q29 0 48.5 5t31.5 19t17 38t5 61v154q0 181 84.5 271t266.5 95v-108q-60 -7 -102.5 -23.5t-69.5 -45.5t-39.5 -72t-12.5 -102v-120q0 -54 -5 -92t-17 -65t-31 -45.5t-49 -32.5q30 -13 49 -31t31 -45.5t17 -65t5 -91.5v-112q0 -60 12.5 -102.5t39.5 -71.5 t69.5 -46t102.5 -23v-108q-182 5 -266.5 94.5t-84.5 271.5v148q0 38 -5 62t-17 37.5t-31.5 19t-48.5 5.5h-41z" />
<glyph unicode="|" horiz-adv-x="523" d="M200 -318v1694h123v-1694h-123z" />
<glyph unicode="}" horiz-adv-x="682" d="M92 -81q59 6 101.5 23t69.5 46t39.5 71.5t12.5 102.5v120q0 54 5 92t17 65t31 45t49 32q-30 13 -49 31.5t-31 45.5t-17 65t-5 92v112q0 59 -12.5 102t-39.5 72t-69.5 45.5t-101.5 23.5v108q181 -5 265.5 -95t84.5 -271v-149q0 -37 5 -61t16.5 -38t31 -19t48.5 -5h42v-121 h-42q-29 0 -48.5 -5t-31 -19t-16.5 -38t-5 -62v-153q0 -182 -84.5 -271.5t-265.5 -94.5v108z" />
<glyph unicode="~" horiz-adv-x="949" d="M74 550q22 54 46 94.5t53 68t65.5 41t81.5 13.5q24 0 45 -4t39.5 -11.5t37.5 -18.5t39 -24q31 -20 72 -43t77 -24q23 0 40 6.5t32 22.5t28.5 42t31.5 65l113 -52q-22 -55 -45.5 -95t-52.5 -67.5t-65.5 -41t-81.5 -13.5q-26 0 -47.5 4t-40.5 12t-37 19t-37 24 q-53 35 -87.5 51t-60.5 16q-23 0 -41 -7.5t-33 -24t-29 -42t-30 -62.5z" />
<glyph unicode="&#xa1;" horiz-adv-x="452" d="M122 1118q0 21 8.5 40.5t23 33.5t34 22.5t39.5 8.5q21 0 40 -8.5t33.5 -22.5t23 -33.5t8.5 -40.5t-8.5 -40.5t-23 -35t-33.5 -24t-40 -8.5q-20 0 -39.5 8.5t-34 24t-23 35t-8.5 40.5zM160 0v566l31 315h72l29 -315v-566h-132z" />
<glyph unicode="&#xa2;" d="M123 611q0 99 30.5 179.5t83 140t124 96.5t153.5 50v162h133v-157q102 -8 177 -41.5t128 -83.5l-85 -90q-32 28 -63 48.5t-64 33.5t-70 19t-80 6q-72 0 -133 -24.5t-106 -70t-70.5 -109.5t-25.5 -144q0 -87 24.5 -155.5t69.5 -116.5t107.5 -73.5t139.5 -25.5 q86 0 151.5 28.5t112.5 79.5l82 -74q-58 -64 -129 -97t-166 -42v-169h-133v169q-91 10 -163 48t-123 98t-78 140t-27 175z" />
<glyph unicode="&#xa3;" d="M153 0v120q39 45 70 87t52.5 87t33.5 96t13 114h-169v117h149q-10 27 -24.5 53.5t-31.5 54.5q-15 24 -26 45.5t-18 44t-11 47.5t-4 56q0 73 30 129t82 94.5t122 58t152 19.5q112 0 201.5 -38.5t169.5 -110.5l-80 -99q-65 63 -137.5 95.5t-156.5 32.5q-63 0 -110 -14.5 t-78 -39t-46.5 -57t-15.5 -68.5q0 -42 14 -79.5t41 -82.5q16 -29 33 -64t29 -77h261v-117h-249q-2 -66 -14.5 -121t-32.5 -101.5t-45 -86t-53 -73.5h654v-122h-805z" />
<glyph unicode="&#xa5;" d="M59 1205h154l321 -606l323 606h151l-407 -729v-132h290v-119h-290v-225h-135v225h-290v119h290v131z" />
<glyph unicode="&#xa8;" horiz-adv-x="860" d="M169 1132q0 20 7.5 37t20.5 30.5t30 21t38 7.5q18 0 35.5 -7.5t30 -21t20 -30.5t7.5 -37q0 -19 -7.5 -36t-20 -30t-30 -21t-35.5 -8q-21 0 -38 8t-30 21t-20.5 30t-7.5 36zM502 1132q0 20 7.5 37t20.5 30.5t30.5 21t36.5 7.5q20 0 37 -7.5t29.5 -21t20 -30.5t7.5 -37 q0 -19 -7.5 -36t-20 -30t-29.5 -21t-37 -8q-19 0 -36.5 8t-30.5 21t-20.5 30t-7.5 36z" />
<glyph unicode="&#xa9;" horiz-adv-x="1438" d="M98 602q0 139 47.5 253t131 196t196.5 127t246 45q132 0 246 -45t197 -127t130.5 -196t47.5 -253q0 -138 -47.5 -253t-130.5 -196.5t-197 -126.5t-246 -45q-133 0 -246 45t-196.5 126.5t-131 196.5t-47.5 253zM182 602q0 -120 41.5 -219.5t113.5 -171.5t170 -111.5 t212 -39.5t212.5 39.5t170 111.5t113 171.5t41.5 219.5t-41.5 219.5t-113 171.5t-170 111.5t-212.5 39.5t-212 -39.5t-170 -111.5t-113.5 -171.5t-41.5 -219.5zM433 601q0 77 21 143t59.5 114t92 75t116.5 27q74 0 130 -28.5t101 -88.5l-72 -57q-33 44 -69 66t-91 22 q-43 0 -78.5 -20t-61.5 -56t-40 -85.5t-14 -108.5q0 -61 14.5 -110.5t40 -86.5t61.5 -57t78 -20q54 0 93 23t77 70l67 -58q-42 -58 -101.5 -89.5t-137.5 -31.5q-65 0 -117.5 27.5t-89.5 75.5t-58 113t-21 141z" />
<glyph unicode="&#xab;" horiz-adv-x="991" d="M51 451l350 452h146l-349 -450l349 -453h-146zM418 451l349 452h146l-349 -450l349 -453h-146z" />
<glyph unicode="&#xad;" horiz-adv-x="553" d="M87 566v125h379v-125h-379z" />
<glyph unicode="&#xae;" horiz-adv-x="1438" d="M98 602q0 139 47.5 253t131 196t196.5 127t246 45q132 0 246 -45t197 -127t130.5 -196t47.5 -253q0 -138 -47.5 -253t-130.5 -196.5t-197 -126.5t-246 -45q-133 0 -246 45t-196.5 126.5t-131 196.5t-47.5 253zM182 602q0 -120 41.5 -219.5t113.5 -171.5t170 -111.5 t212 -39.5t212.5 39.5t170 111.5t113 171.5t41.5 219.5t-41.5 219.5t-113 171.5t-170 111.5t-212.5 39.5t-212 -39.5t-170 -111.5t-113.5 -171.5t-41.5 -219.5zM496 270v687h278q47 0 87 -12t69.5 -36t47 -61.5t17.5 -88.5q0 -79 -43 -128.5t-116 -66.5l154 -294h-107 l-149 288h-148v-288h-90zM586 643h173q73 0 108.5 28t35.5 88q0 57 -34.5 86.5t-99.5 29.5h-183v-232z" />
<glyph unicode="&#xaf;" horiz-adv-x="860" d="M196 1063v121h468v-121h-468z" />
<glyph unicode="&#x2c9;" horiz-adv-x="860" d="M196 1063v121h468v-121h-468z" />
<glyph unicode="&#xb4;" horiz-adv-x="860" d="M299 1024l177 275h184l-259 -275h-102z" />
<glyph unicode="&#xb8;" horiz-adv-x="860" d="M234 -270l33 55q72 -46 158 -46q60 0 87.5 19t27.5 55q0 26 -14 41t-40 15q-51 0 -83 -31l-62 24l43 138h77l-29 -87q18 11 41 17t54 6q17 0 37.5 -6t37.5 -20t28.5 -37t11.5 -55q0 -42 -16.5 -70.5t-44.5 -46.5t-65 -25.5t-78 -7.5q-53 0 -105.5 16t-98.5 46z" />
<glyph unicode="&#xbb;" horiz-adv-x="991" d="M77 0l350 451l-350 452h146l350 -450l-350 -453h-146zM444 0l349 451l-349 452h146l349 -450l-349 -453h-146z" />
<glyph unicode="&#xbf;" horiz-adv-x="965" d="M115 277q0 62 14.5 107t42 80t67 64t89.5 60q43 26 69 50t40 55.5t18 75.5t4 112h133q0 -58 -2.5 -101.5t-10 -78t-21.5 -62t-36.5 -52t-55 -48.5t-77.5 -52q-34 -21 -60 -40.5t-43.5 -42.5t-27 -51.5t-9.5 -65.5q0 -80 66.5 -132t176.5 -52q48 0 90 9.5t80 26t72.5 41.5 t68.5 56l87 -95q-35 -33 -78 -62.5t-93 -51t-108.5 -34t-123.5 -12.5q-82 0 -150.5 18.5t-117.5 55.5t-76.5 92.5t-27.5 129.5zM423 1118q0 21 8.5 40.5t23.5 33.5t33.5 22.5t39.5 8.5t40 -8.5t34 -22.5t23 -33.5t8 -40.5t-8 -40.5t-23 -35t-34 -24t-40 -8.5t-39.5 8.5 t-33.5 24t-23.5 35t-8.5 40.5z" />
<glyph unicode="&#xc0;" horiz-adv-x="1166" d="M92 0l417 1205h148l418 -1205h-141l-103 307h-498l-105 -307h-136zM375 428h415l-207 616zM276 1557h184l177 -275h-102z" />
<glyph unicode="&#xc1;" horiz-adv-x="1166" d="M92 0l417 1205h148l418 -1205h-141l-103 307h-498l-105 -307h-136zM375 428h415l-207 616zM527 1282l177 275h184l-259 -275h-102z" />
<glyph unicode="&#xc2;" horiz-adv-x="1166" d="M92 0l417 1205h148l418 -1205h-141l-103 307h-498l-105 -307h-136zM375 428h415l-207 616zM299 1247l212 275h144l212 -275h-112l-174 177l-173 -177h-109z" />
<glyph unicode="&#xc3;" horiz-adv-x="1166" d="M92 0l417 1205h148l418 -1205h-141l-103 307h-498l-105 -307h-136zM375 428h415l-207 616zM276 1292q0 57 14.5 99t39 70t56.5 41t66 13t65 -10t62.5 -34t47 -35.5t23.5 -16.5q19 -13 33.5 -18.5t32.5 -5.5q27 0 43 27.5t24 87.5h107q0 -57 -14.5 -99t-39 -69.5t-56 -41 t-66.5 -13.5q-34 0 -65 10t-62.5 34t-47 36t-23.5 17q-19 12 -33.5 17.5t-32.5 5.5q-27 0 -43 -27t-24 -88h-107z" />
<glyph unicode="&#xc4;" horiz-adv-x="1166" d="M92 0l417 1205h148l418 -1205h-141l-103 307h-498l-105 -307h-136zM375 428h415l-207 616zM324 1390q0 20 7.5 37t20.5 30.5t30 21t38 7.5q18 0 35.5 -7.5t30 -21t20 -30.5t7.5 -37q0 -19 -7.5 -36t-20 -30t-30 -21t-35.5 -8q-21 0 -38 8t-30 21t-20.5 30t-7.5 36z M657 1390q0 20 7.5 37t20.5 30.5t30.5 21t36.5 7.5q20 0 37 -7.5t29.5 -21t20 -30.5t7.5 -37q0 -19 -7.5 -36t-20 -30t-29.5 -21t-37 -8q-19 0 -36.5 8t-30.5 21t-20.5 30t-7.5 36z" />
<glyph unicode="&#xc5;" horiz-adv-x="1166" d="M92 0l395 1132q-49 26 -77.5 73t-28.5 108q0 42 15 78t41.5 63t63.5 42.5t80 15.5q44 0 81 -15.5t64 -42.5t42 -63t15 -78q0 -59 -28.5 -106t-76.5 -73l397 -1134h-141l-103 307h-498l-105 -307h-136zM375 428h415l-207 616zM461 1313q0 -27 8.5 -50t24 -39.5t38 -25.5 t49.5 -9q28 0 50.5 9t38 25.5t24 39.5t8.5 50t-8.5 50t-24 39.5t-38 25.5t-50.5 9q-27 0 -49.5 -9t-38 -25.5t-24 -39.5t-8.5 -50z" />
<glyph unicode="&#xc6;" horiz-adv-x="1716" d="M41 0l809 1205h743v-123h-600v-378h483v-123h-483v-459h626v-122h-754v307h-469l-202 -307h-153zM475 428h390v593z" />
<glyph unicode="&#xc7;" horiz-adv-x="1080" d="M107 601q0 134 36 248t101 197t155.5 130t199.5 47q124 0 218 -47t165 -145l-107 -82q-29 40 -58 68.5t-62 47.5t-72 27.5t-87 8.5q-78 0 -143 -36.5t-112 -102.5t-73.5 -157.5t-26.5 -200.5q0 -110 27 -202t75 -158.5t113 -103.5t141 -37q98 0 169 41.5t129 116.5 l93 -80q-33 -45 -74 -81.5t-90.5 -63t-107 -41t-122.5 -14.5q-74 0 -138.5 21.5t-119 60.5t-97 95t-72 125t-45 149t-15.5 169zM389 -270l33 55q72 -46 158 -46q60 0 87.5 19t27.5 55q0 26 -14 41t-40 15q-51 0 -83 -31l-62 24l43 138h77l-29 -87q18 11 41 17t54 6 q17 0 37.5 -6t37.5 -20t28.5 -37t11.5 -55q0 -42 -16.5 -70.5t-44.5 -46.5t-65 -25.5t-78 -7.5q-53 0 -105.5 16t-98.5 46z" />
<glyph unicode="&#xc8;" horiz-adv-x="1009" d="M158 0v1205h728v-123h-594v-378h481v-123h-481v-459h619v-122h-753zM253 1557h184l177 -275h-102z" />
<glyph unicode="&#xc9;" horiz-adv-x="1009" d="M158 0v1205h728v-123h-594v-378h481v-123h-481v-459h619v-122h-753zM438 1282l177 275h184l-259 -275h-102z" />
<glyph unicode="&#xca;" horiz-adv-x="1009" d="M158 0v1205h728v-123h-594v-378h481v-123h-481v-459h619v-122h-753zM238 1282l212 275h144l212 -275h-112l-174 177l-173 -177h-109z" />
<glyph unicode="&#xcb;" horiz-adv-x="1009" d="M158 0v1205h728v-123h-594v-378h481v-123h-481v-459h619v-122h-753zM262 1390q0 20 7.5 37t20.5 30.5t30 21t38 7.5q18 0 35.5 -7.5t30 -21t20 -30.5t7.5 -37q0 -19 -7.5 -36t-20 -30t-30 -21t-35.5 -8q-21 0 -38 8t-30 21t-20.5 30t-7.5 36zM595 1390q0 20 7.5 37 t20.5 30.5t30.5 21t36.5 7.5q20 0 37 -7.5t29.5 -21t20 -30.5t7.5 -37q0 -19 -7.5 -36t-20 -30t-29.5 -21t-37 -8q-19 0 -36.5 8t-30.5 21t-20.5 30t-7.5 36z" />
<glyph unicode="&#xcc;" horiz-adv-x="467" d="M167 0v1205h134v-1205h-134zM-63 1557h184l177 -275h-102z" />
<glyph unicode="&#xcd;" horiz-adv-x="467" d="M167 0v1205h134v-1205h-134zM175 1282l177 275h184l-259 -275h-102z" />
<glyph unicode="&#xce;" horiz-adv-x="467" d="M167 0v1205h134v-1205h-134zM-54 1273l212 275h144l212 -275h-112l-174 177l-173 -177h-109z" />
<glyph unicode="&#xcf;" horiz-adv-x="467" d="M167 0v1205h134v-1205h-134zM-28 1397q0 20 7.5 37t20.5 30.5t30 21t38 7.5q18 0 35.5 -7.5t30 -21t20 -30.5t7.5 -37q0 -19 -7.5 -36t-20 -30t-30 -21t-35.5 -8q-21 0 -38 8t-30 21t-20.5 30t-7.5 36zM305 1397q0 20 7.5 37t20.5 30.5t30.5 21t36.5 7.5q20 0 37 -7.5 t29.5 -21t20 -30.5t7.5 -37q0 -19 -7.5 -36t-20 -30t-29.5 -21t-37 -8q-19 0 -36.5 8t-30.5 21t-20.5 30t-7.5 36z" />
<glyph unicode="&#xd1;" horiz-adv-x="1183" d="M158 0v1205h131l607 -978v978h130v-1205h-126l-613 958v-958h-129zM294 1299q0 57 14.5 99t39 70t56.5 41t66 13t65 -10t62.5 -34t47 -35.5t23.5 -16.5q19 -13 33.5 -18.5t32.5 -5.5q27 0 43 27.5t24 87.5h107q0 -57 -14.5 -99t-39 -69.5t-56 -41t-66.5 -13.5 q-34 0 -65 10t-62.5 34t-47 36t-23.5 17q-19 12 -33.5 17.5t-32.5 5.5q-27 0 -43 -27t-24 -88h-107z" />
<glyph unicode="&#xd2;" horiz-adv-x="1212" d="M107 601q0 136 36 250t102 197t158 129t204 46t204 -46t157.5 -127.5t101.5 -195.5t36 -250t-36.5 -250.5t-102.5 -197.5t-158.5 -129t-204.5 -46q-113 0 -204.5 45.5t-156.5 128t-100.5 196.5t-35.5 250zM241 604q0 -113 28 -205.5t77.5 -158t116.5 -101.5t146 -36 q78 0 144.5 35t115 100t76 157t27.5 206q0 113 -28 205.5t-78 158t-117.5 101t-146.5 35.5q-78 0 -144.5 -35t-114 -100t-75 -157t-27.5 -205zM313 1557h184l177 -275h-102z" />
<glyph unicode="&#xd3;" horiz-adv-x="1212" d="M107 601q0 136 36 250t102 197t158 129t204 46t204 -46t157.5 -127.5t101.5 -195.5t36 -250t-36.5 -250.5t-102.5 -197.5t-158.5 -129t-204.5 -46q-113 0 -204.5 45.5t-156.5 128t-100.5 196.5t-35.5 250zM241 604q0 -113 28 -205.5t77.5 -158t116.5 -101.5t146 -36 q78 0 144.5 35t115 100t76 157t27.5 206q0 113 -28 205.5t-78 158t-117.5 101t-146.5 35.5q-78 0 -144.5 -35t-114 -100t-75 -157t-27.5 -205zM533 1282l177 275h184l-259 -275h-102z" />
<glyph unicode="&#xd4;" horiz-adv-x="1212" d="M107 601q0 136 36 250t102 197t158 129t204 46t204 -46t157.5 -127.5t101.5 -195.5t36 -250t-36.5 -250.5t-102.5 -197.5t-158.5 -129t-204.5 -46q-113 0 -204.5 45.5t-156.5 128t-100.5 196.5t-35.5 250zM241 604q0 -113 28 -205.5t77.5 -158t116.5 -101.5t146 -36 q78 0 144.5 35t115 100t76 157t27.5 206q0 113 -28 205.5t-78 158t-117.5 101t-146.5 35.5q-78 0 -144.5 -35t-114 -100t-75 -157t-27.5 -205zM320 1273l212 275h144l212 -275h-112l-174 177l-173 -177h-109z" />
<glyph unicode="&#xd5;" horiz-adv-x="1212" d="M107 601q0 136 36 250t102 197t158 129t204 46t204 -46t157.5 -127.5t101.5 -195.5t36 -250t-36.5 -250.5t-102.5 -197.5t-158.5 -129t-204.5 -46q-113 0 -204.5 45.5t-156.5 128t-100.5 196.5t-35.5 250zM241 604q0 -113 28 -205.5t77.5 -158t116.5 -101.5t146 -36 q78 0 144.5 35t115 100t76 157t27.5 206q0 113 -28 205.5t-78 158t-117.5 101t-146.5 35.5q-78 0 -144.5 -35t-114 -100t-75 -157t-27.5 -205zM297 1292q0 57 14.5 99t39 70t56.5 41t66 13t65 -10t62.5 -34t47 -35.5t23.5 -16.5q19 -13 33.5 -18.5t32.5 -5.5q27 0 43 27.5 t24 87.5h107q0 -57 -14.5 -99t-39 -69.5t-56 -41t-66.5 -13.5q-34 0 -65 10t-62.5 34t-47 36t-23.5 17q-19 12 -33.5 17.5t-32.5 5.5q-27 0 -43 -27t-24 -88h-107z" />
<glyph unicode="&#xd6;" horiz-adv-x="1212" d="M107 601q0 136 36 250t102 197t158 129t204 46t204 -46t157.5 -127.5t101.5 -195.5t36 -250t-36.5 -250.5t-102.5 -197.5t-158.5 -129t-204.5 -46q-113 0 -204.5 45.5t-156.5 128t-100.5 196.5t-35.5 250zM241 604q0 -113 28 -205.5t77.5 -158t116.5 -101.5t146 -36 q78 0 144.5 35t115 100t76 157t27.5 206q0 113 -28 205.5t-78 158t-117.5 101t-146.5 35.5q-78 0 -144.5 -35t-114 -100t-75 -157t-27.5 -205zM345 1390q0 20 7.5 37t20.5 30.5t30 21t38 7.5q18 0 35.5 -7.5t30 -21t20 -30.5t7.5 -37q0 -19 -7.5 -36t-20 -30t-30 -21 t-35.5 -8q-21 0 -38 8t-30 21t-20.5 30t-7.5 36zM678 1390q0 20 7.5 37t20.5 30.5t30.5 21t36.5 7.5q20 0 37 -7.5t29.5 -21t20 -30.5t7.5 -37q0 -19 -7.5 -36t-20 -30t-29.5 -21t-37 -8q-19 0 -36.5 8t-30.5 21t-20.5 30t-7.5 36z" />
<glyph unicode="&#xd8;" horiz-adv-x="1212" d="M107 601q0 136 36 250t102 197t158 129t204 46q103 0 191 -39l49 106h118l-74 -164q51 -39 90.5 -93t67.5 -120.5t42.5 -144.5t14.5 -164q0 -136 -36.5 -250.5t-102.5 -197.5t-158.5 -129t-204.5 -46q-113 0 -213 50l-54 -117h-119l83 179q-94 83 -144 213t-50 295z M236 604q0 -124 32.5 -221.5t89.5 -164.5l389 854q-67 34 -145 34q-79 0 -145.5 -35.5t-116 -101t-77 -158.5t-27.5 -207zM442 144q75 -46 167 -46q79 0 146 35.5t116.5 101t77.5 158.5t28 208q0 133 -38 236.5t-103 168.5z" />
<glyph unicode="&#xd9;" horiz-adv-x="1166" d="M150 489v716h134v-713q0 -196 75.5 -292.5t232.5 -96.5q154 0 222.5 94t68.5 292v716h133v-716q0 -139 -32 -236.5t-88.5 -156.5t-133 -87t-177.5 -28q-102 0 -179.5 28t-134.5 87t-89 156.5t-32 236.5zM292 1531h184l177 -275h-102z" />
<glyph unicode="&#xda;" horiz-adv-x="1166" d="M150 489v716h134v-713q0 -196 75.5 -292.5t232.5 -96.5q154 0 222.5 94t68.5 292v716h133v-716q0 -139 -32 -236.5t-88.5 -156.5t-133 -87t-177.5 -28q-102 0 -179.5 28t-134.5 87t-89 156.5t-32 236.5zM511 1256l177 275h184l-259 -275h-102z" />
<glyph unicode="&#xdb;" horiz-adv-x="1166" d="M150 489v716h134v-713q0 -196 75.5 -292.5t232.5 -96.5q154 0 222.5 94t68.5 292v716h133v-716q0 -139 -32 -236.5t-88.5 -156.5t-133 -87t-177.5 -28q-102 0 -179.5 28t-134.5 87t-89 156.5t-32 236.5zM299 1282l212 275h144l212 -275h-112l-174 177l-173 -177h-109z " />
<glyph unicode="&#xdc;" horiz-adv-x="1166" d="M150 489v716h134v-713q0 -196 75.5 -292.5t232.5 -96.5q154 0 222.5 94t68.5 292v716h133v-716q0 -139 -32 -236.5t-88.5 -156.5t-133 -87t-177.5 -28q-102 0 -179.5 28t-134.5 87t-89 156.5t-32 236.5zM322 1390q0 20 7.5 37t20.5 30.5t30 21t38 7.5q18 0 35.5 -7.5 t30 -21t20 -30.5t7.5 -37q0 -19 -7.5 -36t-20 -30t-30 -21t-35.5 -8q-21 0 -38 8t-30 21t-20.5 30t-7.5 36zM655 1390q0 20 7.5 37t20.5 30.5t30.5 21t36.5 7.5q20 0 37 -7.5t29.5 -21t20 -30.5t7.5 -37q0 -19 -7.5 -36t-20 -30t-29.5 -21t-37 -8q-19 0 -36.5 8t-30.5 21 t-20.5 30t-7.5 36z" />
<glyph unicode="&#xdd;" horiz-adv-x="1121" d="M81 1205h153l328 -591l329 591h150l-413 -727v-478h-134v476zM430 1282l177 275h184l-259 -275h-102z" />
<glyph unicode="&#xdf;" horiz-adv-x="983" d="M143 -332v1220q0 87 23.5 154.5t66.5 113.5t103.5 69.5t134.5 23.5t134.5 -23.5t102.5 -64t65 -96.5t23 -121q0 -88 -38 -150t-118 -99q45 -11 89.5 -33t80 -58.5t58 -89.5t22.5 -125q0 -108 -35.5 -181.5t-96.5 -120t-142 -67t-172 -20.5h-26v113h31q74 0 132 15.5 t97.5 47.5t60.5 81.5t21 119.5q0 67 -25 114.5t-68 78t-98.5 44.5t-115.5 14h-35v112h40q99 0 154.5 50.5t55.5 151.5q0 90 -55.5 142.5t-144.5 52.5q-87 0 -141.5 -60.5t-54.5 -166.5v-1170z" />
<glyph unicode="&#xe0;" horiz-adv-x="927" d="M89 270q0 76 29 130.5t77 90t110.5 52t129.5 16.5q69 0 127 -15t98 -37v107q0 102 -48 151t-147 49q-72 0 -131.5 -18.5t-115.5 -50.5l-47 105q59 32 136.5 52t165.5 20q73 0 132 -16t99.5 -51.5t63 -91t22.5 -133.5v-630h-130v110q-23 -26 -52 -49.5t-64 -41t-76 -28 t-89 -10.5q-53 0 -105 14t-93 48t-66.5 89.5t-25.5 137.5zM217 279q0 -51 13.5 -87.5t37 -60t58 -34.5t75.5 -11q43 0 81.5 10.5t71 29t59.5 43t47 53.5v182q-22 13 -45.5 22.5t-51 16t-60.5 10t-75 3.5q-100 0 -155.5 -45.5t-55.5 -131.5zM190 1299h184l177 -275h-102z" />
<glyph unicode="&#xe1;" horiz-adv-x="927" d="M89 270q0 76 29 130.5t77 90t110.5 52t129.5 16.5q69 0 127 -15t98 -37v107q0 102 -48 151t-147 49q-72 0 -131.5 -18.5t-115.5 -50.5l-47 105q59 32 136.5 52t165.5 20q73 0 132 -16t99.5 -51.5t63 -91t22.5 -133.5v-630h-130v110q-23 -26 -52 -49.5t-64 -41t-76 -28 t-89 -10.5q-53 0 -105 14t-93 48t-66.5 89.5t-25.5 137.5zM217 279q0 -51 13.5 -87.5t37 -60t58 -34.5t75.5 -11q43 0 81.5 10.5t71 29t59.5 43t47 53.5v182q-22 13 -45.5 22.5t-51 16t-60.5 10t-75 3.5q-100 0 -155.5 -45.5t-55.5 -131.5zM391 1024l177 275h184l-259 -275 h-102z" />
<glyph unicode="&#xe2;" horiz-adv-x="927" d="M89 270q0 76 29 130.5t77 90t110.5 52t129.5 16.5q69 0 127 -15t98 -37v107q0 102 -48 151t-147 49q-72 0 -131.5 -18.5t-115.5 -50.5l-47 105q59 32 136.5 52t165.5 20q73 0 132 -16t99.5 -51.5t63 -91t22.5 -133.5v-630h-130v110q-23 -26 -52 -49.5t-64 -41t-76 -28 t-89 -10.5q-53 0 -105 14t-93 48t-66.5 89.5t-25.5 137.5zM217 279q0 -51 13.5 -87.5t37 -60t58 -34.5t75.5 -11q43 0 81.5 10.5t71 29t59.5 43t47 53.5v182q-22 13 -45.5 22.5t-51 16t-60.5 10t-75 3.5q-100 0 -155.5 -45.5t-55.5 -131.5zM182 1017l212 275h144l212 -275 h-112l-174 177l-173 -177h-109z" />
<glyph unicode="&#xe3;" horiz-adv-x="927" d="M89 270q0 76 29 130.5t77 90t110.5 52t129.5 16.5q69 0 127 -15t98 -37v107q0 102 -48 151t-147 49q-72 0 -131.5 -18.5t-115.5 -50.5l-47 105q59 32 136.5 52t165.5 20q73 0 132 -16t99.5 -51.5t63 -91t22.5 -133.5v-630h-130v110q-23 -26 -52 -49.5t-64 -41t-76 -28 t-89 -10.5q-53 0 -105 14t-93 48t-66.5 89.5t-25.5 137.5zM217 279q0 -51 13.5 -87.5t37 -60t58 -34.5t75.5 -11q43 0 81.5 10.5t71 29t59.5 43t47 53.5v182q-22 13 -45.5 22.5t-51 16t-60.5 10t-75 3.5q-100 0 -155.5 -45.5t-55.5 -131.5zM157 1034q0 57 14.5 99t39 70 t56.5 41t66 13t65 -10t62.5 -34t47 -35.5t23.5 -16.5q19 -13 33.5 -18.5t32.5 -5.5q27 0 43 27.5t24 87.5h107q0 -57 -14.5 -99t-39 -69.5t-56 -41t-66.5 -13.5q-34 0 -65 10t-62.5 34t-47 36t-23.5 17q-19 12 -33.5 17.5t-32.5 5.5q-27 0 -43 -27t-24 -88h-107z" />
<glyph unicode="&#xe4;" horiz-adv-x="927" d="M89 270q0 76 29 130.5t77 90t110.5 52t129.5 16.5q69 0 127 -15t98 -37v107q0 102 -48 151t-147 49q-72 0 -131.5 -18.5t-115.5 -50.5l-47 105q59 32 136.5 52t165.5 20q73 0 132 -16t99.5 -51.5t63 -91t22.5 -133.5v-630h-130v110q-23 -26 -52 -49.5t-64 -41t-76 -28 t-89 -10.5q-53 0 -105 14t-93 48t-66.5 89.5t-25.5 137.5zM217 279q0 -51 13.5 -87.5t37 -60t58 -34.5t75.5 -11q43 0 81.5 10.5t71 29t59.5 43t47 53.5v182q-22 13 -45.5 22.5t-51 16t-60.5 10t-75 3.5q-100 0 -155.5 -45.5t-55.5 -131.5zM203 1125q0 20 7.5 37t20.5 30.5 t30 21t38 7.5q18 0 35.5 -7.5t30 -21t20 -30.5t7.5 -37q0 -19 -7.5 -36t-20 -30t-30 -21t-35.5 -8q-21 0 -38 8t-30 21t-20.5 30t-7.5 36zM536 1125q0 20 7.5 37t20.5 30.5t30.5 21t36.5 7.5q20 0 37 -7.5t29.5 -21t20 -30.5t7.5 -37q0 -19 -7.5 -36t-20 -30t-29.5 -21 t-37 -8q-19 0 -36.5 8t-30.5 21t-20.5 30t-7.5 36z" />
<glyph unicode="&#xe5;" horiz-adv-x="927" d="M89 270q0 76 29 130.5t77 90t110.5 52t129.5 16.5q69 0 127 -15t98 -37v107q0 102 -48 151t-147 49q-72 0 -131.5 -18.5t-115.5 -50.5l-47 105q59 32 136.5 52t165.5 20q73 0 132 -16t99.5 -51.5t63 -91t22.5 -133.5v-630h-130v110q-23 -26 -52 -49.5t-64 -41t-76 -28 t-89 -10.5q-53 0 -105 14t-93 48t-66.5 89.5t-25.5 137.5zM217 279q0 -51 13.5 -87.5t37 -60t58 -34.5t75.5 -11q43 0 81.5 10.5t71 29t59.5 43t47 53.5v182q-22 13 -45.5 22.5t-51 16t-60.5 10t-75 3.5q-100 0 -155.5 -45.5t-55.5 -131.5zM264 1231q0 42 15.5 79t42 63.5 t63.5 42t81 15.5t81 -15.5t63.5 -42t42 -63.5t15.5 -79t-15.5 -78.5t-42 -63.5t-63.5 -42.5t-81 -15.5t-81 15.5t-63.5 42.5t-42 63.5t-15.5 78.5zM346 1231q0 -26 8.5 -49t24 -39.5t37.5 -25.5t50 -9t50 9t37.5 25.5t24 39.5t8.5 49t-8.5 49t-24 39.5t-37.5 25.5t-50 9 t-50 -9t-37.5 -25.5t-24 -39.5t-8.5 -49z" />
<glyph unicode="&#xe6;" horiz-adv-x="1441" d="M89 270q0 76 27 130.5t73 90t106.5 52t127.5 16.5q68 0 120.5 -15t93.5 -37v107q0 102 -42.5 151t-141.5 49q-74 0 -131.5 -20.5t-103.5 -48.5l-47 105q59 32 130.5 52t159.5 20q120 0 184 -43.5t79 -119.5q40 78 107.5 120.5t161.5 42.5q88 0 154 -33t109 -92t65 -140.5 t22 -178.5q0 -24 -1 -39.5t-4 -31.5h-578q5 -72 22.5 -130t47 -99t72 -63t98.5 -22q39 0 69.5 5.5t57 16.5t53 27t57.5 37l60 -93q-40 -26 -75 -46t-70.5 -33t-75 -19.5t-90.5 -6.5q-79 0 -152.5 37t-126.5 120q-75 -88 -153.5 -122.5t-187.5 -34.5q-53 0 -103 14t-88.5 48 t-62 89.5t-23.5 137.5zM217 279q0 -101 45 -147t127 -46q31 0 65 7.5t69 25.5t69.5 47.5t67.5 72.5q-12 37 -18 78t-9 89q-21 11 -42 20.5t-46.5 16t-56.5 10t-71 3.5q-100 0 -150 -45.5t-50 -131.5zM760 512h463q-4 66 -18.5 121t-42 94.5t-70 61.5t-101.5 22 q-56 0 -97.5 -22t-69.5 -61.5t-43.5 -94.5t-20.5 -121z" />
<glyph unicode="&#xe7;" horiz-adv-x="851" d="M95 447q0 125 34 215t89 148t124.5 85t140.5 27q92 0 162.5 -30t123.5 -76l-78 -97q-24 22 -48.5 39t-50 29t-54.5 18t-63 6q-53 0 -99 -23.5t-79 -68.5t-52.5 -111t-19.5 -150q0 -83 17.5 -150.5t50 -115.5t80 -73.5t107.5 -25.5q32 0 60.5 7t53 19t47.5 29.5t47 40.5 l77 -82q-28 -30 -59 -53t-66.5 -39.5t-76.5 -25t-88 -8.5q-74 0 -142.5 28.5t-121.5 86.5t-84.5 145.5t-31.5 205.5zM256 -270l33 55q72 -46 158 -46q60 0 87.5 19t27.5 55q0 26 -14 41t-40 15q-51 0 -83 -31l-62 24l43 138h77l-29 -87q18 11 41 17t54 6q17 0 37.5 -6 t37.5 -20t28.5 -37t11.5 -55q0 -42 -16.5 -70.5t-44.5 -46.5t-65 -25.5t-78 -7.5q-53 0 -105.5 16t-98.5 46z" />
<glyph unicode="&#xe8;" horiz-adv-x="929" d="M95 456q0 108 28 194.5t77.5 147t118 92.5t149.5 32q88 0 156 -33t114 -92t69.5 -140.5t23.5 -178.5q0 -24 -1.5 -39.5t-3.5 -31.5h-603q5 -72 24 -130t51 -99t76.5 -63t100.5 -22q39 0 71.5 5.5t61.5 16.5t57 27t59 37l61 -93q-41 -26 -77.5 -46t-74 -33t-79.5 -19.5 t-93 -6.5q-41 0 -84.5 10.5t-84 34t-76.5 60.5t-63 89.5t-42.5 122.5t-15.5 158zM223 512h488q-5 66 -21 121t-46 94.5t-74.5 61.5t-103.5 22q-50 0 -92 -18.5t-73.5 -55.5t-51.5 -93t-26 -132zM190 1299h184l177 -275h-102z" />
<glyph unicode="&#xe9;" horiz-adv-x="929" d="M95 456q0 108 28 194.5t77.5 147t118 92.5t149.5 32q88 0 156 -33t114 -92t69.5 -140.5t23.5 -178.5q0 -24 -1.5 -39.5t-3.5 -31.5h-603q5 -72 24 -130t51 -99t76.5 -63t100.5 -22q39 0 71.5 5.5t61.5 16.5t57 27t59 37l61 -93q-41 -26 -77.5 -46t-74 -33t-79.5 -19.5 t-93 -6.5q-41 0 -84.5 10.5t-84 34t-76.5 60.5t-63 89.5t-42.5 122.5t-15.5 158zM223 512h488q-5 66 -21 121t-46 94.5t-74.5 61.5t-103.5 22q-50 0 -92 -18.5t-73.5 -55.5t-51.5 -93t-26 -132zM391 1024l177 275h184l-259 -275h-102z" />
<glyph unicode="&#xea;" horiz-adv-x="929" d="M95 456q0 108 28 194.5t77.5 147t118 92.5t149.5 32q88 0 156 -33t114 -92t69.5 -140.5t23.5 -178.5q0 -24 -1.5 -39.5t-3.5 -31.5h-603q5 -72 24 -130t51 -99t76.5 -63t100.5 -22q39 0 71.5 5.5t61.5 16.5t57 27t59 37l61 -93q-41 -26 -77.5 -46t-74 -33t-79.5 -19.5 t-93 -6.5q-41 0 -84.5 10.5t-84 34t-76.5 60.5t-63 89.5t-42.5 122.5t-15.5 158zM223 512h488q-5 66 -21 121t-46 94.5t-74.5 61.5t-103.5 22q-50 0 -92 -18.5t-73.5 -55.5t-51.5 -93t-26 -132zM182 1009l212 275h144l212 -275h-112l-174 177l-173 -177h-109z" />
<glyph unicode="&#xeb;" horiz-adv-x="929" d="M95 456q0 108 28 194.5t77.5 147t118 92.5t149.5 32q88 0 156 -33t114 -92t69.5 -140.5t23.5 -178.5q0 -24 -1.5 -39.5t-3.5 -31.5h-603q5 -72 24 -130t51 -99t76.5 -63t100.5 -22q39 0 71.5 5.5t61.5 16.5t57 27t59 37l61 -93q-41 -26 -77.5 -46t-74 -33t-79.5 -19.5 t-93 -6.5q-41 0 -84.5 10.5t-84 34t-76.5 60.5t-63 89.5t-42.5 122.5t-15.5 158zM223 512h488q-5 66 -21 121t-46 94.5t-74.5 61.5t-103.5 22q-50 0 -92 -18.5t-73.5 -55.5t-51.5 -93t-26 -132zM205 1125q0 20 7.5 37t20.5 30.5t30 21t38 7.5q18 0 35.5 -7.5t30 -21 t20 -30.5t7.5 -37q0 -19 -7.5 -36t-20 -30t-30 -21t-35.5 -8q-21 0 -38 8t-30 21t-20.5 30t-7.5 36zM538 1125q0 20 7.5 37t20.5 30.5t30.5 21t36.5 7.5q20 0 37 -7.5t29.5 -21t20 -30.5t7.5 -37q0 -19 -7.5 -36t-20 -30t-29.5 -21t-37 -8q-19 0 -36.5 8t-30.5 21t-20.5 30 t-7.5 36z" />
<glyph unicode="&#xec;" horiz-adv-x="431" d="M151 0v903h130v-903h-130zM-87 1299h184l177 -275h-102z" />
<glyph unicode="&#xed;" horiz-adv-x="431" d="M151 0v903h130v-903h-130zM161 1024l177 275h184l-259 -275h-102z" />
<glyph unicode="&#xee;" horiz-adv-x="431" d="M151 0v903h130v-903h-130zM-67 1000l212 275h144l212 -275h-112l-174 177l-173 -177h-109z" />
<glyph unicode="&#xef;" horiz-adv-x="431" d="M151 0v903h130v-903h-130zM-44 1117q0 20 7.5 37t20.5 30.5t30 21t38 7.5q18 0 35.5 -7.5t30 -21t20 -30.5t7.5 -37q0 -19 -7.5 -36t-20 -30t-30 -21t-35.5 -8q-21 0 -38 8t-30 21t-20.5 30t-7.5 36zM289 1117q0 20 7.5 37t20.5 30.5t30.5 21t36.5 7.5q20 0 37 -7.5 t29.5 -21t20 -30.5t7.5 -37q0 -19 -7.5 -36t-20 -30t-29.5 -21t-37 -8q-19 0 -36.5 8t-30.5 21t-20.5 30t-7.5 36z" />
<glyph unicode="&#xf1;" horiz-adv-x="978" d="M143 0v903h129v-110q19 29 44.5 52.5t57 40.5t68.5 26.5t80 9.5q71 0 129.5 -21.5t99.5 -66.5t63.5 -115.5t22.5 -168.5v-550h-128v528q0 147 -52 215t-161 68q-47 0 -88 -16.5t-71 -51t-47.5 -88t-17.5 -127.5v-528h-129zM174 1034q0 57 14.5 99t39 70t56.5 41t66 13 t65 -10t62.5 -34t47 -35.5t23.5 -16.5q19 -13 33.5 -18.5t32.5 -5.5q27 0 43 27.5t24 87.5h107q0 -57 -14.5 -99t-39 -69.5t-56 -41t-66.5 -13.5q-34 0 -65 10t-62.5 34t-47 36t-23.5 17q-19 12 -33.5 17.5t-32.5 5.5q-27 0 -43 -27t-24 -88h-107z" />
<glyph unicode="&#xf2;" horiz-adv-x="973" d="M95 451q0 114 30.5 202.5t84.5 148t126 90t155 30.5q82 0 153 -29t123.5 -88t82 -146t29.5 -201q0 -115 -31 -204t-84 -149.5t-125.5 -92t-155.5 -31.5q-82 0 -153 30t-123 89.5t-82 147.5t-30 203zM225 454q0 -89 19 -156.5t53.5 -113t82.5 -68.5t107 -23t107.5 23 t82.5 68.5t53.5 113t19.5 156.5t-19.5 156t-53.5 111.5t-82.5 67t-107.5 22.5t-107 -22.5t-82.5 -67t-53.5 -111.5t-19 -156zM202 1299h184l177 -275h-102z" />
<glyph unicode="&#xf3;" horiz-adv-x="973" d="M95 451q0 114 30.5 202.5t84.5 148t126 90t155 30.5q82 0 153 -29t123.5 -88t82 -146t29.5 -201q0 -115 -31 -204t-84 -149.5t-125.5 -92t-155.5 -31.5q-82 0 -153 30t-123 89.5t-82 147.5t-30 203zM225 454q0 -89 19 -156.5t53.5 -113t82.5 -68.5t107 -23t107.5 23 t82.5 68.5t53.5 113t19.5 156.5t-19.5 156t-53.5 111.5t-82.5 67t-107.5 22.5t-107 -22.5t-82.5 -67t-53.5 -111.5t-19 -156zM404 1024l177 275h184l-259 -275h-102z" />
<glyph unicode="&#xf4;" horiz-adv-x="973" d="M95 451q0 114 30.5 202.5t84.5 148t126 90t155 30.5q82 0 153 -29t123.5 -88t82 -146t29.5 -201q0 -115 -31 -204t-84 -149.5t-125.5 -92t-155.5 -31.5q-82 0 -153 30t-123 89.5t-82 147.5t-30 203zM225 454q0 -89 19 -156.5t53.5 -113t82.5 -68.5t107 -23t107.5 23 t82.5 68.5t53.5 113t19.5 156.5t-19.5 156t-53.5 111.5t-82.5 67t-107.5 22.5t-107 -22.5t-82.5 -67t-53.5 -111.5t-19 -156zM201 1009l212 275h144l212 -275h-112l-174 177l-173 -177h-109z" />
<glyph unicode="&#xf5;" horiz-adv-x="973" d="M95 451q0 114 30.5 202.5t84.5 148t126 90t155 30.5q82 0 153 -29t123.5 -88t82 -146t29.5 -201q0 -115 -31 -204t-84 -149.5t-125.5 -92t-155.5 -31.5q-82 0 -153 30t-123 89.5t-82 147.5t-30 203zM225 454q0 -89 19 -156.5t53.5 -113t82.5 -68.5t107 -23t107.5 23 t82.5 68.5t53.5 113t19.5 156.5t-19.5 156t-53.5 111.5t-82.5 67t-107.5 22.5t-107 -22.5t-82.5 -67t-53.5 -111.5t-19 -156zM178 1034q0 57 14.5 99t39 70t56.5 41t66 13t65 -10t62.5 -34t47 -35.5t23.5 -16.5q19 -13 33.5 -18.5t32.5 -5.5q27 0 43 27.5t24 87.5h107 q0 -57 -14.5 -99t-39 -69.5t-56 -41t-66.5 -13.5q-34 0 -65 10t-62.5 34t-47 36t-23.5 17q-19 12 -33.5 17.5t-32.5 5.5q-27 0 -43 -27t-24 -88h-107z" />
<glyph unicode="&#xf6;" horiz-adv-x="973" d="M95 451q0 114 30.5 202.5t84.5 148t126 90t155 30.5q82 0 153 -29t123.5 -88t82 -146t29.5 -201q0 -115 -31 -204t-84 -149.5t-125.5 -92t-155.5 -31.5q-82 0 -153 30t-123 89.5t-82 147.5t-30 203zM225 454q0 -89 19 -156.5t53.5 -113t82.5 -68.5t107 -23t107.5 23 t82.5 68.5t53.5 113t19.5 156.5t-19.5 156t-53.5 111.5t-82.5 67t-107.5 22.5t-107 -22.5t-82.5 -67t-53.5 -111.5t-19 -156zM224 1117q0 20 7.5 37t20.5 30.5t30 21t38 7.5q18 0 35.5 -7.5t30 -21t20 -30.5t7.5 -37q0 -19 -7.5 -36t-20 -30t-30 -21t-35.5 -8q-21 0 -38 8 t-30 21t-20.5 30t-7.5 36zM557 1117q0 20 7.5 37t20.5 30.5t30.5 21t36.5 7.5q20 0 37 -7.5t29.5 -21t20 -30.5t7.5 -37q0 -19 -7.5 -36t-20 -30t-29.5 -21t-37 -8q-19 0 -36.5 8t-30.5 21t-20.5 30t-7.5 36z" />
<glyph unicode="&#xf8;" horiz-adv-x="973" d="M95 451q0 114 30.5 202.5t84.5 148t126 90t155 30.5q41 0 79 -7.5t73 -21.5l47 97h113l-72 -151q69 -57 108.5 -152.5t39.5 -228.5q0 -115 -31 -204t-84 -149.5t-125.5 -92t-155.5 -31.5q-80 0 -148 27l-44 -94h-114l71 148q-72 57 -112.5 155t-40.5 234zM222 454 q0 -94 20.5 -163.5t58.5 -116.5l295 617q-49 23 -109 23q-59 0 -108 -22.5t-84 -67.5t-54 -113t-19 -157zM384 110q49 -21 103 -21q59 0 108 23.5t84.5 69.5t54.5 114.5t19 157.5q0 91 -19.5 158.5t-55.5 113.5z" />
<glyph unicode="&#xf9;" horiz-adv-x="975" d="M138 353v550h128v-528q0 -147 52 -214.5t162 -67.5q103 0 163.5 72.5t60.5 209.5v528h128v-903h-128v110q-40 -58 -103 -93.5t-147 -35.5q-152 0 -234 94.5t-82 277.5zM188 1299h184l177 -275h-102z" />
<glyph unicode="&#xfa;" horiz-adv-x="975" d="M138 353v550h128v-528q0 -147 52 -214.5t162 -67.5q103 0 163.5 72.5t60.5 209.5v528h128v-903h-128v110q-40 -58 -103 -93.5t-147 -35.5q-152 0 -234 94.5t-82 277.5zM414 1024l177 275h184l-259 -275h-102z" />
<glyph unicode="&#xfb;" horiz-adv-x="975" d="M138 353v550h128v-528q0 -147 52 -214.5t162 -67.5q103 0 163.5 72.5t60.5 209.5v528h128v-903h-128v110q-40 -58 -103 -93.5t-147 -35.5q-152 0 -234 94.5t-82 277.5zM203 1024l212 275h144l212 -275h-112l-174 177l-173 -177h-109z" />
<glyph unicode="&#xfc;" horiz-adv-x="975" d="M138 353v550h128v-528q0 -147 52 -214.5t162 -67.5q103 0 163.5 72.5t60.5 209.5v528h128v-903h-128v110q-40 -58 -103 -93.5t-147 -35.5q-152 0 -234 94.5t-82 277.5zM226 1132q0 20 7.5 37t20.5 30.5t30 21t38 7.5q18 0 35.5 -7.5t30 -21t20 -30.5t7.5 -37 q0 -19 -7.5 -36t-20 -30t-30 -21t-35.5 -8q-21 0 -38 8t-30 21t-20.5 30t-7.5 36zM559 1132q0 20 7.5 37t20.5 30.5t30.5 21t36.5 7.5q20 0 37 -7.5t29.5 -21t20 -30.5t7.5 -37q0 -19 -7.5 -36t-20 -30t-29.5 -21t-37 -8q-19 0 -36.5 8t-30.5 21t-20.5 30t-7.5 36z" />
<glyph unicode="&#xfd;" horiz-adv-x="913" d="M69 903h136l251 -748l253 748h136l-449 -1221h-130l125 328zM325 1024l177 275h184l-259 -275h-102z" />
<glyph unicode="&#xff;" horiz-adv-x="913" d="M69 903h136l251 -748l253 748h136l-449 -1221h-130l125 328zM197 1117q0 20 7.5 37t20.5 30.5t30 21t38 7.5q18 0 35.5 -7.5t30 -21t20 -30.5t7.5 -37q0 -19 -7.5 -36t-20 -30t-30 -21t-35.5 -8q-21 0 -38 8t-30 21t-20.5 30t-7.5 36zM530 1117q0 20 7.5 37t20.5 30.5 t30.5 21t36.5 7.5q20 0 37 -7.5t29.5 -21t20 -30.5t7.5 -37q0 -19 -7.5 -36t-20 -30t-29.5 -21t-37 -8q-19 0 -36.5 8t-30.5 21t-20.5 30t-7.5 36z" />
<glyph unicode="&#x102;" horiz-adv-x="1166" d="M92 0l417 1205h148l418 -1205h-141l-103 307h-498l-105 -307h-136zM375 428h415l-207 616zM292 1557h107q8 -94 54 -136.5t132 -42.5q80 0 127.5 43t56.5 136h105q-4 -65 -25 -116t-58 -86t-89.5 -54t-120.5 -19q-63 0 -114.5 19t-89.5 54t-59.5 86t-25.5 116z" />
<glyph unicode="&#x103;" horiz-adv-x="927" d="M89 270q0 76 29 130.5t77 90t110.5 52t129.5 16.5q69 0 127 -15t98 -37v107q0 102 -48 151t-147 49q-72 0 -131.5 -18.5t-115.5 -50.5l-47 105q59 32 136.5 52t165.5 20q73 0 132 -16t99.5 -51.5t63 -91t22.5 -133.5v-630h-130v110q-23 -26 -52 -49.5t-64 -41t-76 -28 t-89 -10.5q-53 0 -105 14t-93 48t-66.5 89.5t-25.5 137.5zM217 279q0 -51 13.5 -87.5t37 -60t58 -34.5t75.5 -11q43 0 81.5 10.5t71 29t59.5 43t47 53.5v182q-22 13 -45.5 22.5t-51 16t-60.5 10t-75 3.5q-100 0 -155.5 -45.5t-55.5 -131.5zM172 1299h107q8 -94 54 -136.5 t132 -42.5q80 0 127.5 43t56.5 136h105q-4 -65 -25 -116t-58 -86t-89.5 -54t-120.5 -19q-63 0 -114.5 19t-89.5 54t-59.5 86t-25.5 116z" />
<glyph unicode="&#x104;" horiz-adv-x="1166" d="M92 0l417 1205h148l418 -1205h-141l-103 307h-498l-105 -307h-136zM375 428h415l-207 616zM750 -210q0 43 17.5 76.5t43.5 57.5t53 41t70 35h130q-36 -20 -61 -36t-50.5 -36t-44 -48t-18.5 -57t14.5 -40t36.5 -11q18 0 34.5 7t29.5 18l59 -86q-29 -28 -69 -41.5 t-85 -13.5q-31 0 -59.5 9t-51 26.5t-36 42.5t-13.5 56z" />
<glyph unicode="&#x105;" horiz-adv-x="927" d="M89 270q0 76 29 130.5t77 90t110.5 52t129.5 16.5q69 0 127 -15t98 -37v107q0 102 -48 151t-147 49q-72 0 -131.5 -18.5t-115.5 -50.5l-47 105q59 32 136.5 52t165.5 20q73 0 132 -16t99.5 -51.5t63 -91t22.5 -133.5v-630h-130v110q-23 -26 -52 -49.5t-64 -41t-76 -28 t-89 -10.5q-53 0 -105 14t-93 48t-66.5 89.5t-25.5 137.5zM217 279q0 -51 13.5 -87.5t37 -60t58 -34.5t75.5 -11q43 0 81.5 10.5t71 29t59.5 43t47 53.5v182q-22 13 -45.5 22.5t-51 16t-60.5 10t-75 3.5q-100 0 -155.5 -45.5t-55.5 -131.5zM476 -210q0 43 17.5 76.5 t43.5 57.5t53 41t70 35h130q-36 -20 -61 -36t-50.5 -36t-44 -48t-18.5 -57t14.5 -40t36.5 -11q18 0 34.5 7t29.5 18l59 -86q-29 -28 -69 -41.5t-85 -13.5q-31 0 -59.5 9t-51 26.5t-36 42.5t-13.5 56z" />
<glyph unicode="&#x106;" horiz-adv-x="1080" d="M107 601q0 134 36 248t101 197t155.5 130t199.5 47q124 0 218 -47t165 -145l-107 -82q-29 40 -58 68.5t-62 47.5t-72 27.5t-87 8.5q-78 0 -143 -36.5t-112 -102.5t-73.5 -157.5t-26.5 -200.5q0 -110 27 -202t75 -158.5t113 -103.5t141 -37q98 0 169 41.5t129 116.5 l93 -80q-33 -45 -74 -81.5t-90.5 -63t-107 -41t-122.5 -14.5q-74 0 -138.5 21.5t-119 60.5t-97 95t-72 125t-45 149t-15.5 169zM533 1282l177 275h184l-259 -275h-102z" />
<glyph unicode="&#x107;" horiz-adv-x="851" d="M95 447q0 125 34 215t89 148t124.5 85t140.5 27q92 0 162.5 -30t123.5 -76l-78 -97q-24 22 -48.5 39t-50 29t-54.5 18t-63 6q-53 0 -99 -23.5t-79 -68.5t-52.5 -111t-19.5 -150q0 -83 17.5 -150.5t50 -115.5t80 -73.5t107.5 -25.5q32 0 60.5 7t53 19t47.5 29.5t47 40.5 l77 -82q-28 -30 -59 -53t-66.5 -39.5t-76.5 -25t-88 -8.5q-74 0 -142.5 28.5t-121.5 86.5t-84.5 145.5t-31.5 205.5zM327 1024l177 275h184l-259 -275h-102z" />
<glyph unicode="&#x10c;" horiz-adv-x="1080" d="M107 601q0 134 36 248t101 197t155.5 130t199.5 47q124 0 218 -47t165 -145l-107 -82q-29 40 -58 68.5t-62 47.5t-72 27.5t-87 8.5q-78 0 -143 -36.5t-112 -102.5t-73.5 -157.5t-26.5 -200.5q0 -110 27 -202t75 -158.5t113 -103.5t141 -37q98 0 169 41.5t129 116.5 l93 -80q-33 -45 -74 -81.5t-90.5 -63t-107 -41t-122.5 -14.5q-74 0 -138.5 21.5t-119 60.5t-97 95t-72 125t-45 149t-15.5 169zM318 1548h112l174 -178l174 178h108l-212 -275h-144z" />
<glyph unicode="&#x10d;" horiz-adv-x="851" d="M95 447q0 125 34 215t89 148t124.5 85t140.5 27q92 0 162.5 -30t123.5 -76l-78 -97q-24 22 -48.5 39t-50 29t-54.5 18t-63 6q-53 0 -99 -23.5t-79 -68.5t-52.5 -111t-19.5 -150q0 -83 17.5 -150.5t50 -115.5t80 -73.5t107.5 -25.5q32 0 60.5 7t53 19t47.5 29.5t47 40.5 l77 -82q-28 -30 -59 -53t-66.5 -39.5t-76.5 -25t-88 -8.5q-74 0 -142.5 28.5t-121.5 86.5t-84.5 145.5t-31.5 205.5zM197 1299h112l174 -178l174 178h108l-212 -275h-144z" />
<glyph unicode="&#x10e;" horiz-adv-x="1132" d="M158 0v1205h318q119 0 219.5 -35t174 -107.5t115 -185t41.5 -266.5q0 -82 -10.5 -150t-38.5 -143t-82.5 -139.5t-124.5 -104t-149 -57t-168 -17.5h-295zM292 122h178q97 0 175 27t132.5 85t84 149.5t29.5 222.5q0 115 -27 204t-81 149.5t-133.5 91.5t-183.5 31h-174v-960 zM282 1557h112l174 -178l174 178h108l-212 -275h-144z" />
<glyph unicode="&#x10f;" horiz-adv-x="1035" d="M95 437q0 120 26.5 210.5t72.5 152t108.5 92t132.5 30.5q43 0 79 -8.5t67 -24.5t57.5 -38.5t51.5 -49.5v381l129 72v-1254h-129v110q-25 -26 -53 -49.5t-61 -41t-72.5 -28t-85.5 -10.5q-68 0 -126.5 26.5t-102.5 82t-69 142t-25 205.5zM222 438q0 -88 16.5 -154 t48.5 -109t73.5 -62.5t90.5 -19.5q40 0 71 9.5t60.5 26t55.5 40t52 54.5v452q-19 28 -44.5 53t-56.5 43.5t-67 29t-77 10.5q-112 0 -167.5 -94.5t-55.5 -278.5zM925 821l26 384h175l-112 -384h-89z" />
<glyph unicode="&#x110;" horiz-adv-x="1173" d="M69 570v120h107v515h318q118 0 219 -35t174 -107.5t114 -185t41 -266.5q0 -164 -44 -280t-121 -189.5t-181.5 -107.5t-225.5 -34h-294v570h-107zM307 122h180q98 0 175.5 27t132 85t84 149.5t29.5 222.5q0 115 -27.5 204t-81 149.5t-133 91.5t-183.5 31h-176v-392h243 v-120h-243v-448z" />
<glyph unicode="&#x111;" horiz-adv-x="987" d="M95 437q0 120 26.5 210.5t72.5 152t108.5 92t132.5 30.5q43 0 79 -8.5t67 -24.5t57.5 -38.5t51.5 -49.5v161h-178v120h178v100l129 72v-172h161v-120h-161v-962h-129v110q-63 -66 -129.5 -97.5t-142.5 -31.5q-68 0 -126.5 26.5t-102.5 82t-69 142t-25 205.5zM222 438 q0 -88 16.5 -154t48.5 -109t73.5 -62.5t90.5 -19.5q40 0 71 9.5t60.5 26t55.5 40t52 54.5v452q-19 28 -44.5 53t-56.5 43.5t-67 29t-77 10.5q-112 0 -167.5 -94.5t-55.5 -278.5z" />
<glyph unicode="&#x118;" horiz-adv-x="1009" d="M158 0v1205h728v-123h-594v-378h481v-123h-481v-459h619v-122h-753zM598 -210q0 43 17.5 76.5t43.5 57.5t53 41t70 35h130q-36 -20 -61 -36t-50.5 -36t-44 -48t-18.5 -57t14.5 -40t36.5 -11q18 0 34.5 7t29.5 18l59 -86q-29 -28 -69 -41.5t-85 -13.5q-31 0 -59.5 9 t-51 26.5t-36 42.5t-13.5 56z" />
<glyph unicode="&#x119;" horiz-adv-x="929" d="M95 456q0 108 28 194.5t77.5 147t118 92.5t149.5 32q88 0 156 -33t114 -92t69.5 -140.5t23.5 -178.5q0 -24 -1.5 -39.5t-3.5 -31.5h-603q5 -72 24 -130t51 -99t76.5 -63t100.5 -22q67 0 122 18t127 68l61 -93q-44 -27 -71.5 -44t-54 -34.5t-53.5 -37.5t-50 -42t-39 -50.5 t-16 -59.5q0 -17 15.5 -32.5t39.5 -15.5q16 0 30.5 5.5t27.5 14.5l55 -82q-32 -24 -68.5 -38t-73.5 -14q-35 0 -63.5 9.5t-49 27.5t-32 44.5t-11.5 60.5q0 53 38 101t93 82q-88 -6 -166 23.5t-136.5 100.5t-81.5 163t-23 188zM223 512h488q-5 66 -21 121t-46 94.5t-74 61.5 t-104 22q-50 0 -92 -18.5t-73.5 -55.5t-51.5 -93t-26 -132z" />
<glyph unicode="&#x11a;" horiz-adv-x="1009" d="M158 0v1205h728v-123h-594v-378h481v-123h-481v-459h619v-122h-753zM235 1557h112l174 -178l174 178h108l-212 -275h-144z" />
<glyph unicode="&#x11b;" horiz-adv-x="929" d="M95 456q0 108 28 194.5t77.5 147t118 92.5t149.5 32q88 0 156 -33t114 -92t69.5 -140.5t23.5 -178.5q0 -24 -1.5 -39.5t-3.5 -31.5h-603q5 -72 24 -130t51 -99t76.5 -63t100.5 -22q39 0 71.5 5.5t61.5 16.5t57 27t59 37l61 -93q-41 -26 -77.5 -46t-74 -33t-79.5 -19.5 t-93 -6.5q-41 0 -84.5 10.5t-84 34t-76.5 60.5t-63 89.5t-42.5 122.5t-15.5 158zM223 512h488q-5 66 -21 121t-46 94.5t-74.5 61.5t-103.5 22q-50 0 -92 -18.5t-73.5 -55.5t-51.5 -93t-26 -132zM180 1299h112l174 -178l174 178h108l-212 -275h-144z" />
<glyph unicode="&#x11e;" horiz-adv-x="1134" d="M107 601q0 134 36 248t101 197t155.5 130t199.5 47q124 0 218 -47t165 -145l-107 -82q-29 40 -58 68.5t-62 47.5t-72 27.5t-87 8.5q-78 0 -143 -36.5t-112 -102.5t-73.5 -157.5t-26.5 -200.5q0 -110 27.5 -202t75 -158.5t113 -103.5t140.5 -37q151 0 231 91t80 269v10 h-217v124h348v-117q0 -125 -33.5 -218.5t-93 -155.5t-141 -93.5t-177.5 -31.5q-116 0 -209.5 52t-153 135.5t-91.5 190t-33 242.5zM313 1548h107q8 -94 54 -136.5t132 -42.5q80 0 127.5 43t56.5 136h105q-4 -65 -25 -116t-58 -86t-89.5 -54t-120.5 -19q-63 0 -114.5 19 t-89.5 54t-59.5 86t-25.5 116z" />
<glyph unicode="&#x11f;" horiz-adv-x="961" d="M95 437q0 120 26.5 210.5t72.5 152t108.5 92t132.5 30.5q43 0 79 -8.5t67 -24.5t57.5 -38.5t51.5 -49.5v102h129v-822q0 -97 -24.5 -174.5t-80.5 -129.5q-52 -50 -145.5 -77.5t-235.5 -31.5l-32 105q128 0 204 17t111 46q38 33 56 89.5t18 138.5v46q-25 -26 -53 -49.5 t-61 -41t-72.5 -28t-85.5 -10.5q-68 0 -126.5 26.5t-102.5 82t-69 142t-25 205.5zM222 438q0 -170 61 -257.5t168 -87.5q72 0 131.5 35.5t107.5 94.5v452q-19 28 -44.5 53t-56.5 43.5t-67 29t-77 10.5q-112 0 -167.5 -94.5t-55.5 -278.5zM189 1299h107q8 -94 54 -136.5 t132 -42.5q80 0 127.5 43t56.5 136h105q-4 -65 -25 -116t-58 -86t-89.5 -54t-120.5 -19q-63 0 -114.5 19t-89.5 54t-59.5 86t-25.5 116z" />
<glyph unicode="&#x130;" horiz-adv-x="467" d="M167 0v1205h134v-1205h-134zM141 1390q0 20 7.5 37t20.5 30.5t30.5 21t36.5 7.5t36.5 -7.5t30.5 -21t20.5 -30.5t7.5 -37q0 -19 -7.5 -36t-20.5 -30t-30.5 -21t-36.5 -8t-36.5 8t-30.5 21t-20.5 30t-7.5 36z" />
<glyph unicode="&#x131;" horiz-adv-x="431" d="M151 0v903h130v-903h-130z" />
<glyph unicode="&#x139;" horiz-adv-x="989" d="M158 0v1205h134v-1083h596v-122h-730zM166 1282l177 275h184l-259 -275h-102z" />
<glyph unicode="&#x13a;" horiz-adv-x="431" d="M151 0v1182l130 72v-1254h-130zM155 1342l177 275h184l-259 -275h-102z" />
<glyph unicode="&#x13d;" horiz-adv-x="989" d="M158 0v1205h134v-1083h596v-122h-730zM433 992l26 384h175l-112 -384h-89z" />
<glyph unicode="&#x13e;" horiz-adv-x="495" d="M151 0v1182l130 72v-1254h-130zM385 821l26 384h175l-112 -384h-89z" />
<glyph unicode="&#x141;" horiz-adv-x="1006" d="M69 317v153l107 93v642h134v-537l276 235v-153l-276 -236v-392h595v-122h-729v409z" />
<glyph unicode="&#x142;" horiz-adv-x="449" d="M76 366v157l84 74v585l129 72v-556l84 76v-157l-84 -74v-543h-129v440z" />
<glyph unicode="&#x143;" horiz-adv-x="1183" d="M158 0v1205h131l607 -978v978h130v-1205h-126l-613 958v-958h-129zM461 1282l177 275h184l-259 -275h-102z" />
<glyph unicode="&#x144;" horiz-adv-x="978" d="M143 0v903h129v-110q19 29 44.5 52.5t57 40.5t68.5 26.5t80 9.5q71 0 129.5 -21.5t99.5 -66.5t63.5 -115.5t22.5 -168.5v-550h-128v528q0 147 -52 215t-161 68q-47 0 -88 -16.5t-71 -51t-47.5 -88t-17.5 -127.5v-528h-129zM432 1024l177 275h184l-259 -275h-102z" />
<glyph unicode="&#x147;" horiz-adv-x="1183" d="M158 0v1205h131l607 -978v978h130v-1205h-126l-613 958v-958h-129zM308 1557h112l174 -178l174 178h108l-212 -275h-144z" />
<glyph unicode="&#x148;" horiz-adv-x="978" d="M143 0v903h129v-110q19 29 44.5 52.5t57 40.5t68.5 26.5t80 9.5q71 0 129.5 -21.5t99.5 -66.5t63.5 -115.5t22.5 -168.5v-550h-128v528q0 147 -52 215t-161 68q-47 0 -88 -16.5t-71 -51t-47.5 -88t-17.5 -127.5v-528h-129zM203 1299h112l174 -178l174 178h108l-212 -275 h-144z" />
<glyph unicode="&#x150;" horiz-adv-x="1212" d="M107 601q0 136 36 250t102 197t158 129t204 46t204 -46t157.5 -127.5t101.5 -195.5t36 -250t-36.5 -250.5t-102.5 -197.5t-158.5 -129t-204.5 -46q-113 0 -204.5 45.5t-156.5 128t-100.5 196.5t-35.5 250zM241 604q0 -113 28 -205.5t77.5 -158t116.5 -101.5t146 -36 q78 0 144.5 35t115 100t76 157t27.5 206q0 113 -28 205.5t-78 158t-117.5 101t-146.5 35.5q-78 0 -144.5 -35t-114 -100t-75 -157t-27.5 -205zM388 1282l159 275h172l-236 -275h-95zM692 1282l160 275h172l-236 -275h-96z" />
<glyph unicode="&#x151;" horiz-adv-x="973" d="M95 451q0 114 30.5 202.5t84.5 148t126 90t155 30.5q82 0 153 -29t123.5 -88t82 -146t29.5 -201q0 -115 -31 -204t-84 -149.5t-125.5 -92t-155.5 -31.5q-82 0 -153 30t-123 89.5t-82 147.5t-30 203zM225 454q0 -89 19 -156.5t53.5 -113t82.5 -68.5t107 -23t107.5 23 t82.5 68.5t53.5 113t19.5 156.5t-19.5 156t-53.5 111.5t-82.5 67t-107.5 22.5t-107 -22.5t-82.5 -67t-53.5 -111.5t-19 -156zM236 1024l159 275h172l-236 -275h-95zM540 1024l160 275h172l-236 -275h-96z" />
<glyph unicode="&#x152;" horiz-adv-x="1794" d="M107 602q0 136 35 250t100 196.5t156 128.5t203 46q67 0 122.5 -17t100 -46t79 -68t59.5 -82v195h709v-123h-589v-378h484v-123h-484v-459h614v-122h-734v200q-28 -47 -60.5 -87.5t-75 -70t-97.5 -45.5t-128 -16q-112 0 -203 46t-156 128.5t-100 196.5t-35 250zM241 604 q0 -113 27.5 -205.5t75.5 -158t114.5 -101.5t145.5 -36q78 0 143.5 35t113.5 100t74.5 157t26.5 206q0 113 -27.5 205.5t-76 158t-115.5 101t-146 35.5q-78 0 -143.5 -35t-112.5 -100t-73.5 -157t-26.5 -205z" />
<glyph unicode="&#x153;" horiz-adv-x="1541" d="M95 451q0 114 31 202.5t84 148t123 90t148 30.5q59 0 108.5 -17t88.5 -46t67.5 -68t45.5 -82q36 92 115 152.5t183 60.5q84 0 150 -33t111 -92t69 -140.5t24 -178.5q0 -24 -1 -39.5t-4 -31.5h-585q5 -72 23.5 -130t50 -99t74 -63t95.5 -22q62 0 116.5 19t123.5 67l61 -93 q-77 -50 -147.5 -77.5t-167.5 -27.5q-50 0 -96 17t-84.5 46.5t-67.5 68.5t-46 83q-18 -45 -46.5 -84t-67.5 -68.5t-89 -46t-110 -16.5q-79 0 -148 30t-120.5 89.5t-81.5 147.5t-30 203zM225 454q0 -89 19 -156.5t52 -113t80 -68.5t102 -23t102 23t81 68.5t52.5 113 t18.5 156.5t-18.5 156t-52.5 111.5t-81 67t-102 22.5t-102 -22.5t-80 -67t-52 -111.5t-19 -156zM853 512h470q-4 66 -20 121t-45.5 94.5t-72 61.5t-98.5 22q-96 0 -158.5 -73.5t-75.5 -225.5z" />
<glyph unicode="&#x154;" horiz-adv-x="1118" d="M158 0v1205h477q79 0 147.5 -21t119 -63t79.5 -106t29 -151q0 -71 -20.5 -127.5t-57.5 -99.5t-89.5 -71.5t-116.5 -42.5l265 -523h-155l-258 512h-286v-512h-134zM292 633h320q58 0 105.5 11t84.5 38t55 72.5t18 103.5t-17.5 102.5t-53.5 72.5t-81 38.5t-93 10.5h-338 v-449zM428 1282l177 275h184l-259 -275h-102z" />
<glyph unicode="&#x155;" horiz-adv-x="700" d="M143 0v903h129v-112q15 27 38.5 51t52.5 41.5t62.5 28t70.5 10.5q50 0 83.5 -6t57.5 -16l-33 -131q-27 16 -59 25t-77 9q-94 0 -145 -72t-51 -201v-530h-129zM273 1024l177 275h184l-259 -275h-102z" />
<glyph unicode="&#x158;" horiz-adv-x="1118" d="M158 0v1205h477q79 0 147.5 -21t119 -63t79.5 -106t29 -151q0 -71 -20.5 -127.5t-57.5 -99.5t-89.5 -71.5t-116.5 -42.5l265 -523h-155l-258 512h-286v-512h-134zM292 633h320q58 0 105.5 11t84.5 38t55 72.5t18 103.5t-17.5 102.5t-53.5 72.5t-81 38.5t-93 10.5h-338 v-449zM275 1557h112l174 -178l174 178h108l-212 -275h-144z" />
<glyph unicode="&#x159;" horiz-adv-x="700" d="M143 0v903h129v-112q15 27 38.5 51t52.5 41.5t62.5 28t70.5 10.5q50 0 83.5 -6t57.5 -16l-33 -131q-27 16 -59 25t-77 9q-94 0 -145 -72t-51 -201v-530h-129zM67 1299h112l174 -178l174 178h108l-212 -275h-144z" />
<glyph unicode="&#x15a;" horiz-adv-x="1018" d="M95 148l89 100q69 -67 148 -106t172 -39q60 0 108 14.5t81.5 41.5t52 65t18.5 86q0 42 -14 76t-47.5 64t-88.5 57.5t-138 56.5q-97 35 -163.5 70t-107 75.5t-58.5 90.5t-18 116q0 72 27.5 129t76.5 96.5t118.5 60.5t154.5 21q60 0 111 -9t95 -25t83 -40t77 -54l-86 -105 q-33 26 -65.5 47t-67 35.5t-72.5 21.5t-84 7q-62 0 -106.5 -14t-72.5 -39t-41.5 -57t-13.5 -67q0 -38 11 -68t42 -58.5t87 -56.5t146 -60q99 -36 166.5 -72.5t108 -79t57.5 -94t17 -118.5q0 -71 -27 -132.5t-78 -106.5t-125.5 -71t-168.5 -26q-61 0 -118.5 12.5t-109.5 34.5 t-96.5 53t-79.5 67zM378 1282l177 275h184l-259 -275h-102z" />
<glyph unicode="&#x15b;" horiz-adv-x="803" d="M74 97l76 94q54 -48 116 -73.5t130 -25.5q93 0 137.5 36.5t44.5 101.5q0 28 -11 50.5t-35.5 44t-65.5 43t-101 47.5q-68 29 -116.5 55.5t-79.5 57.5t-46 70t-15 93q0 52 21 94.5t59 73t89.5 47t113.5 16.5q93 0 164.5 -26.5t124.5 -69.5l-73 -95q-58 45 -107 63t-118 18 q-71 0 -110.5 -31.5t-39.5 -79.5q0 -29 9.5 -50.5t32.5 -40.5t62 -39t96 -46q64 -29 114 -55t84.5 -58t53 -73.5t18.5 -102.5q0 -66 -26.5 -114.5t-70 -79.5t-99 -46t-114.5 -15q-94 0 -173.5 32t-144.5 84zM271 1024l177 275h184l-259 -275h-102z" />
<glyph unicode="&#x15e;" horiz-adv-x="1018" d="M95 148l89 100q69 -67 148 -106t172 -39q60 0 108 14.5t81.5 41.5t52 65t18.5 86q0 42 -14 76t-47.5 64t-88.5 57.5t-138 56.5q-97 35 -163.5 70t-107 75.5t-58.5 90.5t-18 116q0 72 27.5 129t76.5 96.5t118.5 60.5t154.5 21q60 0 111 -9t95 -25t83 -40t77 -54l-86 -105 q-33 26 -65.5 47t-67 35.5t-72.5 21.5t-84 7q-62 0 -106.5 -14t-72.5 -39t-41.5 -57t-13.5 -67q0 -38 11 -68t42 -58.5t87 -56.5t146 -60q99 -36 166.5 -72.5t108 -79t57.5 -94t17 -118.5q0 -71 -27 -132.5t-78 -106.5t-125.5 -71t-168.5 -26q-61 0 -118.5 12.5t-109.5 34.5 t-96.5 53t-79.5 67zM313 -270l33 55q72 -46 158 -46q60 0 87.5 19t27.5 55q0 26 -14 41t-40 15q-51 0 -83 -31l-62 24l43 138h77l-29 -87q18 11 41 17t54 6q17 0 37.5 -6t37.5 -20t28.5 -37t11.5 -55q0 -42 -16.5 -70.5t-44.5 -46.5t-65 -25.5t-78 -7.5q-53 0 -105.5 16 t-98.5 46z" />
<glyph unicode="&#x15f;" horiz-adv-x="803" d="M74 97l76 94q54 -48 116 -73.5t130 -25.5q93 0 137.5 36.5t44.5 101.5q0 28 -11 50.5t-35.5 44t-65.5 43t-101 47.5q-68 29 -116.5 55.5t-79.5 57.5t-46 70t-15 93q0 52 21 94.5t59 73t89.5 47t113.5 16.5q93 0 164.5 -26.5t124.5 -69.5l-73 -95q-58 45 -107 63t-118 18 q-71 0 -110.5 -31.5t-39.5 -79.5q0 -29 9.5 -50.5t32.5 -40.5t62 -39t96 -46q64 -29 114 -55t84.5 -58t53 -73.5t18.5 -102.5q0 -66 -26.5 -114.5t-70 -79.5t-99 -46t-114.5 -15q-94 0 -173.5 32t-144.5 84zM206 -270l33 55q72 -46 158 -46q60 0 87.5 19t27.5 55 q0 26 -14 41t-40 15q-51 0 -83 -31l-62 24l43 138h77l-29 -87q18 11 41 17t54 6q17 0 37.5 -6t37.5 -20t28.5 -37t11.5 -55q0 -42 -16.5 -70.5t-44.5 -46.5t-65 -25.5t-78 -7.5q-53 0 -105.5 16t-98.5 46z" />
<glyph unicode="&#x160;" horiz-adv-x="1018" d="M95 148l89 100q69 -67 148 -106t172 -39q60 0 108 14.5t81.5 41.5t52 65t18.5 86q0 42 -14 76t-47.5 64t-88.5 57.5t-138 56.5q-97 35 -163.5 70t-107 75.5t-58.5 90.5t-18 116q0 72 27.5 129t76.5 96.5t118.5 60.5t154.5 21q60 0 111 -9t95 -25t83 -40t77 -54l-86 -105 q-33 26 -65.5 47t-67 35.5t-72.5 21.5t-84 7q-62 0 -106.5 -14t-72.5 -39t-41.5 -57t-13.5 -67q0 -38 11 -68t42 -58.5t87 -56.5t146 -60q99 -36 166.5 -72.5t108 -79t57.5 -94t17 -118.5q0 -71 -27 -132.5t-78 -106.5t-125.5 -71t-168.5 -26q-61 0 -118.5 12.5t-109.5 34.5 t-96.5 53t-79.5 67zM225 1557h112l174 -178l174 178h108l-212 -275h-144z" />
<glyph unicode="&#x161;" horiz-adv-x="803" d="M74 97l76 94q54 -48 116 -73.5t130 -25.5q93 0 137.5 36.5t44.5 101.5q0 28 -11 50.5t-35.5 44t-65.5 43t-101 47.5q-68 29 -116.5 55.5t-79.5 57.5t-46 70t-15 93q0 52 21 94.5t59 73t89.5 47t113.5 16.5q93 0 164.5 -26.5t124.5 -69.5l-73 -95q-58 45 -107 63t-118 18 q-71 0 -110.5 -31.5t-39.5 -79.5q0 -29 9.5 -50.5t32.5 -40.5t62 -39t96 -46q64 -29 114 -55t84.5 -58t53 -73.5t18.5 -102.5q0 -66 -26.5 -114.5t-70 -79.5t-99 -46t-114.5 -15q-94 0 -173.5 32t-144.5 84zM118 1299h112l174 -178l174 178h108l-212 -275h-144z" />
<glyph unicode="&#x162;" horiz-adv-x="1011" d="M84 1082v123h843v-123h-354v-1082h-135v1082h-354zM316 -270l33 55q72 -46 158 -46q60 0 87.5 19t27.5 55q0 26 -14 41t-40 15q-51 0 -83 -31l-62 24l43 138h77l-29 -87q18 11 41 17t54 6q17 0 37.5 -6t37.5 -20t28.5 -37t11.5 -55q0 -42 -16.5 -70.5t-44.5 -46.5 t-65 -25.5t-78 -7.5q-53 0 -105.5 16t-98.5 46z" />
<glyph unicode="&#x163;" horiz-adv-x="640" d="M67 795v108h112v279l129 72v-351h224v-108h-224v-588q0 -31 5 -51.5t15.5 -33.5t27.5 -18.5t43 -5.5q39 0 68 6.5t60 18.5l-10 -111q-37 -15 -75.5 -23t-90.5 -8q-42 0 -74 11t-53.5 35t-33 63t-11.5 96v609h-112zM126 -270l33 55q72 -46 158 -46q60 0 87.5 19t27.5 55 q0 26 -14 41t-40 15q-51 0 -83 -31l-62 24l43 138h77l-29 -87q18 11 41 17t54 6q17 0 37.5 -6t37.5 -20t28.5 -37t11.5 -55q0 -42 -16.5 -70.5t-44.5 -46.5t-65 -25.5t-78 -7.5q-53 0 -105.5 16t-98.5 46z" />
<glyph unicode="&#x164;" horiz-adv-x="1011" d="M84 1082v123h843v-123h-354v-1082h-135v1082h-354zM222 1557h112l174 -178l174 178h108l-212 -275h-144z" />
<glyph unicode="&#x165;" horiz-adv-x="640" d="M67 795v108h112v279l129 72v-351h224v-108h-224v-588q0 -31 5 -51.5t15.5 -33.5t27.5 -18.5t43 -5.5q39 0 68 6.5t60 18.5l-10 -111q-37 -15 -75.5 -23t-90.5 -8q-42 0 -74 11t-53.5 35t-33 63t-11.5 96v609h-112zM463 988l20 311h143l-93 -311h-70z" />
<glyph unicode="&#x16e;" horiz-adv-x="1166" d="M150 489v716h134v-713q0 -196 75.5 -292.5t232.5 -96.5q154 0 222.5 94t68.5 292v716h133v-716q0 -139 -32 -236.5t-88.5 -156.5t-133 -87t-177.5 -28q-102 0 -179.5 28t-134.5 87t-89 156.5t-32 236.5zM381 1450q0 42 15.5 79t42 63.5t63.5 42t81 15.5t81 -15.5 t63.5 -42t42 -63.5t15.5 -79t-15.5 -78.5t-42 -63.5t-63.5 -42.5t-81 -15.5t-81 15.5t-63.5 42.5t-42 63.5t-15.5 78.5zM463 1450q0 -26 8.5 -49t24 -39.5t37.5 -25.5t50 -9t50 9t37.5 25.5t24 39.5t8.5 49t-8.5 49t-24 39.5t-37.5 25.5t-50 9t-50 -9t-37.5 -25.5t-24 -39.5 t-8.5 -49z" />
<glyph unicode="&#x16f;" horiz-adv-x="975" d="M138 353v550h128v-528q0 -147 52 -214.5t162 -67.5q103 0 163.5 72.5t60.5 209.5v528h128v-903h-128v110q-40 -58 -103 -93.5t-147 -35.5q-152 0 -234 94.5t-82 277.5zM285 1231q0 42 15.5 79t42 63.5t63.5 42t81 15.5t81 -15.5t63.5 -42t42 -63.5t15.5 -79t-15.5 -78.5 t-42 -63.5t-63.5 -42.5t-81 -15.5t-81 15.5t-63.5 42.5t-42 63.5t-15.5 78.5zM367 1231q0 -26 8.5 -49t24 -39.5t37.5 -25.5t50 -9t50 9t37.5 25.5t24 39.5t8.5 49t-8.5 49t-24 39.5t-37.5 25.5t-50 9t-50 -9t-37.5 -25.5t-24 -39.5t-8.5 -49z" />
<glyph unicode="&#x170;" horiz-adv-x="1166" d="M150 489v716h134v-713q0 -196 75.5 -292.5t232.5 -96.5q154 0 222.5 94t68.5 292v716h133v-716q0 -139 -32 -236.5t-88.5 -156.5t-133 -87t-177.5 -28q-102 0 -179.5 28t-134.5 87t-89 156.5t-32 236.5zM341 1282l159 275h172l-236 -275h-95zM645 1282l160 275h172 l-236 -275h-96z" />
<glyph unicode="&#x171;" horiz-adv-x="975" d="M138 353v550h128v-528q0 -147 52 -214.5t162 -67.5q103 0 163.5 72.5t60.5 209.5v528h128v-903h-128v110q-40 -58 -103 -93.5t-147 -35.5q-152 0 -234 94.5t-82 277.5zM264 1024l159 275h172l-236 -275h-95zM568 1024l160 275h172l-236 -275h-96z" />
<glyph unicode="&#x178;" horiz-adv-x="1121" d="M81 1205h153l328 -591l329 591h150l-413 -727v-478h-134v476zM298 1373q0 20 7.5 37t20.5 30.5t30 21t38 7.5q18 0 35.5 -7.5t30 -21t20 -30.5t7.5 -37q0 -19 -7.5 -36t-20 -30t-30 -21t-35.5 -8q-21 0 -38 8t-30 21t-20.5 30t-7.5 36zM631 1373q0 20 7.5 37t20.5 30.5 t30.5 21t36.5 7.5q20 0 37 -7.5t29.5 -21t20 -30.5t7.5 -37q0 -19 -7.5 -36t-20 -30t-29.5 -21t-37 -8q-19 0 -36.5 8t-30.5 21t-20.5 30t-7.5 36z" />
<glyph unicode="&#x179;" horiz-adv-x="1080" d="M105 0v117l712 970h-678v118h826v-118l-712 -970h712v-117h-860zM409 1282l177 275h184l-259 -275h-102z" />
<glyph unicode="&#x17a;" horiz-adv-x="846" d="M93 0v95l493 700h-453v108h599v-94l-493 -701h493v-108h-639zM294 1024l177 275h184l-259 -275h-102z" />
<glyph unicode="&#x17b;" horiz-adv-x="1080" d="M105 0v117l712 970h-678v118h826v-118l-712 -970h712v-117h-860zM445 1390q0 20 7.5 37t20.5 30.5t30.5 21t36.5 7.5t36.5 -7.5t30.5 -21t20.5 -30.5t7.5 -37q0 -19 -7.5 -36t-20.5 -30t-30.5 -21t-36.5 -8t-36.5 8t-30.5 21t-20.5 30t-7.5 36z" />
<glyph unicode="&#x17c;" horiz-adv-x="846" d="M93 0v95l493 700h-453v108h599v-94l-493 -701h493v-108h-639zM330 1132q0 20 7.5 37t20.5 30.5t30.5 21t36.5 7.5t36.5 -7.5t30.5 -21t20.5 -30.5t7.5 -37q0 -19 -7.5 -36t-20.5 -30t-30.5 -21t-36.5 -8t-36.5 8t-30.5 21t-20.5 30t-7.5 36z" />
<glyph unicode="&#x17d;" horiz-adv-x="1080" d="M105 0v117l712 970h-678v118h826v-118l-712 -970h712v-117h-860zM256 1557h112l174 -178l174 178h108l-212 -275h-144z" />
<glyph unicode="&#x17e;" horiz-adv-x="846" d="M93 0v95l493 700h-453v108h599v-94l-493 -701h493v-108h-639zM141 1299h112l174 -178l174 178h108l-212 -275h-144z" />
<glyph unicode="&#x218;" horiz-adv-x="1018" d="M95 148l89 100q69 -67 148 -106t172 -39q60 0 108 14.5t81.5 41.5t52 65t18.5 86q0 42 -14 76t-47.5 64t-88.5 57.5t-138 56.5q-97 35 -163.5 70t-107 75.5t-58.5 90.5t-18 116q0 72 27.5 129t76.5 96.5t118.5 60.5t154.5 21q60 0 111 -9t95 -25t83 -40t77 -54l-86 -105 q-33 26 -65.5 47t-67 35.5t-72.5 21.5t-84 7q-62 0 -106.5 -14t-72.5 -39t-41.5 -57t-13.5 -67q0 -38 11 -68t42 -58.5t87 -56.5t146 -60q99 -36 166.5 -72.5t108 -79t57.5 -94t17 -118.5q0 -71 -27 -132.5t-78 -106.5t-125.5 -71t-168.5 -26q-61 0 -118.5 12.5t-109.5 34.5 t-96.5 53t-79.5 67zM422 -412l20 323h143l-93 -323h-70z" />
<glyph unicode="&#x219;" horiz-adv-x="803" d="M74 97l76 94q54 -48 116 -73.5t130 -25.5q93 0 137.5 36.5t44.5 101.5q0 28 -11 50.5t-35.5 44t-65.5 43t-101 47.5q-68 29 -116.5 55.5t-79.5 57.5t-46 70t-15 93q0 52 21 94.5t59 73t89.5 47t113.5 16.5q93 0 164.5 -26.5t124.5 -69.5l-73 -95q-58 45 -107 63t-118 18 q-71 0 -110.5 -31.5t-39.5 -79.5q0 -29 9.5 -50.5t32.5 -40.5t62 -39t96 -46q64 -29 114 -55t84.5 -58t53 -73.5t18.5 -102.5q0 -66 -26.5 -114.5t-70 -79.5t-99 -46t-114.5 -15q-94 0 -173.5 32t-144.5 84zM314 -412l20 323h143l-93 -323h-70z" />
<glyph unicode="&#x21a;" horiz-adv-x="1011" d="M84 1082v123h843v-123h-354v-1082h-135v1082h-354zM419 -412l20 323h143l-93 -323h-70z" />
<glyph unicode="&#x21b;" horiz-adv-x="640" d="M67 795v108h112v279l129 72v-351h224v-108h-224v-588q0 -31 5 -51.5t15.5 -33.5t27.5 -18.5t43 -5.5q39 0 68 6.5t60 18.5l-10 -111q-37 -15 -75.5 -23t-90.5 -8q-42 0 -74 11t-53.5 35t-33 63t-11.5 96v609h-112zM233 -412l20 323h143l-93 -323h-70z" />
<glyph unicode="&#x2c6;" horiz-adv-x="860" d="M146 1024l212 275h144l212 -275h-112l-174 177l-173 -177h-109z" />
<glyph unicode="&#x2c7;" horiz-adv-x="860" d="M146 1299h112l174 -178l174 178h108l-212 -275h-144z" />
<glyph unicode="&#x2d8;" horiz-adv-x="860" d="M139 1299h107q8 -94 54 -136.5t132 -42.5q80 0 127.5 43t56.5 136h105q-4 -65 -25 -116t-58 -86t-89.5 -54t-120.5 -19q-63 0 -114.5 19t-89.5 54t-59.5 86t-25.5 116z" />
<glyph unicode="&#x2d9;" horiz-adv-x="860" d="M335 1132q0 20 7.5 37t20.5 30.5t30.5 21t36.5 7.5t36.5 -7.5t30.5 -21t20.5 -30.5t7.5 -37q0 -19 -7.5 -36t-20.5 -30t-30.5 -21t-36.5 -8t-36.5 8t-30.5 21t-20.5 30t-7.5 36z" />
<glyph unicode="&#x2da;" horiz-adv-x="860" d="M228 1231q0 42 15.5 79t42 63.5t63.5 42t81 15.5t81 -15.5t63.5 -42t42 -63.5t15.5 -79t-15.5 -78.5t-42 -63.5t-63.5 -42.5t-81 -15.5t-81 15.5t-63.5 42.5t-42 63.5t-15.5 78.5zM310 1231q0 -26 8.5 -49t24 -39.5t37.5 -25.5t50 -9t50 9t37.5 25.5t24 39.5t8.5 49 t-8.5 49t-24 39.5t-37.5 25.5t-50 9t-50 -9t-37.5 -25.5t-24 -39.5t-8.5 -49z" />
<glyph unicode="&#x2db;" horiz-adv-x="860" d="M208 -210q0 43 17.5 76.5t43.5 57.5t53 41t70 35h130q-36 -20 -61 -36t-50.5 -36t-44 -48t-18.5 -57t14.5 -40t36.5 -11q18 0 34.5 7t29.5 18l59 -86q-29 -28 -69 -41.5t-85 -13.5q-31 0 -59.5 9t-51 26.5t-36 42.5t-13.5 56z" />
<glyph unicode="&#x2dc;" horiz-adv-x="860" d="M123 1034q0 57 14.5 99t39 70t56.5 41t66 13t65 -10t62.5 -34t47 -35.5t23.5 -16.5q19 -13 33.5 -18.5t32.5 -5.5q27 0 43 27.5t24 87.5h107q0 -57 -14.5 -99t-39 -69.5t-56 -41t-66.5 -13.5q-34 0 -65 10t-62.5 34t-47 36t-23.5 17q-19 12 -33.5 17.5t-32.5 5.5 q-27 0 -43 -27t-24 -88h-107z" />
<glyph unicode="&#x2dd;" horiz-adv-x="860" d="M128 1024l159 275h172l-236 -275h-95zM432 1024l160 275h172l-236 -275h-96z" />
<glyph unicode="&#x384;" horiz-adv-x="860" d="M299 1024l177 275h184l-259 -275h-102z" />
<glyph unicode="&#x398;" horiz-adv-x="1233" d="M103 601q0 136 36.5 250t103.5 197t162 129t212 46q119 0 214 -46.5t161.5 -129.5t102.5 -197.5t36 -250.5t-36.5 -250t-104.5 -196t-163 -127t-213 -45t-212.5 45.5t-160.5 128t-102 196.5t-36 250zM238 604q0 -113 27.5 -205.5t78 -158t120.5 -101.5t155 -36 q84 0 153.5 35t119.5 100t77 157t27 206q0 111 -28 203t-79 158t-121.5 102.5t-155.5 36.5q-84 0 -153 -35t-118.5 -100t-76 -157t-26.5 -205zM407 568v122h419v-122h-419z" />
<glyph unicode="&#x3a8;" horiz-adv-x="1219" d="M103 734v471h135v-468q0 -146 79 -231t225 -93v792h134v-794q152 8 229 92t77 231v471h134v-468q0 -90 -26.5 -168t-81.5 -136t-137.5 -94t-194.5 -42v-297h-134v297q-112 5 -194.5 39.5t-136.5 93t-81 136.5t-27 168z" />
<glyph unicode="&#x3b8;" horiz-adv-x="987" d="M120 614q0 134 19.5 250.5t63 202t115 134t176.5 48.5q106 0 177.5 -48.5t115 -134t62 -202t18.5 -250.5q0 -135 -18.5 -250.5t-62 -201t-115 -133.5t-177.5 -48q-105 0 -176.5 48t-115 133.5t-63 201t-19.5 250.5zM251 573q4 -98 16 -184.5t39 -152t73 -104.5t117 -39 q73 0 118 39t71.5 104.5t38 152.5t14.5 184h-487zM253 681h484q-5 93 -17.5 176.5t-39 145.5t-71.5 98t-115 36t-114.5 -36t-71.5 -98t-39 -145.5t-16 -176.5z" />
<glyph unicode="&#x3c8;" horiz-adv-x="1216" d="M128 411v492h128v-486q0 -156 74 -236.5t213 -88.5v1011l130 74v-1085q139 8 213 88.5t74 236.5v486h129v-485q0 -93 -24.5 -171.5t-75.5 -135.5t-129.5 -90t-186.5 -36v-245l-130 -72v317q-108 3 -186.5 35t-129.5 88t-75 133t-24 170z" />
<glyph unicode="&#x400;" horiz-adv-x="1009" d="M212 1601h184l177 -275h-102zM158 0v1205h728v-123h-594v-378h481v-123h-481v-459h619v-122h-753z" />
<glyph unicode="&#x401;" horiz-adv-x="1009" d="M158 0v1205h728v-123h-594v-378h481v-123h-481v-459h619v-122h-753zM262 1390q0 20 7.5 37t20.5 30.5t30 21t38 7.5q18 0 35.5 -7.5t30 -21t20 -30.5t7.5 -37q0 -19 -7.5 -36t-20 -30t-30 -21t-35.5 -8q-21 0 -38 8t-30 21t-20.5 30t-7.5 36zM595 1390q0 20 7.5 37 t20.5 30.5t30.5 21t36.5 7.5q20 0 37 -7.5t29.5 -21t20 -30.5t7.5 -37q0 -19 -7.5 -36t-20 -30t-29.5 -21t-37 -8q-19 0 -36.5 8t-30.5 21t-20.5 30t-7.5 36z" />
<glyph unicode="&#x402;" horiz-adv-x="1367" d="M84 1082v123h843v-123h-354v-320q49 54 126 88.5t182 34.5q88 0 160.5 -26.5t124 -81t79.5 -140t28 -204.5v-178q0 -77 -16 -137t-49 -106.5t-82.5 -81t-115.5 -58.5l-43 128q43 18 75 40.5t53.5 53.5t32.5 71.5t11 94.5v173q0 169 -67.5 249t-207.5 80q-91 0 -165 -38.5 t-126 -112.5v-611h-135v1082h-354z" />
<glyph unicode="&#x403;" horiz-adv-x="942" d="M158 0v1205h707v-123h-573v-1082h-134zM349 1282l177 275h184l-259 -275h-102z" />
<glyph unicode="&#x404;" horiz-adv-x="1080" d="M107 601q0 134 36 248t101 197t155.5 130t199.5 47q124 0 218 -47t165 -145l-107 -82q-62 84 -124 118t-155 34q-70 0 -130 -29.5t-106 -84t-75.5 -130t-40.5 -167.5h595v-122h-598q4 -103 33 -189t76.5 -147t110.5 -95t136 -34q98 0 169 41.5t129 116.5l93 -80 q-33 -45 -74 -81.5t-90.5 -63t-107 -41t-122.5 -14.5q-109 0 -200 47t-154.5 131t-98 197t-34.5 245z" />
<glyph unicode="&#x405;" horiz-adv-x="1018" d="M95 148l89 100q69 -67 148 -106t172 -39q60 0 108 14.5t81.5 41.5t52 65t18.5 86q0 42 -14 76t-47.5 64t-88.5 57.5t-138 56.5q-97 35 -163.5 70t-107 75.5t-58.5 90.5t-18 116q0 72 27.5 129t76.5 96.5t118.5 60.5t154.5 21q60 0 111 -9t95 -25t83 -40t77 -54l-86 -105 q-33 26 -65.5 47t-67 35.5t-72.5 21.5t-84 7q-62 0 -106.5 -14t-72.5 -39t-41.5 -57t-13.5 -67q0 -38 11 -68t42 -58.5t87 -56.5t146 -60q99 -36 166.5 -72.5t108 -79t57.5 -94t17 -118.5q0 -71 -27 -132.5t-78 -106.5t-125.5 -71t-168.5 -26q-61 0 -118.5 12.5t-109.5 34.5 t-96.5 53t-79.5 67z" />
<glyph unicode="&#x406;" horiz-adv-x="467" d="M167 0v1205h134v-1205h-134z" />
<glyph unicode="&#x407;" horiz-adv-x="467" d="M167 0v1205h134v-1205h-134zM-28 1397q0 20 7.5 37t20.5 30.5t30 21t38 7.5q18 0 35.5 -7.5t30 -21t20 -30.5t7.5 -37q0 -19 -7.5 -36t-20 -30t-30 -21t-35.5 -8q-21 0 -38 8t-30 21t-20.5 30t-7.5 36zM305 1397q0 20 7.5 37t20.5 30.5t30.5 21t36.5 7.5q20 0 37 -7.5 t29.5 -21t20 -30.5t7.5 -37q0 -19 -7.5 -36t-20 -30t-29.5 -21t-37 -8q-19 0 -36.5 8t-30.5 21t-20.5 30t-7.5 36z" />
<glyph unicode="&#x408;" horiz-adv-x="994" d="M51 272l128 43q18 -50 40.5 -89t53.5 -66t71.5 -42t93.5 -15q73 0 124.5 21t84.5 65.5t48.5 113t15.5 163.5v739h134v-744q0 -241 -102 -360.5t-310 -119.5q-76 0 -136 18.5t-106.5 56t-81 92t-58.5 124.5z" />
<glyph unicode="&#x409;" horiz-adv-x="1727" d="M0 108q70 33 112.5 91t59.5 169l119 837h657v-474h316q82 0 152.5 -22t121.5 -66.5t80.5 -112t29.5 -159.5q0 -90 -30 -158.5t-83.5 -116t-128.5 -72t-165 -24.5h-427v1082h-407l-100 -719q-25 -163 -92.5 -251t-171.5 -131zM948 122h294q139 0 205.5 62t66.5 182 q0 118 -65 180.5t-190 62.5h-311v-487z" />
<glyph unicode="&#x40a;" horiz-adv-x="1799" d="M158 0v1205h134v-474h566v474h135v-474h317q81 0 151 -22t122 -66.5t81 -112t29 -159.5q0 -90 -30 -158.5t-84 -116t-128.5 -72t-165.5 -24.5h-427v609h-566v-609h-134zM993 122h294q138 0 204.5 62t66.5 182q0 118 -64.5 180.5t-189.5 62.5h-311v-487z" />
<glyph unicode="&#x40b;" horiz-adv-x="1367" d="M84 1082v123h843v-123h-354v-320q25 28 56.5 49.5t70 39t85 26t96.5 8.5q88 0 160.5 -26.5t124 -81t79.5 -140t28 -204.5v-433h-134v433q0 79 -15.5 142t-49 104t-86 62t-124.5 21q-94 0 -168 -39.5t-123 -111.5v-611h-135v1082h-354z" />
<glyph unicode="&#x40c;" horiz-adv-x="1104" d="M158 0v1205h134v-680l525 680h146l-352 -453l420 -752h-154l-355 642l-230 -296v-346h-134zM420 1282l177 275h184l-259 -275h-102z" />
<glyph unicode="&#x40d;" horiz-adv-x="1183" d="M281 1601h184l177 -275h-102zM158 0v1205h134v-981l599 981h135v-1205h-135v974l-599 -974h-134z" />
<glyph unicode="&#x40e;" horiz-adv-x="1047" d="M50 1205h153l329 -697l328 697h146l-581 -1205h-141l179 349zM209 1504h113q7 -25 25.5 -46t45.5 -36t62.5 -23.5t76.5 -8.5t76.5 8.5t62.5 23.5t45.5 36t25.5 46h114q-6 -50 -32 -90.5t-68.5 -69.5t-99.5 -45.5t-124 -16.5t-123.5 16.5t-99 45.5t-68.5 69.5t-32 90.5z " />
<glyph unicode="&#x40f;" horiz-adv-x="1183" d="M158 0v1205h134v-1083h599v1083h135v-1205h-366l-12 -260h-125v260h-365z" />
<glyph unicode="&#x410;" horiz-adv-x="1166" d="M92 0l417 1205h148l418 -1205h-141l-103 307h-498l-105 -307h-136zM375 428h415l-207 616z" />
<glyph unicode="&#x411;" horiz-adv-x="1096" d="M158 0v1205h763v-123h-629v-365h307q90 0 163 -24t124.5 -69t80 -111.5t28.5 -151.5t-24 -152.5t-74.5 -114t-124 -70.5t-175.5 -24h-439zM292 122h314q126 0 190 57.5t64 173.5q0 115 -70.5 179t-190.5 64h-307v-474z" />
<glyph unicode="&#x412;" horiz-adv-x="1088" d="M158 0v1205h441q71 0 131 -18.5t103.5 -55.5t68 -94t24.5 -134q0 -50 -13 -89.5t-36.5 -69.5t-55 -52t-69.5 -35q60 -16 103.5 -44t70.5 -65.5t41.5 -85.5t14.5 -106q0 -178 -101 -267t-291 -89h-432zM292 122h307q68 0 115.5 16.5t77.5 45.5t43 71t13 94q0 57 -18 101 t-51 74t-80.5 46t-106.5 16h-300v-464zM292 707h291q56 0 95.5 15.5t65 41t36.5 60t11 74.5q0 41 -12 75t-36.5 58t-61.5 37.5t-87 13.5h-302v-375z" />
<glyph unicode="&#x413;" horiz-adv-x="942" d="M158 0v1205h707v-123h-573v-1082h-134z" />
<glyph unicode="&#x414;" horiz-adv-x="1124" d="M28 122h77q19 55 37.5 120t34.5 146.5t27 148.5t23 153l72 515h668v-1083h112v-382h-126l-12 260h-776l-12 -260h-125v382zM239 122h593v960h-415l-56 -392q-12 -86 -22.5 -152.5t-20.5 -119.5t-19.5 -94t-19 -76t-19.5 -65t-21 -61z" />
<glyph unicode="&#x415;" horiz-adv-x="1009" d="M158 0v1205h728v-123h-594v-378h481v-123h-481v-459h619v-122h-753z" />
<glyph unicode="&#x416;" horiz-adv-x="1706" d="M77 0l417 747l-356 458h149l499 -651v651h135v-651l499 651h146l-353 -453l420 -752h-154l-356 642l-202 -263v-379h-135v375l-206 267l-353 -642h-150z" />
<glyph unicode="&#x417;" horiz-adv-x="934" d="M57 148l86 96q67 -66 146.5 -103.5t171.5 -37.5q59 0 108 16t83.5 45.5t54 71.5t19.5 94q0 56 -18 100.5t-52 75t-81 46.5t-105 16h-210v120h206q62 0 105 17t70.5 46t40.5 67.5t13 81.5q0 40 -13.5 76.5t-41.5 64t-73 44t-106 16.5q-90 0 -159 -26.5t-135 -79.5l-81 100 q76 60 166 94t209 34q98 0 167.5 -26.5t114 -70.5t65.5 -102.5t21 -122.5q0 -95 -46 -161t-143 -102q40 -11 79 -32t70.5 -56.5t51 -87.5t19.5 -125q0 -76 -27 -141t-78 -113t-125.5 -75t-168.5 -27q-113 0 -220 44.5t-184 122.5z" />
<glyph unicode="&#x418;" horiz-adv-x="1183" d="M158 0v1205h134v-981l599 981h135v-1205h-135v974l-599 -974h-134z" />
<glyph unicode="&#x419;" horiz-adv-x="1183" d="M158 0v1205h134v-981l599 981h135v-1205h-135v974l-599 -974h-134zM269 1504h113q7 -25 25.5 -46t45.5 -36t62.5 -23.5t76.5 -8.5t76.5 8.5t62.5 23.5t45.5 36t25.5 46h114q-6 -50 -32 -90.5t-68.5 -69.5t-99.5 -45.5t-124 -16.5t-123.5 16.5t-99 45.5t-68.5 69.5 t-32 90.5z" />
<glyph unicode="&#x41a;" horiz-adv-x="1104" d="M158 0v1205h134v-680l525 680h146l-352 -453l420 -752h-154l-355 642l-230 -296v-346h-134z" />
<glyph unicode="&#x41b;" horiz-adv-x="1116" d="M0 108q36 18 64.5 40.5t50 54t36 71.5t21.5 94l119 837h667v-1205h-134v1082h-417l-100 -719q-11 -77 -32.5 -137t-54.5 -106.5t-77 -81t-100 -57.5z" />
<glyph unicode="&#x41c;" horiz-adv-x="1355" d="M158 0v1205h150l370 -939l373 939h146v-1205h-129v919l-393 -950l-388 950v-919h-129z" />
<glyph unicode="&#x41d;" horiz-adv-x="1183" d="M158 0v1205h134v-515h599v515h135v-1205h-135v568h-599v-568h-134z" />
<glyph unicode="&#x41e;" horiz-adv-x="1212" d="M107 601q0 136 36 250t102 197t158 129t204 46t204 -46t157.5 -127.5t101.5 -195.5t36 -250t-36.5 -250.5t-102.5 -197.5t-158.5 -129t-204.5 -46q-113 0 -204.5 45.5t-156.5 128t-100.5 196.5t-35.5 250zM241 604q0 -113 28 -205.5t77.5 -158t116.5 -101.5t146 -36 q78 0 144.5 35t115 100t76 157t27.5 206q0 113 -28 205.5t-78 158t-117.5 101t-146.5 35.5q-78 0 -144.5 -35t-114 -100t-75 -157t-27.5 -205z" />
<glyph unicode="&#x41f;" horiz-adv-x="1183" d="M158 0v1205h868v-1205h-135v1082h-599v-1082h-134z" />
<glyph unicode="&#x420;" horiz-adv-x="1063" d="M158 0v1205h451q81 0 152 -22t122 -66.5t80.5 -112t29.5 -159.5q0 -90 -30 -159t-84 -116.5t-129 -72t-165 -24.5h-293v-473h-134zM292 596h294q140 0 206 61.5t66 181.5q0 75 -25 124.5t-63.5 74.5t-80 34.5t-85.5 9.5h-312v-486z" />
<glyph unicode="&#x421;" horiz-adv-x="1080" d="M107 601q0 134 36 248t101 197t155.5 130t199.5 47q124 0 218 -47t165 -145l-107 -82q-29 40 -58 68.5t-62 47.5t-72 27.5t-87 8.5q-78 0 -143 -36.5t-112 -102.5t-73.5 -157.5t-26.5 -200.5q0 -110 27 -202t75 -158.5t113 -103.5t141 -37q98 0 169 41.5t129 116.5 l93 -80q-33 -45 -74 -81.5t-90.5 -63t-107 -41t-122.5 -14.5q-74 0 -138.5 21.5t-119 60.5t-97 95t-72 125t-45 149t-15.5 169z" />
<glyph unicode="&#x422;" horiz-adv-x="1011" d="M84 1082v123h843v-123h-354v-1082h-135v1082h-354z" />
<glyph unicode="&#x423;" horiz-adv-x="1047" d="M50 1205h153l329 -697l328 697h146l-581 -1205h-141l179 349z" />
<glyph unicode="&#x424;" horiz-adv-x="1517" d="M105 602q0 149 46 256t125.5 175.5t186.5 101t228 32.5v87h135v-87q121 0 228 -32.5t186.5 -101t125.5 -175.5t46 -256q0 -148 -47.5 -255.5t-127.5 -176t-186.5 -100.5t-224.5 -32v-89h-135v89q-117 0 -223.5 32t-187 100.5t-128 176t-47.5 255.5zM239 602 q0 -99 26 -180.5t80.5 -140t140 -90t205.5 -31.5v884q-120 0 -205.5 -32t-140 -90t-80.5 -139.5t-26 -180.5zM826 160q120 0 205.5 31.5t140.5 90t80.5 140t25.5 180.5t-25.5 180.5t-80.5 139.5t-140.5 90t-205.5 32v-884z" />
<glyph unicode="&#x425;" horiz-adv-x="1086" d="M98 0l375 626l-344 579h152l264 -452l266 452h147l-344 -575l376 -630h-153l-294 501l-297 -501h-148z" />
<glyph unicode="&#x426;" horiz-adv-x="1183" d="M158 0v1205h134v-1083h599v1083h135v-1083h111v-382h-126l-11 260h-842z" />
<glyph unicode="&#x427;" horiz-adv-x="1150" d="M158 896v309h134v-309q0 -90 18 -151.5t54.5 -101.5t89 -57.5t114.5 -17.5q49 0 92 11t79.5 31t66 47.5t52.5 61.5v486h135v-1205h-135v568q-24 -27 -51 -47t-68.5 -38.5t-86 -28t-102.5 -9.5q-88 0 -160 26t-124 80.5t-80 140.5t-28 204z" />
<glyph unicode="&#x428;" horiz-adv-x="1623" d="M158 0v1205h134v-1083h453v1083h134v-1083h452v1083h135v-1205h-1308z" />
<glyph unicode="&#x429;" horiz-adv-x="1623" d="M158 0v1205h134v-1083h453v1083h134v-1083h452v1083h135v-1083h112v-382h-126l-12 260h-1282z" />
<glyph unicode="&#x42a;" horiz-adv-x="1209" d="M0 1082v123h402v-474h317q82 0 152.5 -22t121.5 -66.5t80.5 -112t29.5 -159.5q0 -90 -30 -158.5t-84 -116t-129 -72t-165 -24.5h-427v1082h-268zM402 122h294q140 0 206.5 62t66.5 182q0 118 -65 180.5t-190 62.5h-312v-487z" />
<glyph unicode="&#x42b;" horiz-adv-x="1485" d="M158 0v1205h134v-474h317q81 0 152 -22t122 -66.5t80.5 -112t29.5 -159.5q0 -90 -30 -158.5t-84 -116t-129 -72t-165 -24.5h-427zM292 122h294q140 0 206 62t66 182q0 118 -65 180.5t-189 62.5h-312v-487zM1194 0v1205h134v-1205h-134z" />
<glyph unicode="&#x42c;" horiz-adv-x="1099" d="M158 0v1205h134v-474h317q81 0 152 -22t122 -66.5t80.5 -112t29.5 -159.5q0 -90 -30 -158.5t-84 -116t-129 -72t-165 -24.5h-427zM292 122h294q140 0 206 62t66 182q0 118 -65 180.5t-189 62.5h-312v-487z" />
<glyph unicode="&#x42d;" horiz-adv-x="1080" d="M93 181l93 80q58 -75 129 -116.5t168 -41.5q73 0 136 34t110 95t75.5 147t32.5 189h-596v122h593q-9 92 -39 167.5t-75 130t-105 84t-129 29.5q-98 0 -161.5 -37t-119.5 -115l-107 82q38 51 80 87t92.5 60t104.5 34.5t114 10.5q111 0 200.5 -47t153 -130t97.5 -197 t34 -248q0 -105 -29.5 -224t-100.5 -214.5t-164.5 -138.5t-192.5 -43q-65 0 -122.5 14.5t-107 41t-90.5 63t-74 81.5z" />
<glyph unicode="&#x42e;" horiz-adv-x="1628" d="M158 0v1205h134v-515h235q11 118 51.5 216t105 168.5t151 109.5t189.5 39q112 0 204 -46t157.5 -127.5t101 -195.5t35.5 -250t-36 -250.5t-102.5 -197.5t-159 -129t-204.5 -46q-109 0 -198.5 43t-154.5 120.5t-102 185.5t-42 238h-231v-568h-134zM657 604 q0 -113 28 -205.5t77.5 -158t117 -101.5t146.5 -36q78 0 144 35t114.5 100t76.5 157t28 206q0 113 -29 205.5t-78.5 158t-117 101t-146.5 35.5q-78 0 -144 -35t-114.5 -100t-75.5 -157t-27 -205z" />
<glyph unicode="&#x42f;" horiz-adv-x="1109" d="M50 0l272 545q-95 38 -150 118.5t-55 200.5q0 87 27.5 151t76.5 106t115 63t144 21h472v-1205h-135v514h-364l-257 -514h-146zM251 858q0 -110 61 -166.5t189 -56.5h316v447h-334q-51 0 -94.5 -13t-74.5 -41.5t-47 -70.5t-16 -99z" />
<glyph unicode="&#x430;" horiz-adv-x="927" d="M89 270q0 76 29 130.5t77 90t110.5 52t129.5 16.5q69 0 127 -15t98 -37v107q0 102 -48 151t-147 49q-72 0 -131.5 -18.5t-115.5 -50.5l-47 105q59 32 136.5 52t165.5 20q73 0 132 -16t99.5 -51.5t63 -91t22.5 -133.5v-630h-130v110q-23 -26 -52 -49.5t-64 -41t-76 -28 t-89 -10.5q-53 0 -105 14t-93 48t-66.5 89.5t-25.5 137.5zM217 279q0 -51 13.5 -87.5t37 -60t58 -34.5t75.5 -11q43 0 81.5 10.5t71 29t59.5 43t47 53.5v182q-22 13 -45.5 22.5t-51 16t-60.5 10t-75 3.5q-100 0 -155.5 -45.5t-55.5 -131.5z" />
<glyph unicode="&#x431;" horiz-adv-x="944" d="M97 442v317q0 119 41 211.5t113 155.5t168.5 95.5t206.5 32.5q49 0 88.5 5.5t71.5 15.5v-117q-24 -6 -59 -11t-101 -5q-90 0 -164.5 -24t-127.5 -72.5t-82.5 -120.5t-29.5 -166q47 71 111.5 107.5t146.5 36.5q80 0 148 -29t117.5 -86t77 -142.5t27.5 -198.5t-30 -199.5 t-81 -146t-120.5 -90t-148.5 -30.5q-80 0 -148 29.5t-118 88t-78.5 144.5t-28.5 199zM225 444q0 -87 18 -152.5t51.5 -109.5t79 -66.5t101.5 -22.5q54 0 100 22.5t78.5 66.5t50.5 109.5t18 152.5t-18 152t-50.5 108.5t-78.5 65t-100 21.5q-56 0 -101.5 -21.5t-79 -65 t-51.5 -108.5t-18 -152z" />
<glyph unicode="&#x432;" horiz-adv-x="892" d="M143 0v903h425q54 0 98.5 -13.5t77 -41t50.5 -70t18 -100.5q0 -75 -38.5 -120.5t-98.5 -65.5q29 -7 58.5 -23t52.5 -42.5t37 -65.5t14 -95q0 -62 -16.5 -111t-53.5 -84t-92 -53t-132 -18h-400zM272 105h265q92 0 132 42t40 114q0 78 -48 121t-129 43h-260v-320zM272 530 h261q70 0 110 35.5t40 100.5q0 60 -35 96t-106 36h-270v-268z" />
<glyph unicode="&#x433;" horiz-adv-x="708" d="M143 0v903h559v-108h-430v-795h-129z" />
<glyph unicode="&#x434;" horiz-adv-x="891" d="M3 105h61q12 35 22.5 70.5t21 82.5t22 113t25.5 162l52 370h546v-798h84v-365h-121l-9 260h-573l-8 -260h-123v365zM187 105h437v693h-309l-38 -265q-13 -96 -24.5 -162t-21.5 -113t-20.5 -82.5t-23.5 -70.5z" />
<glyph unicode="&#x435;" horiz-adv-x="929" d="M95 456q0 108 28 194.5t77.5 147t118 92.5t149.5 32q88 0 156 -33t114 -92t69.5 -140.5t23.5 -178.5q0 -24 -1.5 -39.5t-3.5 -31.5h-603q5 -72 24 -130t51 -99t76.5 -63t100.5 -22q39 0 71.5 5.5t61.5 16.5t57 27t59 37l61 -93q-41 -26 -77.5 -46t-74 -33t-79.5 -19.5 t-93 -6.5q-41 0 -84.5 10.5t-84 34t-76.5 60.5t-63 89.5t-42.5 122.5t-15.5 158zM223 512h488q-5 66 -21 121t-46 94.5t-74.5 61.5t-103.5 22q-50 0 -92 -18.5t-73.5 -55.5t-51.5 -93t-26 -132z" />
<glyph unicode="&#x436;" horiz-adv-x="1323" d="M76 0l282 578l-241 325h148l332 -471v471l129 72v-543l332 471h145l-238 -320l286 -583h-140l-228 475l-157 -215v-260h-129v260l-160 215l-225 -475h-136z" />
<glyph unicode="&#x437;" horiz-adv-x="766" d="M43 97l75 94q53 -48 115.5 -73.5t127.5 -25.5q46 0 82.5 11t63 32t41.5 51.5t15 68.5q0 83 -52.5 126.5t-142.5 43.5h-160v108h157q46 0 78.5 11.5t53.5 31.5t30.5 45.5t9.5 54.5q0 27 -10 52t-31.5 43.5t-55 29.5t-80.5 11q-36 0 -64.5 -5t-54 -15t-49.5 -25t-49 -36 l-72 95q52 43 123.5 69.5t165.5 26.5q81 0 139 -19.5t95 -53t54.5 -77.5t17.5 -92q0 -38 -11 -68t-30 -54t-45.5 -42.5t-57.5 -32.5q29 -8 59.5 -25.5t54.5 -46.5t39.5 -69t15.5 -91q0 -57 -22 -106.5t-64.5 -86t-104 -57t-139.5 -20.5q-93 0 -173 32t-145 84z" />
<glyph unicode="&#x438;" horiz-adv-x="975" d="M143 0v903h129v-698l437 698h128v-903h-128v701l-437 -701h-129z" />
<glyph unicode="&#x439;" horiz-adv-x="975" d="M143 0v903h129v-698l437 698h128v-903h-128v701l-437 -701h-129zM200 1205h101q7 -23 23 -41t40 -32t55.5 -21.5t71.5 -7.5q39 0 70.5 7.5t55.5 21t40 31.5t23 42h102q-5 -45 -28.5 -81.5t-62 -63t-89.5 -41t-111 -14.5q-61 0 -112 14.5t-89 41t-61.5 63t-28.5 81.5z" />
<glyph unicode="&#x43a;" horiz-adv-x="868" d="M143 0v903l129 72v-544l332 472h144l-237 -320l285 -583h-139l-229 475l-156 -215v-260h-129z" />
<glyph unicode="&#x43b;" horiz-adv-x="915" d="M5 89q57 28 88 70t43 118l87 626h555v-903h-130v795h-313l-74 -523q-13 -102 -64.5 -176t-155.5 -115z" />
<glyph unicode="&#x43c;" horiz-adv-x="1123" d="M143 0v903h169l251 -638l256 638h167v-903h-129v687l-296 -711l-289 711v-687h-129z" />
<glyph unicode="&#x43d;" horiz-adv-x="975" d="M143 0v903h129v-370h437v370h128v-903h-128v425h-437v-425h-129z" />
<glyph unicode="&#x43e;" horiz-adv-x="973" d="M95 451q0 114 30.5 202.5t84.5 148t126 90t155 30.5q82 0 153 -29t123.5 -88t82 -146t29.5 -201q0 -115 -31 -204t-84 -149.5t-125.5 -92t-155.5 -31.5q-82 0 -153 30t-123 89.5t-82 147.5t-30 203zM225 454q0 -89 19 -156.5t53.5 -113t82.5 -68.5t107 -23t107.5 23 t82.5 68.5t53.5 113t19.5 156.5t-19.5 156t-53.5 111.5t-82.5 67t-107.5 22.5t-107 -22.5t-82.5 -67t-53.5 -111.5t-19 -156z" />
<glyph unicode="&#x43f;" horiz-adv-x="975" d="M143 0v903h694v-903h-128v795h-437v-795h-129z" />
<glyph unicode="&#x440;" horiz-adv-x="961" d="M143 -332v1235h129v-110q55 61 124 95t147 34q69 0 127.5 -26.5t102 -82t69 -142t25.5 -205.5q0 -120 -26.5 -210.5t-72.5 -152t-108.5 -92t-132.5 -30.5q-85 0 -146.5 33t-108.5 88v-362zM272 228q19 -28 44.5 -53t56 -43t66.5 -28.5t77 -10.5q113 0 168.5 94t55.5 278 q0 166 -60 256t-169 90q-70 0 -130.5 -35.5t-108.5 -95.5v-452z" />
<glyph unicode="&#x441;" horiz-adv-x="851" d="M95 447q0 125 34 215t89 148t124.5 85t140.5 27q92 0 162.5 -30t123.5 -76l-78 -97q-24 22 -48.5 39t-50 29t-54.5 18t-63 6q-53 0 -99 -23.5t-79 -68.5t-52.5 -111t-19.5 -150q0 -83 17.5 -150.5t50 -115.5t80 -73.5t107.5 -25.5q32 0 60.5 7t53 19t47.5 29.5t47 40.5 l77 -82q-28 -30 -59 -53t-66.5 -39.5t-76.5 -25t-88 -8.5q-74 0 -142.5 28.5t-121.5 86.5t-84.5 145.5t-31.5 205.5z" />
<glyph unicode="&#x442;" horiz-adv-x="748" d="M28 795v108h694v-108h-284v-795h-128v795h-282z" />
<glyph unicode="&#x443;" horiz-adv-x="913" d="M69 903h136l251 -748l253 748h136l-449 -1221h-130l125 328z" />
<glyph unicode="&#x444;" horiz-adv-x="1370" d="M97 466q0 119 22 205.5t60.5 142t90.5 82t112 26.5q66 0 125 -31t114 -98v389l129 72v-461q51 64 111 96.5t129 32.5q59 0 111 -26.5t91 -82t61 -142t22 -205.5q0 -120 -23.5 -210.5t-64.5 -152t-95.5 -92t-117.5 -30.5q-75 0 -128 33t-96 88v-362l-129 -72v434 q-42 -55 -95.5 -88t-128.5 -33q-63 0 -117.5 30.5t-95 92t-64 152t-23.5 210.5zM225 465q0 -184 46.5 -278t142.5 -94q63 0 117.5 37t89.5 98v452q-41 59 -91 95t-113 36q-44 0 -79.5 -21.5t-62 -67.5t-38.5 -109.5t-12 -147.5zM750 228q35 -61 89.5 -98t117.5 -37 q96 0 142.5 94t46.5 278q0 84 -12.5 147.5t-38.5 109.5t-61.5 67.5t-80.5 21.5q-63 0 -113 -36t-90 -95v-452z" />
<glyph unicode="&#x445;" horiz-adv-x="866" d="M87 0l279 466l-259 437h142l188 -329l189 329h134l-259 -433l279 -470h-143l-207 361l-208 -361h-135z" />
<glyph unicode="&#x446;" horiz-adv-x="975" d="M143 0v903h129v-795h437v795h128v-795h87v-368l-129 -72v332h-652z" />
<glyph unicode="&#x447;" horiz-adv-x="882" d="M92 668v235h128v-235q0 -57 10.5 -104t35 -78.5t60.5 -46t87 -14.5q70 0 120.5 29t82.5 76v373h129v-903h-129v417q-20 -25 -39.5 -41t-50.5 -32t-64.5 -23.5t-75.5 -7.5q-143 0 -218.5 90t-75.5 265z" />
<glyph unicode="&#x448;" horiz-adv-x="1459" d="M143 0v903h129v-795h396v795h128v-795h396v795h129v-903h-1178z" />
<glyph unicode="&#x449;" horiz-adv-x="1459" d="M143 0v903h129v-795h396v795h128v-795h396v795h129v-795h86v-368l-129 -72v332h-1135z" />
<glyph unicode="&#x44a;" horiz-adv-x="965" d="M0 798v105h344v-342h270q63 0 117 -16.5t94 -51t62.5 -86.5t22.5 -121t-23 -122.5t-64.5 -89.5t-99 -55t-126.5 -19h-382v798h-215zM344 105h241q100 0 148 45.5t48 131.5q0 83 -47.5 128.5t-136.5 45.5h-253v-351z" />
<glyph unicode="&#x44b;" horiz-adv-x="1273" d="M143 0v903h129v-342h270q63 0 117 -16.5t94 -51t62 -86.5t22 -121t-23 -122.5t-64 -89.5t-98.5 -55t-126.5 -19h-382zM272 105h240q100 0 148.5 45.5t48.5 131.5q0 83 -47.5 128.5t-136.5 45.5h-253v-351zM1001 0v903h130v-903h-130z" />
<glyph unicode="&#x44c;" horiz-adv-x="892" d="M143 0v903h129v-342h270q63 0 117 -16.5t94 -51t62 -86.5t22 -121t-23 -122.5t-64 -89.5t-98.5 -55t-126.5 -19h-382zM272 105h240q100 0 148.5 45.5t48.5 131.5q0 83 -47.5 128.5t-136.5 45.5h-253v-351z" />
<glyph unicode="&#x44d;" horiz-adv-x="851" d="M82 816q55 46 127.5 76t167.5 30q73 0 141.5 -27t121.5 -85t85 -148t32 -215q0 -118 -31.5 -205.5t-84.5 -145.5t-121.5 -86.5t-142.5 -28.5q-45 0 -86.5 8t-76.5 24.5t-66.5 39.5t-61.5 54l74 79q47 -46 96.5 -71.5t114.5 -25.5q110 0 178 85.5t77 250.5h-435v108h431 q-15 131 -82.5 206t-162.5 75q-69 0 -120 -23.5t-101 -68.5z" />
<glyph unicode="&#x44e;" horiz-adv-x="1324" d="M143 0v903h129v-370h177q11 95 45.5 168t86.5 122t118.5 74t141.5 25q83 0 154 -29t123 -88t82 -146t30 -201q0 -115 -31 -204t-84.5 -149.5t-126 -92t-154.5 -31.5q-81 0 -150.5 29t-121 84.5t-82.5 139t-35 191.5h-173v-425h-129zM576 454q0 -89 19 -156.5t53.5 -113 t82.5 -68.5t106 -23q59 0 108 23t83.5 68.5t53.5 113t19 156.5t-19 156t-53.5 111.5t-83.5 67t-108 22.5q-58 0 -106 -22.5t-82.5 -67t-53.5 -111.5t-19 -156z" />
<glyph unicode="&#x44f;" horiz-adv-x="927" d="M45 0l203 409q-71 27 -112 88t-41 150q0 65 20.5 113.5t57 80t86 47t107.5 15.5h424v-903h-130v386h-287l-191 -386h-137zM223 643q0 -75 43 -113.5t130 -38.5h264v307h-276q-77 0 -119 -40.5t-42 -114.5z" />
<glyph unicode="&#x450;" horiz-adv-x="929" d="M158 1300h184l177 -275h-102zM95 456q0 108 28 194.5t77.5 147t118 92.5t149.5 32q88 0 156 -33t114 -92t69.5 -140.5t23.5 -178.5q0 -24 -1.5 -39.5t-3.5 -31.5h-603q5 -72 24 -130t51 -99t76.5 -63t100.5 -22q39 0 71.5 5.5t61.5 16.5t57 27t59 37l61 -93 q-41 -26 -77.5 -46t-74 -33t-79.5 -19.5t-93 -6.5q-41 0 -84.5 10.5t-84 34t-76.5 60.5t-63 89.5t-42.5 122.5t-15.5 158zM223 512h488q-5 66 -21 121t-46 94.5t-74.5 61.5t-103.5 22q-50 0 -92 -18.5t-73.5 -55.5t-51.5 -93t-26 -132z" />
<glyph unicode="&#x451;" horiz-adv-x="929" d="M95 456q0 108 28 194.5t77.5 147t118 92.5t149.5 32q88 0 156 -33t114 -92t69.5 -140.5t23.5 -178.5q0 -24 -1.5 -39.5t-3.5 -31.5h-603q5 -72 24 -130t51 -99t76.5 -63t100.5 -22q39 0 71.5 5.5t61.5 16.5t57 27t59 37l61 -93q-41 -26 -77.5 -46t-74 -33t-79.5 -19.5 t-93 -6.5q-41 0 -84.5 10.5t-84 34t-76.5 60.5t-63 89.5t-42.5 122.5t-15.5 158zM223 512h488q-5 66 -21 121t-46 94.5t-74.5 61.5t-103.5 22q-50 0 -92 -18.5t-73.5 -55.5t-51.5 -93t-26 -132zM205 1125q0 20 7.5 37t20.5 30.5t30 21t38 7.5q18 0 35.5 -7.5t30 -21 t20 -30.5t7.5 -37q0 -19 -7.5 -36t-20 -30t-30 -21t-35.5 -8q-21 0 -38 8t-30 21t-20.5 30t-7.5 36zM538 1125q0 20 7.5 37t20.5 30.5t30.5 21t36.5 7.5q20 0 37 -7.5t29.5 -21t20 -30.5t7.5 -37q0 -19 -7.5 -36t-20 -30t-29.5 -21t-37 -8q-19 0 -36.5 8t-30.5 21t-20.5 30 t-7.5 36z" />
<glyph unicode="&#x452;" horiz-adv-x="975" d="M0 1008v103h143v71l129 72v-143h437v-103h-437v-271q39 57 101 92.5t149 35.5q71 0 129.5 -21.5t99.5 -66.5t63.5 -115.5t22.5 -167.5v-444q0 -144 -53 -237t-175 -145l-36 109q72 37 104 98.5t32 160.5v435q0 72 -12.5 125t-39 88t-67 52t-94.5 17q-47 0 -88 -16 t-71 -50t-47.5 -88t-17.5 -128v-471h-129v1008h-143z" />
<glyph unicode="&#x453;" horiz-adv-x="724" d="M143 0v903h559v-108h-430v-795h-129zM274 1024l177 275h184l-259 -275h-102z" />
<glyph unicode="&#x454;" horiz-adv-x="851" d="M95 447q0 125 34 215t89 148t124.5 85t140.5 27q46 0 87 -7.5t78 -23.5t63.5 -32t57.5 -43l-74 -94q-26 24 -47.5 39t-49.5 27.5t-57.5 19t-65.5 6.5q-97 0 -164 -75t-84 -206h433v-108h-437q8 -161 77.5 -248.5t179.5 -87.5q34 0 62.5 6.5t53 19.5t44.5 26.5t51 44.5 l74 -79q-28 -30 -59 -53t-66.5 -39.5t-76.5 -25t-88 -8.5q-74 0 -142.5 28.5t-121.5 86.5t-84.5 145.5t-31.5 205.5z" />
<glyph unicode="&#x455;" horiz-adv-x="803" d="M74 97l76 94q54 -48 116 -73.5t130 -25.5q93 0 137.5 36.5t44.5 101.5q0 28 -11 50.5t-35.5 44t-65.5 43t-101 47.5q-68 29 -116.5 55.5t-79.5 57.5t-46 70t-15 93q0 52 21 94.5t59 73t89.5 47t113.5 16.5q93 0 164.5 -26.5t124.5 -69.5l-73 -95q-58 45 -107 63t-118 18 q-71 0 -110.5 -31.5t-39.5 -79.5q0 -29 9.5 -50.5t32.5 -40.5t62 -39t96 -46q64 -29 114 -55t84.5 -58t53 -73.5t18.5 -102.5q0 -66 -26.5 -114.5t-70 -79.5t-99 -46t-114.5 -15q-94 0 -173.5 32t-144.5 84z" />
<glyph unicode="&#x456;" horiz-adv-x="431" d="M123 1156q0 19 8 36.5t20.5 30t29.5 19.5t37 7q18 0 34.5 -7t29 -19.5t19.5 -30t7 -36.5t-7 -35t-19.5 -29t-29 -20t-34.5 -7q-20 0 -37 7t-29.5 20t-20.5 29t-8 35zM151 0v903h130v-903h-130z" />
<glyph unicode="&#x457;" horiz-adv-x="431" d="M151 0v903h130v-903h-130zM-44 1117q0 20 7.5 37t20.5 30.5t30 21t38 7.5q18 0 35.5 -7.5t30 -21t20 -30.5t7.5 -37q0 -19 -7.5 -36t-20 -30t-30 -21t-35.5 -8q-21 0 -38 8t-30 21t-20.5 30t-7.5 36zM289 1117q0 20 7.5 37t20.5 30.5t30.5 21t36.5 7.5q20 0 37 -7.5 t29.5 -21t20 -30.5t7.5 -37q0 -19 -7.5 -36t-20 -30t-29.5 -21t-37 -8q-19 0 -36.5 8t-30.5 21t-20.5 30t-7.5 36z" />
<glyph unicode="&#x458;" horiz-adv-x="431" d="M-29 -236q61 18 97 38t54.5 48t23.5 69.5t5 103.5v880h130v-882q0 -77 -10 -134.5t-39 -99t-81 -70t-138 -49.5zM123 1156q0 19 8 36.5t20.5 30t29.5 19.5t37 7q18 0 34.5 -7t29 -19.5t19.5 -30t7 -36.5t-7 -35t-19.5 -29t-29 -20t-34.5 -7q-20 0 -37 7t-29.5 20 t-20.5 29t-8 35z" />
<glyph unicode="&#x459;" horiz-adv-x="1398" d="M0 89q57 28 88 70t43 118l87 626h544v-342h270q63 0 117.5 -16.5t94.5 -51t62 -86.5t22 -121t-23 -122.5t-64.5 -89.5t-99 -55t-126.5 -19h-382v795h-303l-74 -523q-13 -102 -64.5 -176t-155.5 -115zM762 105h241q100 0 148 45.5t48 131.5q0 83 -47 128.5t-137 45.5h-253 v-351z" />
<glyph unicode="&#x45a;" horiz-adv-x="1470" d="M143 0v903h129v-342h437v342h128v-342h271q63 0 117 -16.5t94 -51t62.5 -86.5t22.5 -121t-23.5 -122.5t-64.5 -89.5t-99 -55t-127 -19h-381v456h-437v-456h-129zM837 105h242q100 0 148 45.5t48 131.5q0 83 -47.5 128.5t-137.5 45.5h-253v-351z" />
<glyph unicode="&#x45b;" horiz-adv-x="975" d="M0 1008v103h143v71l129 72v-143h437v-103h-437v-271q39 57 101 92.5t149 35.5q71 0 129.5 -21.5t99.5 -66.5t63.5 -115.5t22.5 -167.5v-494h-128v471q0 67 -12 121.5t-38.5 90t-66.5 53t-96 17.5q-47 0 -88 -16t-71 -50t-47.5 -88t-17.5 -128v-471h-129v1008h-143z" />
<glyph unicode="&#x45c;" horiz-adv-x="868" d="M143 0v903l129 72v-544l332 472h144l-237 -320l285 -583h-139l-229 475l-156 -215v-260h-129zM325 1024l177 275h184l-259 -275h-102z" />
<glyph unicode="&#x45d;" horiz-adv-x="975" d="M180 1300h184l177 -275h-102zM143 0v903h129v-698l437 698h128v-903h-128v701l-437 -701h-129z" />
<glyph unicode="&#x45e;" horiz-adv-x="913" d="M69 903h136l251 -748l253 748h136l-449 -1221h-130l125 328zM166 1205h101q7 -23 23 -41t40 -32t55.5 -21.5t71.5 -7.5q39 0 70.5 7.5t55.5 21t40 31.5t23 42h102q-5 -45 -28.5 -81.5t-62 -63t-89.5 -41t-111 -14.5q-61 0 -112 14.5t-89 41t-61.5 63t-28.5 81.5z" />
<glyph unicode="&#x45f;" horiz-adv-x="975" d="M143 0v903h129v-795h437v795h128v-903h-281v-260l-129 -72v332h-284z" />
<glyph unicode="&#x470;" horiz-adv-x="1219" d="M103 734v471h135v-468q0 -146 79 -231t225 -93v792h134v-794q152 8 229 92t77 231v471h134v-468q0 -90 -26.5 -168t-81.5 -136t-137.5 -94t-194.5 -42v-297h-134v297q-112 5 -194.5 39.5t-136.5 93t-81 136.5t-27 168z" />
<glyph unicode="&#x471;" horiz-adv-x="1216" d="M128 411v492h128v-486q0 -156 74 -236.5t213 -88.5v1011l130 74v-1085q139 8 213 88.5t74 236.5v486h129v-485q0 -93 -24.5 -171.5t-75.5 -135.5t-129.5 -90t-186.5 -36v-245l-130 -72v317q-108 3 -186.5 35t-129.5 88t-75 133t-24 170z" />
<glyph unicode="&#x490;" horiz-adv-x="942" d="M158 0v1205h579v151l128 72v-346h-573v-1082h-134z" />
<glyph unicode="&#x491;" horiz-adv-x="771" d="M143 0v903h430v151l129 72v-331h-430v-795h-129z" />
<glyph unicode="&#x4ae;" horiz-adv-x="1121" d="M81 1205h153l328 -591l329 591h150l-413 -727v-478h-134v476z" />
<glyph unicode="&#x4c0;" horiz-adv-x="467" d="M167 0v1205h134v-1205h-134z" />
<glyph unicode="&#x4c1;" horiz-adv-x="1706" d="M561 1601h107q8 -94 54 -136.5t132 -42.5q80 0 127.5 43t56.5 136h105q-4 -65 -25 -116t-58 -86t-89.5 -54t-120.5 -19q-63 0 -114.5 19t-89.5 54t-59.5 86t-25.5 116zM77 0l417 747l-356 458h149l499 -651v651h135v-651l499 651h146l-353 -453l420 -752h-154l-356 642 l-202 -263v-379h-135v375l-206 267l-353 -642h-150z" />
<glyph unicode="&#x4c2;" horiz-adv-x="1323" d="M435 1353h107q8 -94 54 -136.5t132 -42.5q80 0 127.5 43t56.5 136h105q-4 -65 -25 -116t-58 -86t-89.5 -54t-120.5 -19q-63 0 -114.5 19t-89.5 54t-59.5 86t-25.5 116zM76 0l282 578l-241 325h148l332 -471v471l129 72v-543l332 471h145l-238 -320l286 -583h-140 l-228 475l-157 -215v-260h-129v260l-160 215l-225 -475h-136z" />
<glyph unicode="&#x4d0;" horiz-adv-x="1166" d="M292 1601h107q8 -94 54 -136.5t132 -42.5q80 0 127.5 43t56.5 136h105q-4 -65 -25 -116t-58 -86t-89.5 -54t-120.5 -19q-63 0 -114.5 19t-89.5 54t-59.5 86t-25.5 116zM92 0l417 1205h148l418 -1205h-141l-103 307h-498l-105 -307h-136zM375 428h415l-207 616z" />
<glyph unicode="&#x4d1;" horiz-adv-x="927" d="M182 1300h107q8 -94 54 -136.5t132 -42.5q80 0 127.5 43t56.5 136h105q-4 -65 -25 -116t-58 -86t-89.5 -54t-120.5 -19q-63 0 -114.5 19t-89.5 54t-59.5 86t-25.5 116zM89 270q0 76 29 130.5t77 90t110.5 52t129.5 16.5q69 0 127 -15t98 -37v107q0 102 -48 151t-147 49 q-72 0 -131.5 -18.5t-115.5 -50.5l-47 105q59 32 136.5 52t165.5 20q73 0 132 -16t99.5 -51.5t63 -91t22.5 -133.5v-630h-130v110q-23 -26 -52 -49.5t-64 -41t-76 -28t-89 -10.5q-53 0 -105 14t-93 48t-66.5 89.5t-25.5 137.5zM217 279q0 -51 13.5 -87.5t37 -60t58 -34.5 t75.5 -11q43 0 81.5 10.5t71 29t59.5 43t47 53.5v182q-22 13 -45.5 22.5t-51 16t-60.5 10t-75 3.5q-100 0 -155.5 -45.5t-55.5 -131.5z" />
<glyph unicode="&#x4d2;" horiz-adv-x="1166" d="M322 1420q0 20 7.5 37t20.5 30.5t30 21t38 7.5q18 0 35.5 -7.5t30 -21t20 -30.5t7.5 -37q0 -19 -7.5 -36t-20 -30t-30 -21t-35.5 -8q-21 0 -38 8t-30 21t-20.5 30t-7.5 36zM655 1420q0 20 7.5 37t20.5 30.5t30.5 21t36.5 7.5q20 0 37 -7.5t29.5 -21t20 -30.5t7.5 -37 q0 -19 -7.5 -36t-20 -30t-29.5 -21t-37 -8q-19 0 -36.5 8t-30.5 21t-20.5 30t-7.5 36zM92 0l417 1205h148l418 -1205h-141l-103 307h-498l-105 -307h-136zM375 428h415l-207 616z" />
<glyph unicode="&#x4d3;" horiz-adv-x="927" d="M212 1119q0 20 7.5 37t20.5 30.5t30 21t38 7.5q18 0 35.5 -7.5t30 -21t20 -30.5t7.5 -37q0 -19 -7.5 -36t-20 -30t-30 -21t-35.5 -8q-21 0 -38 8t-30 21t-20.5 30t-7.5 36zM545 1119q0 20 7.5 37t20.5 30.5t30.5 21t36.5 7.5q20 0 37 -7.5t29.5 -21t20 -30.5t7.5 -37 q0 -19 -7.5 -36t-20 -30t-29.5 -21t-37 -8q-19 0 -36.5 8t-30.5 21t-20.5 30t-7.5 36zM89 270q0 76 29 130.5t77 90t110.5 52t129.5 16.5q69 0 127 -15t98 -37v107q0 102 -48 151t-147 49q-72 0 -131.5 -18.5t-115.5 -50.5l-47 105q59 32 136.5 52t165.5 20q73 0 132 -16 t99.5 -51.5t63 -91t22.5 -133.5v-630h-130v110q-23 -26 -52 -49.5t-64 -41t-76 -28t-89 -10.5q-53 0 -105 14t-93 48t-66.5 89.5t-25.5 137.5zM217 279q0 -51 13.5 -87.5t37 -60t58 -34.5t75.5 -11q43 0 81.5 10.5t71 29t59.5 43t47 53.5v182q-22 13 -45.5 22.5t-51 16 t-60.5 10t-75 3.5q-100 0 -155.5 -45.5t-55.5 -131.5z" />
<glyph unicode="&#x4d4;" horiz-adv-x="1716" d="M41 0l809 1205h743v-123h-600v-378h483v-123h-483v-459h626v-122h-754v307h-469l-202 -307h-153zM475 428h390v593z" />
<glyph unicode="&#x4d5;" horiz-adv-x="1441" d="M89 270q0 76 27 130.5t73 90t106.5 52t127.5 16.5q68 0 120.5 -15t93.5 -37v107q0 102 -42.5 151t-141.5 49q-74 0 -131.5 -20.5t-103.5 -48.5l-47 105q59 32 130.5 52t159.5 20q120 0 184 -43.5t79 -119.5q40 78 107.5 120.5t161.5 42.5q88 0 154 -33t109 -92t65 -140.5 t22 -178.5q0 -24 -1 -39.5t-4 -31.5h-578q5 -72 22.5 -130t47 -99t72 -63t98.5 -22q39 0 69.5 5.5t57 16.5t53 27t57.5 37l60 -93q-40 -26 -75 -46t-70.5 -33t-75 -19.5t-90.5 -6.5q-79 0 -152.5 37t-126.5 120q-75 -88 -153.5 -122.5t-187.5 -34.5q-53 0 -103 14t-88.5 48 t-62 89.5t-23.5 137.5zM217 279q0 -101 45 -147t127 -46q31 0 65 7.5t69 25.5t69.5 47.5t67.5 72.5q-12 37 -18 78t-9 89q-21 11 -42 20.5t-46.5 16t-56.5 10t-71 3.5q-100 0 -150 -45.5t-50 -131.5zM760 512h463q-4 66 -18.5 121t-42 94.5t-70 61.5t-101.5 22 q-56 0 -97.5 -22t-69.5 -61.5t-43.5 -94.5t-20.5 -121z" />
<glyph unicode="&#x4d6;" horiz-adv-x="1009" d="M231 1601h107q8 -94 54 -136.5t132 -42.5q80 0 127.5 43t56.5 136h105q-4 -65 -25 -116t-58 -86t-89.5 -54t-120.5 -19q-63 0 -114.5 19t-89.5 54t-59.5 86t-25.5 116zM158 0v1205h728v-123h-594v-378h481v-123h-481v-459h619v-122h-753z" />
<glyph unicode="&#x4d7;" horiz-adv-x="929" d="M177 1300h107q8 -94 54 -136.5t132 -42.5q80 0 127.5 43t56.5 136h105q-4 -65 -25 -116t-58 -86t-89.5 -54t-120.5 -19q-63 0 -114.5 19t-89.5 54t-59.5 86t-25.5 116zM95 456q0 108 28 194.5t77.5 147t118 92.5t149.5 32q88 0 156 -33t114 -92t69.5 -140.5t23.5 -178.5 q0 -24 -1.5 -39.5t-3.5 -31.5h-603q5 -72 24 -130t51 -99t76.5 -63t100.5 -22q39 0 71.5 5.5t61.5 16.5t57 27t59 37l61 -93q-41 -26 -77.5 -46t-74 -33t-79.5 -19.5t-93 -6.5q-41 0 -84.5 10.5t-84 34t-76.5 60.5t-63 89.5t-42.5 122.5t-15.5 158zM223 512h488 q-5 66 -21 121t-46 94.5t-74.5 61.5t-103.5 22q-50 0 -92 -18.5t-73.5 -55.5t-51.5 -93t-26 -132z" />
<glyph unicode="&#x4dc;" horiz-adv-x="1706" d="M591 1420q0 20 7.5 37t20.5 30.5t30 21t38 7.5q18 0 35.5 -7.5t30 -21t20 -30.5t7.5 -37q0 -19 -7.5 -36t-20 -30t-30 -21t-35.5 -8q-21 0 -38 8t-30 21t-20.5 30t-7.5 36zM924 1420q0 20 7.5 37t20.5 30.5t30.5 21t36.5 7.5q20 0 37 -7.5t29.5 -21t20 -30.5t7.5 -37 q0 -19 -7.5 -36t-20 -30t-29.5 -21t-37 -8q-19 0 -36.5 8t-30.5 21t-20.5 30t-7.5 36zM77 0l417 747l-356 458h149l499 -651v651h135v-651l499 651h146l-353 -453l420 -752h-154l-356 642l-202 -263v-379h-135v375l-206 267l-353 -642h-150z" />
<glyph unicode="&#x4dd;" horiz-adv-x="1323" d="M465 1172q0 20 7.5 37t20.5 30.5t30 21t38 7.5q18 0 35.5 -7.5t30 -21t20 -30.5t7.5 -37q0 -19 -7.5 -36t-20 -30t-30 -21t-35.5 -8q-21 0 -38 8t-30 21t-20.5 30t-7.5 36zM798 1172q0 20 7.5 37t20.5 30.5t30.5 21t36.5 7.5q20 0 37 -7.5t29.5 -21t20 -30.5t7.5 -37 q0 -19 -7.5 -36t-20 -30t-29.5 -21t-37 -8q-19 0 -36.5 8t-30.5 21t-20.5 30t-7.5 36zM76 0l282 578l-241 325h148l332 -471v471l129 72v-543l332 471h145l-238 -320l286 -583h-140l-228 475l-157 -215v-260h-129v260l-160 215l-225 -475h-136z" />
<glyph unicode="&#x4de;" horiz-adv-x="934" d="M200 1420q0 20 7.5 37t20.5 30.5t30 21t38 7.5q18 0 35.5 -7.5t30 -21t20 -30.5t7.5 -37q0 -19 -7.5 -36t-20 -30t-30 -21t-35.5 -8q-21 0 -38 8t-30 21t-20.5 30t-7.5 36zM533 1420q0 20 7.5 37t20.5 30.5t30.5 21t36.5 7.5q20 0 37 -7.5t29.5 -21t20 -30.5t7.5 -37 q0 -19 -7.5 -36t-20 -30t-29.5 -21t-37 -8q-19 0 -36.5 8t-30.5 21t-20.5 30t-7.5 36zM57 148l86 96q67 -66 146.5 -103.5t171.5 -37.5q59 0 108 16t83.5 45.5t54 71.5t19.5 94q0 56 -18 100.5t-52 75t-81 46.5t-105 16h-210v120h206q62 0 105 17t70.5 46t40.5 67.5t13 81.5 q0 40 -13.5 76.5t-41.5 64t-73 44t-106 16.5q-90 0 -159 -26.5t-135 -79.5l-81 100q76 60 166 94t209 34q98 0 167.5 -26.5t114 -70.5t65.5 -102.5t21 -122.5q0 -95 -46 -161t-143 -102q40 -11 79 -32t70.5 -56.5t51 -87.5t19.5 -125q0 -76 -27 -141t-78 -113t-125.5 -75 t-168.5 -27q-113 0 -220 44.5t-184 122.5z" />
<glyph unicode="&#x4df;" horiz-adv-x="766" d="M98 1119q0 20 7.5 37t20.5 30.5t30 21t38 7.5q18 0 35.5 -7.5t30 -21t20 -30.5t7.5 -37q0 -19 -7.5 -36t-20 -30t-30 -21t-35.5 -8q-21 0 -38 8t-30 21t-20.5 30t-7.5 36zM431 1119q0 20 7.5 37t20.5 30.5t30.5 21t36.5 7.5q20 0 37 -7.5t29.5 -21t20 -30.5t7.5 -37 q0 -19 -7.5 -36t-20 -30t-29.5 -21t-37 -8q-19 0 -36.5 8t-30.5 21t-20.5 30t-7.5 36zM43 97l75 94q53 -48 115.5 -73.5t127.5 -25.5q46 0 82.5 11t63 32t41.5 51.5t15 68.5q0 83 -52.5 126.5t-142.5 43.5h-160v108h157q46 0 78.5 11.5t53.5 31.5t30.5 45.5t9.5 54.5 q0 27 -10 52t-31.5 43.5t-55 29.5t-80.5 11q-36 0 -64.5 -5t-54 -15t-49.5 -25t-49 -36l-72 95q52 43 123.5 69.5t165.5 26.5q81 0 139 -19.5t95 -53t54.5 -77.5t17.5 -92q0 -38 -11 -68t-30 -54t-45.5 -42.5t-57.5 -32.5q29 -8 59.5 -25.5t54.5 -46.5t39.5 -69t15.5 -91 q0 -57 -22 -106.5t-64.5 -86t-104 -57t-139.5 -20.5q-93 0 -173 32t-145 84z" />
<glyph unicode="&#x4e2;" horiz-adv-x="1183" d="M357 1325v121h468v-121h-468zM158 0v1205h134v-981l599 981h135v-1205h-135v974l-599 -974h-134z" />
<glyph unicode="&#x4e3;" horiz-adv-x="975" d="M256 1024v121h468v-121h-468zM143 0v903h129v-698l437 698h128v-903h-128v701l-437 -701h-129z" />
<glyph unicode="&#x4e4;" horiz-adv-x="1183" d="M330 1420q0 20 7.5 37t20.5 30.5t30 21t38 7.5q18 0 35.5 -7.5t30 -21t20 -30.5t7.5 -37q0 -19 -7.5 -36t-20 -30t-30 -21t-35.5 -8q-21 0 -38 8t-30 21t-20.5 30t-7.5 36zM663 1420q0 20 7.5 37t20.5 30.5t30.5 21t36.5 7.5q20 0 37 -7.5t29.5 -21t20 -30.5t7.5 -37 q0 -19 -7.5 -36t-20 -30t-29.5 -21t-37 -8q-19 0 -36.5 8t-30.5 21t-20.5 30t-7.5 36zM158 0v1205h134v-981l599 981h135v-1205h-135v974l-599 -974h-134z" />
<glyph unicode="&#x4e5;" horiz-adv-x="975" d="M229 1119q0 20 7.5 37t20.5 30.5t30 21t38 7.5q18 0 35.5 -7.5t30 -21t20 -30.5t7.5 -37q0 -19 -7.5 -36t-20 -30t-30 -21t-35.5 -8q-21 0 -38 8t-30 21t-20.5 30t-7.5 36zM562 1119q0 20 7.5 37t20.5 30.5t30.5 21t36.5 7.5q20 0 37 -7.5t29.5 -21t20 -30.5t7.5 -37 q0 -19 -7.5 -36t-20 -30t-29.5 -21t-37 -8q-19 0 -36.5 8t-30.5 21t-20.5 30t-7.5 36zM143 0v903h129v-698l437 698h128v-903h-128v701l-437 -701h-129z" />
<glyph unicode="&#x4e6;" horiz-adv-x="1212" d="M346 1420q0 20 7.5 37t20.5 30.5t30 21t38 7.5q18 0 35.5 -7.5t30 -21t20 -30.5t7.5 -37q0 -19 -7.5 -36t-20 -30t-30 -21t-35.5 -8q-21 0 -38 8t-30 21t-20.5 30t-7.5 36zM679 1420q0 20 7.5 37t20.5 30.5t30.5 21t36.5 7.5q20 0 37 -7.5t29.5 -21t20 -30.5t7.5 -37 q0 -19 -7.5 -36t-20 -30t-29.5 -21t-37 -8q-19 0 -36.5 8t-30.5 21t-20.5 30t-7.5 36zM107 601q0 136 36 250t102 197t158 129t204 46t204 -46t157.5 -127.5t101.5 -195.5t36 -250t-36.5 -250.5t-102.5 -197.5t-158.5 -129t-204.5 -46q-113 0 -204.5 45.5t-156.5 128 t-100.5 196.5t-35.5 250zM241 604q0 -113 28 -205.5t77.5 -158t116.5 -101.5t146 -36q78 0 144.5 35t115 100t76 157t27.5 206q0 113 -28 205.5t-78 158t-117.5 101t-146.5 35.5q-78 0 -144.5 -35t-114 -100t-75 -157t-27.5 -205z" />
<glyph unicode="&#x4e7;" horiz-adv-x="973" d="M229 1119q0 20 7.5 37t20.5 30.5t30 21t38 7.5q18 0 35.5 -7.5t30 -21t20 -30.5t7.5 -37q0 -19 -7.5 -36t-20 -30t-30 -21t-35.5 -8q-21 0 -38 8t-30 21t-20.5 30t-7.5 36zM562 1119q0 20 7.5 37t20.5 30.5t30.5 21t36.5 7.5q20 0 37 -7.5t29.5 -21t20 -30.5t7.5 -37 q0 -19 -7.5 -36t-20 -30t-29.5 -21t-37 -8q-19 0 -36.5 8t-30.5 21t-20.5 30t-7.5 36zM95 451q0 114 30.5 202.5t84.5 148t126 90t155 30.5q82 0 153 -29t123.5 -88t82 -146t29.5 -201q0 -115 -31 -204t-84 -149.5t-125.5 -92t-155.5 -31.5q-82 0 -153 30t-123 89.5 t-82 147.5t-30 203zM225 454q0 -89 19 -156.5t53.5 -113t82.5 -68.5t107 -23t107.5 23t82.5 68.5t53.5 113t19.5 156.5t-19.5 156t-53.5 111.5t-82.5 67t-107.5 22.5t-107 -22.5t-82.5 -67t-53.5 -111.5t-19 -156z" />
<glyph unicode="&#x4e8;" horiz-adv-x="1233" d="M103 601q0 136 36.5 250t103.5 197t162 129t212 46q119 0 214 -46.5t161.5 -129.5t102.5 -197.5t36 -250.5t-36.5 -250t-104.5 -196t-163 -127t-213 -45t-212.5 45.5t-160.5 128t-102 196.5t-36 250zM238 604q0 -113 27.5 -205.5t78 -158t120.5 -101.5t155 -36 q84 0 153.5 35t119.5 100t77 157t27 206q0 111 -28 203t-79 158t-121.5 102.5t-155.5 36.5q-84 0 -153 -35t-118.5 -100t-76 -157t-26.5 -205zM407 568v122h419v-122h-419z" />
<glyph unicode="&#x4e9;" horiz-adv-x="987" d="M120 614q0 134 19.5 250.5t63 202t115 134t176.5 48.5q106 0 177.5 -48.5t115 -134t62 -202t18.5 -250.5q0 -135 -18.5 -250.5t-62 -201t-115 -133.5t-177.5 -48q-105 0 -176.5 48t-115 133.5t-63 201t-19.5 250.5zM251 573q4 -98 16 -184.5t39 -152t73 -104.5t117 -39 q73 0 118 39t71.5 104.5t38 152.5t14.5 184h-487zM253 681h484q-5 93 -17.5 176.5t-39 145.5t-71.5 98t-115 36t-114.5 -36t-71.5 -98t-39 -145.5t-16 -176.5z" />
<glyph unicode="&#x4ea;" horiz-adv-x="1233" d="M356 1420q0 20 7.5 37t20.5 30.5t30 21t38 7.5q18 0 35.5 -7.5t30 -21t20 -30.5t7.5 -37q0 -19 -7.5 -36t-20 -30t-30 -21t-35.5 -8q-21 0 -38 8t-30 21t-20.5 30t-7.5 36zM689 1420q0 20 7.5 37t20.5 30.5t30.5 21t36.5 7.5q20 0 37 -7.5t29.5 -21t20 -30.5t7.5 -37 q0 -19 -7.5 -36t-20 -30t-29.5 -21t-37 -8q-19 0 -36.5 8t-30.5 21t-20.5 30t-7.5 36zM103 601q0 136 36.5 250t103.5 197t162 129t212 46q119 0 214 -46.5t161.5 -129.5t102.5 -197.5t36 -250.5t-36.5 -250t-104.5 -196t-163 -127t-213 -45t-212.5 45.5t-160.5 128 t-102 196.5t-36 250zM238 604q0 -113 27.5 -205.5t78 -158t120.5 -101.5t155 -36q84 0 153.5 35t119.5 100t77 157t27 206q0 111 -28 203t-79 158t-121.5 102.5t-155.5 36.5q-84 0 -153 -35t-118.5 -100t-76 -157t-26.5 -205zM407 568v122h419v-122h-419z" />
<glyph unicode="&#x4eb;" horiz-adv-x="987" d="M233 1446q0 20 7.5 37t20.5 30.5t30 21t38 7.5q18 0 35.5 -7.5t30 -21t20 -30.5t7.5 -37q0 -19 -7.5 -36t-20 -30t-30 -21t-35.5 -8q-21 0 -38 8t-30 21t-20.5 30t-7.5 36zM566 1446q0 20 7.5 37t20.5 30.5t30.5 21t36.5 7.5q20 0 37 -7.5t29.5 -21t20 -30.5t7.5 -37 q0 -19 -7.5 -36t-20 -30t-29.5 -21t-37 -8q-19 0 -36.5 8t-30.5 21t-20.5 30t-7.5 36zM120 614q0 134 19.5 250.5t63 202t115 134t176.5 48.5q106 0 177.5 -48.5t115 -134t62 -202t18.5 -250.5q0 -135 -18.5 -250.5t-62 -201t-115 -133.5t-177.5 -48q-105 0 -176.5 48 t-115 133.5t-63 201t-19.5 250.5zM251 573q4 -98 16 -184.5t39 -152t73 -104.5t117 -39q73 0 118 39t71.5 104.5t38 152.5t14.5 184h-487zM253 681h484q-5 93 -17.5 176.5t-39 145.5t-71.5 98t-115 36t-114.5 -36t-71.5 -98t-39 -145.5t-16 -176.5z" />
<glyph unicode="&#x4ec;" horiz-adv-x="1080" d="M228 1420q0 20 7.5 37t20.5 30.5t30 21t38 7.5q18 0 35.5 -7.5t30 -21t20 -30.5t7.5 -37q0 -19 -7.5 -36t-20 -30t-30 -21t-35.5 -8q-21 0 -38 8t-30 21t-20.5 30t-7.5 36zM561 1420q0 20 7.5 37t20.5 30.5t30.5 21t36.5 7.5q20 0 37 -7.5t29.5 -21t20 -30.5t7.5 -37 q0 -19 -7.5 -36t-20 -30t-29.5 -21t-37 -8q-19 0 -36.5 8t-30.5 21t-20.5 30t-7.5 36zM93 181l93 80q58 -75 129 -116.5t168 -41.5q73 0 136 34t110 95t75.5 147t32.5 189h-596v122h593q-9 92 -39 167.5t-75 130t-105 84t-129 29.5q-98 0 -161.5 -37t-119.5 -115l-107 82 q38 51 80 87t92.5 60t104.5 34.5t114 10.5q111 0 200.5 -47t153 -130t97.5 -197t34 -248q0 -105 -29.5 -224t-100.5 -214.5t-164.5 -138.5t-192.5 -43q-65 0 -122.5 14.5t-107 41t-90.5 63t-74 81.5z" />
<glyph unicode="&#x4ed;" horiz-adv-x="851" d="M116 1119q0 20 7.5 37t20.5 30.5t30 21t38 7.5q18 0 35.5 -7.5t30 -21t20 -30.5t7.5 -37q0 -19 -7.5 -36t-20 -30t-30 -21t-35.5 -8q-21 0 -38 8t-30 21t-20.5 30t-7.5 36zM449 1119q0 20 7.5 37t20.5 30.5t30.5 21t36.5 7.5q20 0 37 -7.5t29.5 -21t20 -30.5t7.5 -37 q0 -19 -7.5 -36t-20 -30t-29.5 -21t-37 -8q-19 0 -36.5 8t-30.5 21t-20.5 30t-7.5 36zM82 816q55 46 127.5 76t167.5 30q73 0 141.5 -27t121.5 -85t85 -148t32 -215q0 -118 -31.5 -205.5t-84.5 -145.5t-121.5 -86.5t-142.5 -28.5q-45 0 -86.5 8t-76.5 24.5t-66.5 39.5 t-61.5 54l74 79q47 -46 96.5 -71.5t114.5 -25.5q110 0 178 85.5t77 250.5h-435v108h431q-15 131 -82.5 206t-162.5 75q-69 0 -120 -23.5t-101 -68.5z" />
<glyph unicode="&#x4ee;" horiz-adv-x="1047" d="M293 1325v121h468v-121h-468zM50 1205h153l329 -697l328 697h146l-581 -1205h-141l179 349z" />
<glyph unicode="&#x4ef;" horiz-adv-x="913" d="M223 1024v121h468v-121h-468zM69 903h136l251 -748l253 748h136l-449 -1221h-130l125 328z" />
<glyph unicode="&#x4f0;" horiz-adv-x="1047" d="M266 1420q0 20 7.5 37t20.5 30.5t30 21t38 7.5q18 0 35.5 -7.5t30 -21t20 -30.5t7.5 -37q0 -19 -7.5 -36t-20 -30t-30 -21t-35.5 -8q-21 0 -38 8t-30 21t-20.5 30t-7.5 36zM599 1420q0 20 7.5 37t20.5 30.5t30.5 21t36.5 7.5q20 0 37 -7.5t29.5 -21t20 -30.5t7.5 -37 q0 -19 -7.5 -36t-20 -30t-29.5 -21t-37 -8q-19 0 -36.5 8t-30.5 21t-20.5 30t-7.5 36zM50 1205h153l329 -697l328 697h146l-581 -1205h-141l179 349z" />
<glyph unicode="&#x4f1;" horiz-adv-x="913" d="M196 1119q0 20 7.5 37t20.5 30.5t30 21t38 7.5q18 0 35.5 -7.5t30 -21t20 -30.5t7.5 -37q0 -19 -7.5 -36t-20 -30t-30 -21t-35.5 -8q-21 0 -38 8t-30 21t-20.5 30t-7.5 36zM529 1119q0 20 7.5 37t20.5 30.5t30.5 21t36.5 7.5q20 0 37 -7.5t29.5 -21t20 -30.5t7.5 -37 q0 -19 -7.5 -36t-20 -30t-29.5 -21t-37 -8q-19 0 -36.5 8t-30.5 21t-20.5 30t-7.5 36zM69 903h136l251 -748l253 748h136l-449 -1221h-130l125 328z" />
<glyph unicode="&#x4f2;" horiz-adv-x="1047" d="M328 1326l159 275h172l-236 -275h-95zM632 1326l160 275h172l-236 -275h-96zM50 1205h153l329 -697l328 697h146l-581 -1205h-141l179 349z" />
<glyph unicode="&#x4f3;" horiz-adv-x="913" d="M257 1025l159 275h172l-236 -275h-95zM561 1025l160 275h172l-236 -275h-96zM69 903h136l251 -748l253 748h136l-449 -1221h-130l125 328z" />
<glyph unicode="&#x4f4;" horiz-adv-x="1150" d="M314 1420q0 20 7.5 37t20.5 30.5t30 21t38 7.5q18 0 35.5 -7.5t30 -21t20 -30.5t7.5 -37q0 -19 -7.5 -36t-20 -30t-30 -21t-35.5 -8q-21 0 -38 8t-30 21t-20.5 30t-7.5 36zM647 1420q0 20 7.5 37t20.5 30.5t30.5 21t36.5 7.5q20 0 37 -7.5t29.5 -21t20 -30.5t7.5 -37 q0 -19 -7.5 -36t-20 -30t-29.5 -21t-37 -8q-19 0 -36.5 8t-30.5 21t-20.5 30t-7.5 36zM158 896v309h134v-309q0 -90 18 -151.5t54.5 -101.5t89 -57.5t114.5 -17.5q49 0 92 11t79.5 31t66 47.5t52.5 61.5v486h135v-1205h-135v568q-24 -27 -51 -47t-68.5 -38.5t-86 -28 t-102.5 -9.5q-88 0 -160 26t-124 80.5t-80 140.5t-28 204z" />
<glyph unicode="&#x4f5;" horiz-adv-x="882" d="M157 1119q0 20 7.5 37t20.5 30.5t30 21t38 7.5q18 0 35.5 -7.5t30 -21t20 -30.5t7.5 -37q0 -19 -7.5 -36t-20 -30t-30 -21t-35.5 -8q-21 0 -38 8t-30 21t-20.5 30t-7.5 36zM490 1119q0 20 7.5 37t20.5 30.5t30.5 21t36.5 7.5q20 0 37 -7.5t29.5 -21t20 -30.5t7.5 -37 q0 -19 -7.5 -36t-20 -30t-29.5 -21t-37 -8q-19 0 -36.5 8t-30.5 21t-20.5 30t-7.5 36zM92 668v235h128v-235q0 -57 10.5 -104t35 -78.5t60.5 -46t87 -14.5q70 0 120.5 29t82.5 76v373h129v-903h-129v417q-20 -25 -39.5 -41t-50.5 -32t-64.5 -23.5t-75.5 -7.5 q-143 0 -218.5 90t-75.5 265z" />
<glyph unicode="&#x4f8;" horiz-adv-x="1485" d="M481 1420q0 20 7.5 37t20.5 30.5t30 21t38 7.5q18 0 35.5 -7.5t30 -21t20 -30.5t7.5 -37q0 -19 -7.5 -36t-20 -30t-30 -21t-35.5 -8q-21 0 -38 8t-30 21t-20.5 30t-7.5 36zM814 1420q0 20 7.5 37t20.5 30.5t30.5 21t36.5 7.5q20 0 37 -7.5t29.5 -21t20 -30.5t7.5 -37 q0 -19 -7.5 -36t-20 -30t-29.5 -21t-37 -8q-19 0 -36.5 8t-30.5 21t-20.5 30t-7.5 36zM158 0v1205h134v-474h317q81 0 152 -22t122 -66.5t80.5 -112t29.5 -159.5q0 -90 -30 -158.5t-84 -116t-129 -72t-165 -24.5h-427zM292 122h294q140 0 206 62t66 182q0 118 -65 180.5 t-189 62.5h-312v-487zM1194 0v1205h134v-1205h-134z" />
<glyph unicode="&#x4f9;" horiz-adv-x="1273" d="M376 1119q0 20 7.5 37t20.5 30.5t30 21t38 7.5q18 0 35.5 -7.5t30 -21t20 -30.5t7.5 -37q0 -19 -7.5 -36t-20 -30t-30 -21t-35.5 -8q-21 0 -38 8t-30 21t-20.5 30t-7.5 36zM709 1119q0 20 7.5 37t20.5 30.5t30.5 21t36.5 7.5q20 0 37 -7.5t29.5 -21t20 -30.5t7.5 -37 q0 -19 -7.5 -36t-20 -30t-29.5 -21t-37 -8q-19 0 -36.5 8t-30.5 21t-20.5 30t-7.5 36zM143 0v903h129v-342h270q63 0 117 -16.5t94 -51t62 -86.5t22 -121t-23 -122.5t-64 -89.5t-98.5 -55t-126.5 -19h-382zM272 105h240q100 0 148.5 45.5t48.5 131.5q0 83 -47.5 128.5 t-136.5 45.5h-253v-351zM1001 0v903h130v-903h-130z" />
<glyph unicode="&#x2000;" horiz-adv-x="825" />
<glyph unicode="&#x2001;" horiz-adv-x="1650" />
<glyph unicode="&#x2002;" horiz-adv-x="825" />
<glyph unicode="&#x2003;" horiz-adv-x="1650" />
<glyph unicode="&#x2004;" horiz-adv-x="550" />
<glyph unicode="&#x2005;" horiz-adv-x="412" />
<glyph unicode="&#x2006;" horiz-adv-x="275" />
<glyph unicode="&#x2007;" horiz-adv-x="275" />
<glyph unicode="&#x2008;" horiz-adv-x="206" />
<glyph unicode="&#x2009;" horiz-adv-x="330" />
<glyph unicode="&#x200a;" horiz-adv-x="91" />
<glyph unicode="&#x2010;" horiz-adv-x="553" d="M87 566v125h379v-125h-379z" />
<glyph unicode="&#x2011;" horiz-adv-x="553" d="M87 566v125h379v-125h-379z" />
<glyph unicode="&#x2012;" horiz-adv-x="553" d="M87 566v125h379v-125h-379z" />
<glyph unicode="&#x2013;" horiz-adv-x="725" d="M87 568v122h551v-122h-551z" />
<glyph unicode="&#x2014;" horiz-adv-x="997" d="M87 568v122h823v-122h-823z" />
<glyph unicode="&#x2018;" horiz-adv-x="433" d="M103 821l112 384h89l-25 -384h-176z" />
<glyph unicode="&#x2019;" horiz-adv-x="433" d="M129 821l26 384h175l-112 -384h-89z" />
<glyph unicode="&#x201a;" horiz-adv-x="433" d="M129 -186l26 384h175l-112 -384h-89z" />
<glyph unicode="&#x201c;" horiz-adv-x="807" d="M103 821l112 384h89l-25 -384h-176zM476 821l112 384h90l-26 -384h-176z" />
<glyph unicode="&#x201d;" horiz-adv-x="807" d="M129 821l26 384h175l-112 -384h-89zM502 821l26 384h176l-112 -384h-90z" />
<glyph unicode="&#x201e;" horiz-adv-x="807" d="M129 -186l26 384h175l-112 -384h-89zM502 -186l26 384h176l-112 -384h-90z" />
<glyph unicode="&#x2022;" horiz-adv-x="643" d="M138 630q0 38 14 72t39.5 59.5t59 40.5t71.5 15t71.5 -15t58.5 -40.5t39.5 -59.5t14.5 -72t-14.5 -71.5t-39.5 -58.5t-58.5 -40t-71.5 -15t-71.5 15t-59 40t-39.5 58.5t-14 71.5z" />
<glyph unicode="&#x2026;" horiz-adv-x="1239" d="M97 92q0 22 8.5 42.5t23.5 36t35 25t43 9.5q21 0 41 -9.5t35 -25t24.5 -36t9.5 -42.5q0 -23 -9.5 -43t-24.5 -35.5t-35 -24t-41 -8.5q-23 0 -43 8.5t-35 24t-23.5 35.5t-8.5 43zM509 92q0 22 9 42.5t24 36t34.5 25t42.5 9.5q22 0 42 -9.5t35 -25t24 -36t9 -42.5 q0 -23 -9 -43t-24 -35.5t-35 -24t-42 -8.5q-23 0 -42.5 8.5t-34.5 24t-24 35.5t-9 43zM922 92q0 22 9 42.5t23.5 36t35 25t42.5 9.5t42 -9.5t35 -25t24 -36t9 -42.5q0 -23 -9 -43t-24 -35.5t-35 -24t-42 -8.5t-42.5 8.5t-35 24t-23.5 35.5t-9 43z" />
<glyph unicode="&#x202f;" horiz-adv-x="330" />
<glyph unicode="&#x2039;" horiz-adv-x="624" d="M51 451l350 452h146l-349 -450l349 -453h-146z" />
<glyph unicode="&#x203a;" horiz-adv-x="624" d="M77 0l350 451l-350 452h146l350 -450l-350 -453h-146z" />
<glyph unicode="&#x205f;" horiz-adv-x="412" />
<glyph unicode="&#x20ac;" d="M71 430v107h121q-1 16 -1 70.5t1 75.5h-121v107h134q38 217 146 325t266 108q62 0 109.5 -12.5t86 -38t70.5 -65t63 -91.5l-101 -68q-27 43 -50 74t-48.5 49t-57.5 26.5t-75 8.5q-50 0 -94.5 -17.5t-81 -55.5t-63.5 -98.5t-42 -144.5h419v-107h-430q-2 -19 -2 -39v-40 v-35q0 -16 2 -32h430v-107h-420q15 -106 48 -171t74 -100.5t84 -48t79 -12.5q44 0 77 10t60.5 29.5t52.5 50t51 70.5l94 -66q-31 -48 -64.5 -87t-73 -66.5t-89 -42.5t-113.5 -15q-83 0 -152 29.5t-121 87t-86.5 141.5t-49.5 191h-132z" />
<glyph unicode="&#x2122;" horiz-adv-x="1311" d="M38 1132v73h481v-73h-199v-615h-82v615h-200zM640 517v688h89l208 -527l209 527h87v-688h-77v514l-222 -532l-217 535v-517h-77z" />
<glyph unicode="&#xe000;" horiz-adv-x="905" d="M0 905h905v-905h-905v905z" />
<glyph horiz-adv-x="431" d="M128 -412l20 323h143l-93 -323h-70z" />
<glyph horiz-adv-x="1047" d="M201 1504h113q7 -25 25.5 -46t45.5 -36t62.5 -23.5t76.5 -8.5t76.5 8.5t62.5 23.5t45.5 36t25.5 46h114q-6 -50 -32 -90.5t-68.5 -69.5t-99.5 -45.5t-124 -16.5t-123.5 16.5t-99 45.5t-68.5 69.5t-32 90.5z" />
<glyph horiz-adv-x="913" d="M166 1205h101q7 -23 23 -41t40 -32t55.5 -21.5t71.5 -7.5q39 0 70.5 7.5t55.5 21t40 31.5t23 42h102q-5 -45 -28.5 -81.5t-62 -63t-89.5 -41t-111 -14.5q-61 0 -112 14.5t-89 41t-61.5 63t-28.5 81.5z" />
</font>
</defs>
</svg>
